<?xml version="1.0" encoding="UTF-8"?>
<svg id="Layer_1" data-name="Layer 1" xmlns="http://www.w3.org/2000/svg" width="320" height="320" xmlns:xlink="http://www.w3.org/1999/xlink" viewBox="0 0 320 320">
  <defs>
    <style>
      .cls-1 {
        fill: #041e42;
      }

      .cls-2 {
        fill: none;
      }

      .cls-3 {
        clip-path: url(#clippath);
      }

      .cls-4 {
        fill: #041e42;
      }
    </style>
    <clipPath id="clippath">
      <rect class="cls-2" width="320" height="320"/>
    </clipPath>
  </defs>
  <g class="cls-3">
    <g>
      <polygon class="cls-1" points="142.6 179.4 169.6 52.2 130.5 44 103.5 171.2 142.6 179.4"/>
      <path class="cls-1" d="M113.6,183.5l-12.2-2.6,3.2,16.1,4.7,23.9c1.1,5.4,4.5,6.2,7.7,1.6l17.7-25.1h0l5.8-8.2-9.8-2.1h0l-17.1-3.6h0Z"/>
      <path class="cls-4" d="M279.6,251.1c0-4.2-3.4-7.6-7.6-7.6-7.4,0-13.8,4.3-19.5,8.1-4.3,2.9-9.2,6.1-11.8,5.4-1-.3-3.9-1.7-7.6-9.2-15.6-31.2-64.6-15-107.8-.8-25.1,8.3-53.5,17.6-63.4,12.7-4-2-6.1-4.2-6.3-6.4-.5-7.3,13.1-19.9,22.3-26.2,3.5-2.3,4.4-7.1,2.1-10.6s-7.1-4.4-10.6-2.1c-5.1,3.4-30.3,21.1-29.1,39.8.4,5.6,3.2,13.4,14.7,19.1,4,2,8.9,2.9,14.5,2.9,15.7,0,36.9-7,60.5-14.7,37.4-12.3,79.7-26.2,89.4-6.8,4.9,9.7,10.5,15.4,17.3,17.2,9.3,2.5,17.6-3,24.2-7.4,3.9-2.6,8.3-5.5,11-5.5,4.3-.3,7.7-3.7,7.7-7.9"/>
    </g>
  </g>
</svg>