<?xml version="1.0" encoding="UTF-8"?>
<svg id="Layer_1" data-name="Layer 1" xmlns="http://www.w3.org/2000/svg" width="320" height="320" xmlns:xlink="http://www.w3.org/1999/xlink" viewBox="0 0 320 320">
  <defs>
    <style>
      .cls-1 {
        fill: #041e42;
      }

      .cls-2 {
        fill: none;
      }

      .cls-3 {
        clip-path: url(#clippath);
      }
    </style>
    <clipPath id="clippath">
      <rect class="cls-2" width="320" height="320"/>
    </clipPath>
  </defs>
  <g class="cls-3">
    <path class="cls-1" d="M195.6,146.5l-25.3-26.2,9.3-34.8-29,16.8-35.2-23.3,2.5,42.1-29,16.9,34.8,9.3,10,35,22-33.4,39.9-2.4ZM269,260.2l-17.7-17.7,17.7-17.7-8.8-8.8-17.7,17.7-17.7-17.7-8.8,8.8,17.7,17.7-17.7,17.7,8.8,8.8,17.7-17.7,17.7,17.7,8.8-8.8ZM286.2,242.5c0,24.2-19.6,43.8-43.8,43.8s-43.8-19.6-43.8-43.8,19.6-43.8,43.8-43.8c24.3.1,43.8,19.6,43.8,43.8M187,116l42.1,43.5-65,3.9-35.9,54.3-16.6-58.2-61.6-16.4,52.4-30.2-3.8-62.9,52.5,34.7,52.4-30.2-16.5,61.5ZM165.4,189.1l7-11.4,13.1-.8,12.5,21.6c-6.2,6.3-11.1,13.9-14.2,22.4l-18.4-31.8ZM320,0H0v320h320V0Z"/>
  </g>
</svg>