<?xml version="1.0" encoding="UTF-8"?>
<svg id="Layer_1" data-name="Layer 1" xmlns="http://www.w3.org/2000/svg" width="112.89mm" height="112.89mm" xmlns:xlink="http://www.w3.org/1999/xlink" viewBox="0 0 320 320">
  <defs>
    <style>
      .cls-1 {
        fill: none;
      }

      .cls-2 {
        fill: #04316a;
      }

      .cls-3 {
        clip-path: url(#clippath);
      }
    </style>
    <clipPath id="clippath">
      <rect class="cls-1" x="40" y="40" width="240" height="240"/>
    </clipPath>
  </defs>
  <g class="cls-3">
    <path class="cls-2" d="M188.3,160l56.6,56.6-28.3,28.3-56.6-56.6-56.6,56.6-28.3-28.3,56.6-56.6-56.6-56.6,28.3-28.3,56.6,56.6,56.6-56.6,28.3,28.3-56.6,56.6ZM280,260V60c0-11-9-20-20-20H60c-11,0-20,9-20,20v200c0,11,9,20,20,20h200c11,0,20-9,20-20"/>
  </g>
  <rect class="cls-1" y="0" width="320" height="320"/>
</svg>