<?xml version="1.0" encoding="UTF-8"?>
<svg id="Layer_1" data-name="Layer 1" xmlns="http://www.w3.org/2000/svg" width="320" height="320" xmlns:xlink="http://www.w3.org/1999/xlink" viewBox="0 0 320 320">
  <defs>
    <style>
      .cls-1 {
        fill: #041e42;
      }

      .cls-2 {
        fill: #c0cbda;
      }

      .cls-3 {
        fill: none;
      }

      .cls-4 {
        clip-path: url(#clippath);
      }
    </style>
    <clipPath id="clippath">
      <rect class="cls-3" x="70" y="45" width="180" height="230"/>
    </clipPath>
  </defs>
  <polygon class="cls-2" points="235 260 85 260 85 115 140 115 140 60 235 60 235 260"/>
  <rect class="cls-3" width="320" height="320"/>
  <g class="cls-4">
    <path class="cls-1" d="M213.6,154l-86,86h92.2v-86h-6.2ZM192.4,154h-92.6v86h6.6l86-86ZM235,260H85V115h55v-55h95v200ZM250,270V50c0-2.8-2.2-5-5-5h-120c-2.8,0-6.6,1.6-8.5,3.5l-43,43c-2,1.9-3.5,5.8-3.5,8.5v170c0,2.8,2.2,5,5,5h170c2.8,0,5-2.2,5-5"/>
  </g>
</svg>