<?xml version="1.0" encoding="UTF-8"?>
<svg id="Layer_1" data-name="Layer 1" xmlns="http://www.w3.org/2000/svg" width="320" height="320" xmlns:xlink="http://www.w3.org/1999/xlink" viewBox="0 0 320 320">
  <defs>
    <style>
      .cls-1 {
        fill: #041e42;
      }

      .cls-2 {
        fill: #c0cbda;
      }

      .cls-3 {
        fill: none;
      }

      .cls-4 {
        clip-path: url(#clippath);
      }
    </style>
    <clipPath id="clippath">
      <rect class="cls-3" width="320" height="320"/>
    </clipPath>
  </defs>
  <g class="cls-4">
    <path class="cls-1" d="M84.9,256.5c0,4.7,33.6,8.5,75,8.5s75-3.8,75-8.5-33.6-8.5-75-8.5-75,3.8-75,8.5M222.4,208.4l-1,14.9-.9-.1c-40.9-2.9-81.8-5.7-122.7-8.6l1-14.9,123.6,8.7h0ZM207.2,192.3l-91.4-6.4c19.6-9.5,44-23.4,39.3-45.3-1.4-7.2-4.4-14.2-7.3-20.9-1.7-4-3.3-7.7-4.6-11.4-.1-.2-.1-.3-.2-.5-1.6-3.8-2.5-7.9-2.4-12.3,0-.6.2-3.1.3-3.7,2-15.2,14.7-26.3,29.3-25.7,14.5,1.4,25.6,14.2,25.4,29.5,0,.6-.2,3.1-.3,3.7-.6,4.4-2,8.3-4.1,11.9-.1.2-.2.3-.3.5-1.8,3.5-3.9,7-6.2,10.7-3.8,6.3-7.8,12.8-10.2,19.7-7.6,20.9,14.6,38.1,32.7,50.2M221,183.5c-13.8-9.1-36.8-24.3-32.4-36.4v-.1c1.9-5.4,5.3-11,8.9-16.9,2.2-3.7,4.5-7.4,6.5-11.4,3.2-5.3,5.2-11.2,6.1-17.5.1-.7.4-4.3.4-5.4.3-23.3-16.9-42.8-39.4-44.8-22.5-1.2-42.3,15.7-45.2,38.8h0c-.1,1-.4,4.7-.4,5.4-.1,6.4,1.1,12.5,3.6,18.2,1.5,4.1,3.2,8.2,4.9,12.2,2.7,6.4,5.3,12.4,6.4,18v.1c2.7,12.6-22.2,24.4-37.1,31.5-12.4,5.9-18.6,8.9-19.1,15.4-.1.8-2,30.5-2,30.5-.1,2,.5,3.9,1.8,5.4s3.2,2.4,5.1,2.6c43.4,3,86.8,6.1,130.2,9.1l8.4.6h.5c3.9,0,7.2-3,7.5-7,0,0,1.9-29.9,2-30.5.5-6.4-5.2-10.2-16.7-17.8"/>
  </g>
  <path class="cls-2" d="M222.3,208.3l-1,14.9-.9-.1c-40.9-2.9-81.8-5.7-122.7-8.6l1-14.9,123.6,8.7h0Z"/>
  <path class="cls-2" d="M207.1,192.2l-91.4-6.4c19.6-9.5,44-23.4,39.3-45.3-1.4-7.2-4.4-14.2-7.3-20.9-1.7-4-3.3-7.7-4.6-11.4-.1-.2-.1-.3-.2-.5-1.6-3.8-2.5-7.9-2.4-12.3,0-.6.2-3.1.3-3.7,2-15.2,14.7-26.3,29.3-25.7,14.5,1.4,25.6,14.2,25.4,29.5,0,.6-.2,3.1-.3,3.7-.6,4.4-2,8.3-4.1,11.9-.1.2-.2.3-.3.5-1.8,3.5-3.9,7-6.2,10.7-3.8,6.3-7.8,12.8-10.2,19.7-7.6,20.9,14.6,38.1,32.7,50.2"/>
</svg>