<?xml version="1.0" encoding="UTF-8"?>
<svg id="Layer_1" data-name="Layer 1" xmlns="http://www.w3.org/2000/svg" width="320" height="320" xmlns:xlink="http://www.w3.org/1999/xlink" viewBox="0 0 320 320">
  <defs>
    <style>
      .cls-1 {
        fill: #041e42;
      }

      .cls-2 {
        fill: none;
      }

      .cls-3 {
        fill: #c0cbda;
      }

      .cls-4 {
        clip-path: url(#clippath);
      }
    </style>
    <clipPath id="clippath">
      <rect class="cls-2" width="320" height="320"/>
    </clipPath>
  </defs>
  <path class="cls-3" d="M247.5,160c0,48.3-39.2,87.5-87.5,87.5s-87.5-39.2-87.5-87.5,39.2-87.5,87.5-87.5,87.5,39.2,87.5,87.5"/>
  <g class="cls-4">
    <path class="cls-1" d="M218.4,189.2c2.3-4.7.5-10.3-4.2-12.7l-44.8-22.4v-44.1c0-5.2-4.2-9.4-9.4-9.4s-9.4,4.2-9.4,9.4v50c0,3.6,2,6.8,5.2,8.4l50,25c1.4.7,2.8,1,4.2,1,3.5,0,6.8-1.9,8.4-5.2M247.5,160c0,48.3-39.2,87.5-87.5,87.5s-87.5-39.2-87.5-87.5,39.2-87.5,87.5-87.5,87.5,39.2,87.5,87.5M267.7,160c0-59.5-48.2-107.7-107.7-107.7s-107.7,48.2-107.7,107.7,48.2,107.7,107.7,107.7,107.7-48.2,107.7-107.7"/>
  </g>
</svg>