<?xml version="1.0" encoding="UTF-8"?>
<svg id="Layer_1" data-name="Layer 1" xmlns="http://www.w3.org/2000/svg" width="320" height="320" xmlns:xlink="http://www.w3.org/1999/xlink" viewBox="0 0 320 320">
  <defs>
    <style>
      .cls-1 {
        fill: #041e42;
      }

      .cls-2 {
        fill: #c0cbda;
      }

      .cls-3 {
        fill: none;
      }

      .cls-4 {
        clip-path: url(#clippath);
      }
    </style>
    <clipPath id="clippath">
      <rect class="cls-3" x="60" y="49.9" width="220" height="220.2"/>
    </clipPath>
  </defs>
  <g class="cls-4">
    <g>
      <path class="cls-1" d="M210,102.6v-45.2c0-4.1-3.4-7.5-7.5-7.5H67.5c-4.1,0-7.5,3.4-7.5,7.5v205.2c0,4.1,3.4,7.5,7.5,7.5h135c4.1,0,7.5-3.4,7.5-7.5v-45c0-4.1-3.4-7.5-7.5-7.5s-7.5,3.4-7.5,7.5v37.5h-120V64.9h120v37.7c0,4.1,3.4,7.5,7.5,7.5s7.5-3.3,7.5-7.5"/>
      <polygon class="cls-2" points="235 110.1 235 147.1 165 147.1 165 173.1 235 173.1 235 210.1 280 160.1 235 110.1"/>
    </g>
  </g>
  <rect class="cls-3" width="320" height="320"/>
</svg>