<?xml version="1.0" encoding="UTF-8" standalone="no"?>
<!-- Generator: Adobe Illustrator 22.0.1, SVG Export Plug-In . SVG Version: 6.00 Build 0)  -->

<svg
   xmlns:dc="http://purl.org/dc/elements/1.1/"
   xmlns:cc="http://creativecommons.org/ns#"
   xmlns:rdf="http://www.w3.org/1999/02/22-rdf-syntax-ns#"
   xmlns:svg="http://www.w3.org/2000/svg"
   xmlns="http://www.w3.org/2000/svg"
   xmlns:sodipodi="http://sodipodi.sourceforge.net/DTD/sodipodi-0.dtd"
   xmlns:inkscape="http://www.inkscape.org/namespaces/inkscape"
   version="1.1"
   id="Ebene_1"
   x="0px"
   y="0px"
   viewBox="0 0 260 81.199995"
   xml:space="preserve"
   sodipodi:docname="HeaderIcon.svg"
   width="225"
   height="70"
   inkscape:version="0.92.3 (2405546, 2018-03-11)"><metadata
   id="metadata31"><rdf:RDF><cc:Work
       rdf:about=""><dc:format>image/svg+xml</dc:format><dc:type
         rdf:resource="http://purl.org/dc/dcmitype/StillImage" /><dc:title></dc:title></cc:Work></rdf:RDF></metadata><defs
   id="defs29" /><sodipodi:namedview
   pagecolor="#ffffff"
   bordercolor="#666666"
   borderopacity="1"
   objecttolerance="10"
   gridtolerance="10"
   guidetolerance="10"
   inkscape:pageopacity="0"
   inkscape:pageshadow="2"
   inkscape:window-width="1920"
   inkscape:window-height="1017"
   id="namedview27"
   showgrid="false"
   inkscape:zoom="4.4850932"
   inkscape:cx="105.88004"
   inkscape:cy="45.159922"
   inkscape:window-x="3832"
   inkscape:window-y="-8"
   inkscape:window-maximized="1"
   inkscape:current-layer="Ebene_1" />
<style
   type="text/css"
   id="style2">
	.st0{fill:#002F6C;}
	.st1{fill:#607DA3;}
</style>




<g
   id="g849"
   transform="matrix(0.21874474,0,0,0.21874474,-0.59061077,-39.969245)"><g
     id="g6">
	<path
   id="path4"
   d="m 978.9,447.3 h -27.8 l -18.4,-65.6 v 65.6 H 910.2 V 324.1 h 30.7 l 15.5,56.2 v -56.2 h 22.5 z"
   class="st0"
   inkscape:connector-curvature="0"
   style="fill:#002f6c" />
</g><g
     id="g16">
	<path
   id="path8"
   d="m 213.7,398 h 24.6 v 28.3 c 0,2.8 1.7,4.2 5.1,4.2 3.3,0 4.9,-1.4 4.9,-4.2 v -14.6 c 0,-4.5 -3,-9.7 -8.9,-15.7 -11.5,-11.2 -18.7,-18.7 -21.5,-22.5 -2.8,-3.8 -4.2,-8 -4.2,-12.6 V 347 c 0,-16 10.4,-24 31.3,-24 18.7,0 28,7.3 28,21.8 v 21.3 h -24.6 v -22.7 c 0,-2.5 -1.4,-3.7 -4.1,-3.7 -3.2,0 -4.8,2.4 -4.8,7.2 l 0.5,8 c 0,4.6 3,9.9 9.1,16 11.3,10.8 18.5,18.4 21.6,22.7 3.1,4.3 4.6,9.2 4.6,14.6 v 15.7 c 0,16.4 -10.5,24.6 -31.4,24.6 -20.2,0 -30.3,-7.4 -30.3,-22.3 z"
   class="st0"
   inkscape:connector-curvature="0"
   style="fill:#002f6c" />
	<path
   id="path10"
   d="m 371.4,340.2 h -15.1 v 107.1 h -27 V 340.2 h -15.1 v -16.1 h 57.3 v 16.1 z"
   class="st0"
   inkscape:connector-curvature="0"
   style="fill:#002f6c" />
	<path
   id="path12"
   d="m 411.3,324.1 h 27 v 103.4 c 0,2.5 1.5,3.7 4.6,3.7 3,0 4.5,-1.2 4.5,-3.7 V 324.1 h 27 V 426 c 0,7.1 -3,12.6 -8.9,16.5 -5.9,3.9 -13.5,5.8 -22.7,5.8 -8.6,0 -16,-1.7 -22.2,-5.2 -6.3,-3.5 -9.4,-9.1 -9.4,-16.9 z"
   class="st0"
   inkscape:connector-curvature="0"
   style="fill:#002f6c" />
	<path
   id="path14"
   d="M 514.8,447.3 V 324.1 h 33.8 c 7.3,0 13.9,2 19.6,6 5.7,4 8.6,10.1 8.6,18.3 V 423 c 0,7.7 -2.7,13.6 -8.1,17.9 -5.4,4.3 -12,6.4 -20,6.4 z m 34.8,-22.4 v -78.5 c 0,-4.3 -2.6,-6.4 -7.7,-6.4 v 91.5 c 5.1,-0.1 7.7,-2.2 7.7,-6.6 z"
   class="st0"
   inkscape:connector-curvature="0"
   style="fill:#002f6c" />
</g><g
     id="g20">
	<path
   id="path18"
   d="m 850.1,370 c 0,57.1 -46.5,103.6 -103.6,103.6 -57.1,0 -103.6,-46.5 -103.6,-103.6 0,-57.1 46.5,-103.6 103.6,-103.6 57.1,0 103.6,46.5 103.6,103.6 z M 746.5,239.1 c -72.2,0 -130.9,58.7 -130.9,130.9 0,72.2 58.7,130.9 130.9,130.9 72.2,0 130.9,-58.7 130.9,-130.9 0,-72.1 -58.8,-130.9 -130.9,-130.9 z"
   class="st0"
   inkscape:connector-curvature="0"
   style="fill:#002f6c" />
</g><rect
     id="rect22"
     height="23.1"
     width="184"
     class="st1"
     y="371.10001"
     x="2.7"
     style="fill:#607da3" /><rect
     id="rect24"
     height="23.1"
     width="184"
     class="st1"
     y="371.10001"
     x="1007.3"
     style="fill:#607da3" /></g>
</svg>