<?xml version="1.0" encoding="utf-8"?>
<!-- Generator: Adobe Illustrator 22.0.1, SVG Export Plug-In . SVG Version: 6.00 Build 0)  -->
<svg version="1.1" id="Layer_1" xmlns="http://www.w3.org/2000/svg" xmlns:xlink="http://www.w3.org/1999/xlink" x="0px" y="0px"
	 width="32px" height="32px" viewBox="0 0 32 32" style="enable-background:new 0 0 32 32;" xml:space="preserve">
<style type="text/css">
	
		.st0{clip-path:url(#SVGID_1_);fill:none;stroke:#161616;stroke-width:0.75;stroke-linecap:round;stroke-linejoin:round;stroke-miterlimit:10;}
	.st1{fill:#0E2F6E;stroke:#161616;stroke-width:0.75;stroke-linecap:round;stroke-linejoin:round;stroke-miterlimit:10;}
	.st2{fill:#FFFFBA;stroke:#161616;stroke-width:0.75;stroke-linecap:round;stroke-linejoin:round;stroke-miterlimit:10;}
</style>
<g>
	<g>
		<g>
			<defs>
				<path id="SVGID_711_" d="M5.5,26.4c0,0.8,2.2,1.5,5,1.5s5-0.7,5-1.5s-2.2-1.5-5-1.5S5.5,25.6,5.5,26.4"/>
			</defs>
			<clipPath id="SVGID_1_">
				<use xlink:href="#SVGID_711_"  style="overflow:visible;"/>
			</clipPath>
			<rect x="5.5" y="24.9" class="st0" width="10" height="3"/>
			
				<use xlink:href="#SVGID_711_"  style="overflow:visible;fill:none;stroke:#161616;stroke-width:0.75;stroke-linecap:round;stroke-linejoin:round;stroke-miterlimit:10;"/>
		</g>
	</g>
	
		<rect x="-0.7" y="14.9" transform="matrix(6.123234e-17 -1 1 6.123234e-17 -4.7628 25.7434)" class="st1" width="22.3" height="0.7"/>
	<path class="st2" d="M12.8,4.1v12.4c0,0,3.4-3,6.9-2.4c3.9,0.8,5.9-1.2,6.9-2.9c0,0-4.5-0.5-7.5-4.3C16.6,3.8,12.8,4.1,12.8,4.1z"
		/>
</g>
</svg>
