<?xml version="1.0" encoding="utf-8"?>
<!-- Generator: Adobe Illustrator 22.0.1, SVG Export Plug-In . SVG Version: 6.00 Build 0)  -->
<svg version="1.1" id="Layer_1" xmlns="http://www.w3.org/2000/svg" xmlns:xlink="http://www.w3.org/1999/xlink" x="0px" y="0px"
	 width="32px" height="32px" viewBox="0 0 32 32" style="enable-background:new 0 0 32 32;" xml:space="preserve">
<style type="text/css">
	.st0{clip-path:url(#SVGID_1_);fill:#DFDCF2;stroke:#161616;stroke-width:0.75;stroke-miterlimit:10;}
	.st1{fill:#0E2F6E;}
	.st2{fill:#161616;}
	.st3{fill:#BAE1FF;stroke:#161616;stroke-width:0.75;stroke-linecap:round;stroke-linejoin:round;stroke-miterlimit:10;}
	.st4{fill:none;stroke:#161616;stroke-width:0.75;stroke-linecap:round;stroke-linejoin:round;stroke-miterlimit:10;}
</style>
<g>
	<g>
		<g>
			<g>
				<defs>
					<path id="SVGID_716_" d="M11,4c0,0-0.5,0-0.5,0.5v23c0,0,0,0.5,0.5,0.5h8c0,0,0.5,0,0.5-0.5v-23c0,0,0-0.5-0.5-0.5H11z"/>
				</defs>
				<use xlink:href="#SVGID_716_"  style="overflow:visible;fill:#DFDCF2;"/>
				<clipPath id="SVGID_1_">
					<use xlink:href="#SVGID_716_"  style="overflow:visible;"/>
				</clipPath>
				<rect x="10.5" y="4" class="st0" width="9" height="24"/>
				<use xlink:href="#SVGID_716_"  style="overflow:visible;fill:none;stroke:#161616;stroke-width:0.75;stroke-miterlimit:10;"/>
			</g>
		</g>
	</g>
	<rect x="12.8" y="7" class="st1" width="4.5" height="1.5"/>
	<rect x="12.8" y="10" class="st1" width="4.5" height="1.5"/>
	<g>
		<path class="st2" d="M27.7,12.3l-0.3-0.9h-3l-0.3,0.9c-0.1,0.4-0.3,0.6-0.3,0.7c-0.1,0.1-0.3,0.2-0.5,0.2c-0.2,0-0.3-0.1-0.5-0.2
			s-0.2-0.3-0.2-0.5c0-0.1,0-0.2,0-0.3s0.1-0.3,0.2-0.4l1.9-4.7c0.1-0.1,0.1-0.3,0.2-0.5c0.1-0.2,0.2-0.3,0.2-0.5
			c0.1-0.1,0.2-0.2,0.3-0.3c0.1-0.1,0.3-0.1,0.5-0.1c0.2,0,0.4,0,0.5,0.1c0.1,0.1,0.2,0.2,0.3,0.3s0.2,0.3,0.2,0.4
			c0.1,0.1,0.1,0.3,0.2,0.6l1.9,4.7c0.1,0.4,0.2,0.6,0.2,0.8c0,0.2-0.1,0.3-0.2,0.5c-0.1,0.1-0.3,0.2-0.5,0.2c-0.1,0-0.2,0-0.3-0.1
			c-0.1,0-0.2-0.1-0.2-0.2c-0.1-0.1-0.1-0.2-0.2-0.3C27.8,12.5,27.8,12.4,27.7,12.3z M24.8,10.3H27l-1.1-3L24.8,10.3z"/>
		<path class="st2" d="M26.7,16.2h-1.6c-0.2,0-0.4-0.1-0.5-0.2c-0.1-0.1-0.2-0.3-0.2-0.4c0-0.2,0.1-0.3,0.2-0.4
			c0.1-0.1,0.3-0.2,0.5-0.2h1.6c0.2,0,0.4,0.1,0.5,0.2c0.1,0.1,0.2,0.3,0.2,0.4c0,0.2-0.1,0.3-0.2,0.4C27.2,16.1,27,16.2,26.7,16.2z
			"/>
		<path class="st2" d="M23.2,24.2l3.7-4.5h-3.2c-0.2,0-0.4,0-0.5-0.1c-0.1-0.1-0.2-0.2-0.2-0.4c0-0.2,0.1-0.3,0.2-0.4
			c0.1-0.1,0.3-0.2,0.5-0.2h4.1c0.5,0,0.8,0.3,0.8,0.8c0,0.2,0,0.4-0.1,0.6c-0.1,0.1-0.3,0.4-0.5,0.7l-3.5,4.2h3.9
			c0.2,0,0.4,0,0.5,0.1c0.1,0.1,0.2,0.2,0.2,0.4c0,0.2-0.1,0.3-0.2,0.4c-0.1,0.1-0.3,0.2-0.5,0.2h-4.7c-0.3,0-0.6-0.1-0.7-0.2
			s-0.2-0.3-0.2-0.6c0-0.1,0-0.2,0-0.2c0-0.1,0.1-0.1,0.1-0.2c0-0.1,0.1-0.1,0.2-0.2C23.1,24.3,23.2,24.2,23.2,24.2z"/>
	</g>
	<g>
		<path class="st3" d="M14.3,20.8c0,3.2-2.6,5.8-5.8,5.8c-3.2,0-5.8-2.6-5.8-5.8c0-1.1,0.3-2.1,0.8-3c1-1.7,2.9-2.8,5-2.8
			c2.1,0,3.9,1.1,5,2.8C14,18.7,14.3,19.7,14.3,20.8z"/>
		<g>
			<line class="st4" x1="8.5" y1="15" x2="8.5" y2="26.6"/>
			<path class="st4" d="M5.9,15.8c-0.5,1.5-0.7,3.2-0.7,5c0,1.8,0.3,3.5,0.7,5"/>
			<path class="st4" d="M11.1,25.8c0.5-1.5,0.7-3.2,0.7-5c0-1.8-0.3-3.5-0.7-5"/>
		</g>
		<g>
			<line class="st4" x1="3.4" y1="20.8" x2="13.6" y2="20.8"/>
			<path class="st4" d="M4.1,17.7c1.1,0.6,2.7,1,4.4,1s3.2-0.4,4.4-1"/>
			<path class="st4" d="M12.9,23.9c-1.1-0.6-2.7-1-4.4-1s-3.2,0.4-4.4,1"/>
		</g>
	</g>
</g>
</svg>
