<?xml version="1.0" encoding="utf-8"?>
<!-- Generator: Adobe Illustrator 22.0.1, SVG Export Plug-In . SVG Version: 6.00 Build 0)  -->
<svg version="1.1" id="Layer_1" xmlns="http://www.w3.org/2000/svg" xmlns:xlink="http://www.w3.org/1999/xlink" x="0px" y="0px"
	 width="32px" height="32px" viewBox="0 0 32 32" style="enable-background:new 0 0 32 32;" xml:space="preserve">
<style type="text/css">
	.st0{fill:#FFDFBA;stroke:#161616;stroke-width:0.75;stroke-linecap:round;stroke-linejoin:round;stroke-miterlimit:10;}
	.st1{fill:#BAFFC9;stroke:#161616;stroke-width:0.75;stroke-linecap:round;stroke-linejoin:round;stroke-miterlimit:10;}
	.st2{fill:none;stroke:#161616;stroke-width:0.75;stroke-linecap:round;stroke-linejoin:round;stroke-miterlimit:10;}
</style>
<g>
	<path class="st0" d="M9.4,14.5c1.9,0,3.4-1.7,3.4-3.8c0-2.1-1.5-3.8-3.4-3.8C7.5,6.9,6,8.6,6,10.7C6,12.8,7.5,14.5,9.4,14.5"/>
	<path class="st1" d="M9.4,17.3c-1,0-1.9-0.3-2.5-0.8c-1.4,0.7-2.4,1.9-2.4,3.2v5.3h10v-5.3c0-1.3-1-2.5-2.4-3.2
		C11.3,17,10.4,17.3,9.4,17.3"/>
	<line class="st2" x1="16.9" y1="11.5" x2="27.6" y2="11.5"/>
	<line class="st2" x1="16.9" y1="16.8" x2="27.6" y2="16.8"/>
	<line class="st2" x1="16.9" y1="22.1" x2="27.6" y2="22.1"/>
</g>
</svg>
