<?xml version="1.0" encoding="utf-8"?>
<!-- Generator: Adobe Illustrator 22.0.1, SVG Export Plug-In . SVG Version: 6.00 Build 0)  -->
<svg version="1.1" id="Layer_1" xmlns="http://www.w3.org/2000/svg" xmlns:xlink="http://www.w3.org/1999/xlink" x="0px" y="0px"
	 width="32px" height="32px" viewBox="0 0 32 32" style="enable-background:new 0 0 32 32;" xml:space="preserve">
<style type="text/css">
	
		.st0{clip-path:url(#SVGID_1_);fill:#BAFFC9;stroke:#161616;stroke-width:0.75;stroke-linecap:round;stroke-linejoin:round;stroke-miterlimit:10;}
	.st1{fill:none;stroke:#161616;stroke-width:0.75;stroke-linecap:round;stroke-linejoin:round;}
	
		.st2{clip-path:url(#SVGID_2_);fill:#BAFFC9;stroke:#161616;stroke-width:0.75;stroke-linecap:round;stroke-linejoin:round;stroke-miterlimit:10;}
	.st3{clip-path:url(#SVGID_3_);fill:#161616;}
	
		.st4{clip-path:url(#SVGID_4_);fill:none;stroke:#161616;stroke-width:0.75;stroke-linecap:round;stroke-linejoin:round;stroke-miterlimit:10;}
</style>
<g>
	<g>
		<g>
			<defs>
				<polygon id="SVGID_802_" points="4,5 4,20 8,20 8,11 23,11 23,5 				"/>
			</defs>
			<use xlink:href="#SVGID_802_"  style="overflow:visible;fill:#BAFFC9;"/>
			<clipPath id="SVGID_1_">
				<use xlink:href="#SVGID_802_"  style="overflow:visible;"/>
			</clipPath>
			<rect x="4" y="5" class="st0" width="19" height="15"/>
			
				<use xlink:href="#SVGID_802_"  style="overflow:visible;fill:none;stroke:#161616;stroke-width:0.75;stroke-linecap:round;stroke-linejoin:round;stroke-miterlimit:10;"/>
		</g>
	</g>
	<path class="st1" d="M26.5,9"/>
	<g>
		<g>
			<defs>
				<polygon id="SVGID_801_" points="10,13 10,27 28,27 28,18 22,26 22,26 22,26 15.3,19.9 17.7,17.3 21.4,20.7 27.2,13 				"/>
			</defs>
			<use xlink:href="#SVGID_801_"  style="overflow:visible;fill:#BAFFC9;"/>
			<clipPath id="SVGID_2_">
				<use xlink:href="#SVGID_801_"  style="overflow:visible;"/>
			</clipPath>
			<rect x="10" y="13" class="st2" width="18" height="14"/>
			
				<use xlink:href="#SVGID_801_"  style="overflow:visible;fill:none;stroke:#161616;stroke-width:0.75;stroke-linecap:round;stroke-linejoin:round;stroke-miterlimit:10;"/>
		</g>
	</g>
	<g>
		<g>
			<defs>
				<polygon id="SVGID_800_" points="22.8,25 22,26 22,26 22,26 20.9,25 10,25 10,27 28,27 28,25 				"/>
			</defs>
			<use xlink:href="#SVGID_800_"  style="overflow:visible;fill:#161616;"/>
			<clipPath id="SVGID_3_">
				<use xlink:href="#SVGID_800_"  style="overflow:visible;"/>
			</clipPath>
			<rect x="10" y="25" class="st3" width="18" height="2"/>
		</g>
	</g>
	<g>
		<g>
			<defs>
				<polygon id="SVGID_814_" points="4,19.6 4,23.3 9.2,23.3 9.2,27 14.4,21.4 9.2,15.9 9.2,19.6 				"/>
			</defs>
			<use xlink:href="#SVGID_814_"  style="overflow:visible;fill:#FFB3BA;"/>
			<clipPath id="SVGID_4_">
				<use xlink:href="#SVGID_814_"  style="overflow:visible;"/>
			</clipPath>
			<rect x="4" y="15.9" class="st4" width="10.4" height="11.1"/>
			
				<use xlink:href="#SVGID_814_"  style="overflow:visible;fill:none;stroke:#161616;stroke-width:0.75;stroke-linecap:round;stroke-linejoin:round;stroke-miterlimit:10;"/>
		</g>
	</g>
</g>
</svg>
