<?xml version="1.0" encoding="utf-8"?>
<!-- Generator: Adobe Illustrator 22.0.1, SVG Export Plug-In . SVG Version: 6.00 Build 0)  -->
<svg version="1.1" id="Layer_1" xmlns="http://www.w3.org/2000/svg" xmlns:xlink="http://www.w3.org/1999/xlink" x="0px" y="0px"
	 width="32px" height="32px" viewBox="0 0 32 32" style="enable-background:new 0 0 32 32;" xml:space="preserve">
<style type="text/css">
	.st0{clip-path:url(#SVGID_1_);fill:#161616;}
	.st1{clip-path:url(#SVGID_2_);fill:#FFFFFF;}
	.st2{fill:#BAE1FF;}
	.st3{fill:#FFB3BA;}
	.st4{fill:#FFFFBA;}
</style>
<g>
	<g>
		<g>
			<defs>
				<path id="SVGID_787_" d="M8,22.3C8,21,9.1,20,10.4,20s2.4,1.1,2.4,2.4s-1.1,2.4-2.4,2.4S8,23.6,8,22.3 M4.5,15.7
					c0-1.4,1.1-2.5,2.5-2.5s2.5,1.1,2.5,2.5S8.4,18.2,7,18.2C5.7,18.2,4.5,17.1,4.5,15.7 M14.5,6.6c0-1.1,0.9-1.9,2-1.9s2,0.9,2,1.9
					c0,1.1-0.9,1.9-2,1.9C15.3,8.5,14.5,7.7,14.5,6.6 M16.7,2C10.3,2.1,2,7.2,2,16.4c0,2.6,1.3,10.3,9.1,12.9
					c7.5,2.5,13-2.6,15.6-7.8c1.5-3,3.3-6.4,3.3-8.4V13c0-1.1-0.6-1.8-2-1.8c-2.6,0-2.6,2.6-6.5,1.3s3.9-9.1-2.6-10.3
					C18.3,2.1,17.6,2,17,2H16.7z"/>
			</defs>
			<use xlink:href="#SVGID_787_"  style="overflow:visible;fill:#161616;"/>
			<clipPath id="SVGID_1_">
				<use xlink:href="#SVGID_787_"  style="overflow:visible;"/>
			</clipPath>
			<rect x="2" y="2" class="st0" width="28" height="29.8"/>
		</g>
	</g>
	<g>
		<g>
			<defs>
				<rect id="SVGID_786_" x="2" y="2" width="28" height="28"/>
			</defs>
			<clipPath id="SVGID_2_">
				<use xlink:href="#SVGID_786_"  style="overflow:visible;"/>
			</clipPath>
			<path class="st1" d="M17.3,25.6c1,0,1.9-0.8,1.9-1.8S18.4,22,17.3,22s-1.9,0.8-1.9,1.8S16.3,25.6,17.3,25.6"/>
		</g>
	</g>
	<circle class="st2" cx="7" cy="15.7" r="2.7"/>
	<circle class="st3" cx="10.4" cy="22.4" r="2.7"/>
	<circle class="st4" cx="17.2" cy="23.7" r="2.2"/>
</g>
</svg>
