<?xml version="1.0" encoding="utf-8"?>
<!-- Generator: Adobe Illustrator 22.0.1, SVG Export Plug-In . SVG Version: 6.00 Build 0)  -->
<svg version="1.1" id="Layer_1" xmlns="http://www.w3.org/2000/svg" xmlns:xlink="http://www.w3.org/1999/xlink" x="0px" y="0px"
	 width="32px" height="32px" viewBox="0 0 32 32" style="enable-background:new 0 0 32 32;" xml:space="preserve">
<style type="text/css">
	.st0{fill:#FFDFBA;stroke:#161616;stroke-width:0.75;stroke-linecap:round;stroke-linejoin:round;stroke-miterlimit:10;}
	
		.st1{clip-path:url(#SVGID_1_);fill:#BAFFC9;stroke:#0E2F6E;stroke-width:0.75;stroke-linecap:round;stroke-linejoin:round;stroke-miterlimit:10;}
	.st2{fill:#BAFFC9;stroke:#161616;stroke-width:0.75;stroke-linecap:round;stroke-linejoin:round;stroke-miterlimit:10;}
	
		.st3{clip-path:url(#SVGID_2_);fill:#D8BDF2;stroke:#0E2F6E;stroke-width:0.75;stroke-linecap:round;stroke-linejoin:round;stroke-miterlimit:10;}
	.st4{fill:#D8BDF2;stroke:#161616;stroke-width:0.75;stroke-linecap:round;stroke-linejoin:round;stroke-miterlimit:10;}
	
		.st5{clip-path:url(#SVGID_3_);fill:#BAE1FF;stroke:#0E2F6E;stroke-width:0.75;stroke-linecap:round;stroke-linejoin:round;stroke-miterlimit:10;}
	.st6{fill:#BAE1FF;stroke:#161616;stroke-width:0.75;stroke-linecap:round;stroke-linejoin:round;stroke-miterlimit:10;}
	.st7{fill:none;stroke:#161616;stroke-width:0.75;stroke-linecap:round;stroke-linejoin:round;stroke-miterlimit:10;}
</style>
<g>
	<path class="st0" d="M5.1,18.3c1.7,0,3.1-1.5,3.1-3.4c0-1.9-1.4-3.4-3.1-3.4C3.4,11.5,2,13,2,14.9C2,16.8,3.4,18.3,5.1,18.3"/>
	<g>
		<defs>
			<path id="SVGID_719_" d="M5.1,20.8c-0.9,0-1.7-0.3-2.3-0.7c-1.3,0.6-2.2,1.7-2.2,2.9v4.8h9V23c0-1.2-0.9-2.3-2.2-2.9
				C6.8,20.5,6,20.8,5.1,20.8"/>
		</defs>
		<use xlink:href="#SVGID_719_"  style="overflow:visible;fill:#BAFFC9;"/>
		<clipPath id="SVGID_1_">
			<use xlink:href="#SVGID_719_"  style="overflow:visible;"/>
		</clipPath>
		<rect x="0.6" y="20.1" class="st1" width="9" height="7.7"/>
	</g>
	<path class="st2" d="M5.1,20.8c-0.9,0-1.7-0.3-2.3-0.7c-1.3,0.6-2.2,1.7-2.2,2.9v4.8h9V23c0-1.2-0.9-2.3-2.2-2.9
		C6.8,20.5,6,20.8,5.1,20.8"/>
	<path class="st0" d="M26,21.3c1.7,0,3.1-1.5,3.1-3.4c0-1.9-1.4-3.4-3.1-3.4c-1.7,0-3.1,1.5-3.1,3.4C22.9,19.8,24.3,21.3,26,21.3"/>
	<g>
		<defs>
			<path id="SVGID_718_" d="M26,23.8c-0.9,0-1.7-0.3-2.3-0.7c-1.3,0.6-2.2,1.7-2.2,2.9v4.8h9V26c0-1.2-0.9-2.3-2.2-2.9
				C27.7,23.5,26.9,23.8,26,23.8"/>
		</defs>
		<use xlink:href="#SVGID_718_"  style="overflow:visible;fill:#D8BDF2;"/>
		<clipPath id="SVGID_2_">
			<use xlink:href="#SVGID_718_"  style="overflow:visible;"/>
		</clipPath>
		<rect x="21.5" y="23.1" class="st3" width="9" height="7.7"/>
	</g>
	<path class="st4" d="M26,23.8c-0.9,0-1.7-0.3-2.3-0.7c-1.3,0.6-2.2,1.7-2.2,2.9v4.8h9V26c0-1.2-0.9-2.3-2.2-2.9
		C27.7,23.5,26.9,23.8,26,23.8"/>
	<path class="st0" d="M15.6,13.8c1.7,0,3.1-1.5,3.1-3.4c0-1.9-1.4-3.4-3.1-3.4c-1.7,0-3.1,1.5-3.1,3.4
		C12.5,12.3,13.9,13.8,15.6,13.8"/>
	<g>
		<defs>
			<path id="SVGID_717_" d="M15.6,16.3c-0.9,0-1.7-0.3-2.3-0.7c-1.3,0.6-2.2,1.7-2.2,2.9v4.8h9v-4.8c0-1.2-0.9-2.3-2.2-2.9
				C17.3,16,16.5,16.3,15.6,16.3"/>
		</defs>
		<use xlink:href="#SVGID_717_"  style="overflow:visible;fill:#BAE1FF;"/>
		<clipPath id="SVGID_3_">
			<use xlink:href="#SVGID_717_"  style="overflow:visible;"/>
		</clipPath>
		<rect x="11.1" y="15.6" class="st5" width="9" height="7.7"/>
	</g>
	<path class="st6" d="M15.6,16.3c-0.9,0-1.7-0.3-2.3-0.7c-1.3,0.6-2.2,1.7-2.2,2.9v4.8h9v-4.8c0-1.2-0.9-2.3-2.2-2.9
		C17.3,16,16.5,16.3,15.6,16.3"/>
	<g>
		<path class="st6" d="M31.4,7c0,3.2-2.6,5.8-5.8,5.8c-3.2,0-5.8-2.6-5.8-5.8c0-1.1,0.3-2.1,0.8-3c1-1.7,2.9-2.8,5-2.8
			c2.1,0,3.9,1.1,5,2.8C31.1,4.8,31.4,5.9,31.4,7z"/>
		<g>
			<line class="st7" x1="25.6" y1="1.2" x2="25.6" y2="12.8"/>
			<path class="st7" d="M22.9,2c-0.5,1.5-0.7,3.2-0.7,5c0,1.8,0.3,3.5,0.7,5"/>
			<path class="st7" d="M28.2,11.9c0.5-1.5,0.7-3.2,0.7-5c0-1.8-0.3-3.5-0.7-5"/>
		</g>
		<g>
			<line class="st7" x1="20.5" y1="7" x2="30.7" y2="7"/>
			<path class="st7" d="M21.2,3.8c1.1,0.6,2.7,1,4.4,1c1.7,0,3.2-0.4,4.4-1"/>
			<path class="st7" d="M29.9,10.1c-1.1-0.6-2.7-1-4.4-1c-1.7,0-3.2,0.4-4.4,1"/>
		</g>
	</g>
</g>
</svg>
