<?xml version="1.0" encoding="utf-8"?>
<!-- Generator: Adobe Illustrator 22.0.1, SVG Export Plug-In . SVG Version: 6.00 Build 0)  -->
<svg version="1.1" id="Layer_1" xmlns="http://www.w3.org/2000/svg" xmlns:xlink="http://www.w3.org/1999/xlink" x="0px" y="0px"
	 width="32px" height="32px" viewBox="0 0 32 32" style="enable-background:new 0 0 32 32;" xml:space="preserve">
<style type="text/css">
	.st0{fill:#F2F2F2;stroke:#161616;stroke-width:0.75;stroke-linecap:round;stroke-linejoin:round;stroke-miterlimit:10;}
	.st1{fill:#BAE1FF;stroke:#161616;stroke-width:0.75;stroke-linecap:round;stroke-linejoin:round;stroke-miterlimit:10;}
	.st2{fill:none;stroke:#161616;stroke-width:0.75;stroke-linecap:round;stroke-linejoin:round;stroke-miterlimit:10;}
</style>
<g>
	<polygon class="st0" points="31,1 1,1 1,31 28.5,31 31,28.5 	"/>
	<g>
		<g>
			<g>
				<g>
					<path id="SVGID_805_" class="st1" d="M7.3,13c0,0-0.7,0-0.7,0.5v5c0,0,0,0.5,0.7,0.5h3.5c0,0,0.7,0,0.7-0.5v-5
						c0,0,0-0.5-0.7-0.5L7.3,13z"/>
				</g>
			</g>
		</g>
		<path class="st2" d="M20.5,10.1c0.1,0.1,1.9,2,1.9,5.9s-1.9,5.8-1.9,5.9"/>
		<path class="st2" d="M22.6,8.4c0.1,0.1,2.5,2.6,2.5,7.6s-2.4,7.5-2.5,7.6"/>
		<path class="st1" d="M11.5,13.2c0,0,0-0.3,0.3-0.5L17,9.2c0,0,0.3-0.2,0.3,0.1v13.2c0,0,0,0.3-0.3,0.1l-5.3-3.4
			c0,0-0.3-0.2-0.3-0.5L11.5,13.2z"/>
	</g>
	<polygon class="st0" points="1,8.4 8.4,1 1,1 	"/>
	<polygon class="st0" points="31,23.6 23.6,31 31,31 	"/>
</g>
</svg>
