<?xml version="1.0" encoding="utf-8"?>
<!-- Generator: Adobe Illustrator 22.0.1, SVG Export Plug-In . SVG Version: 6.00 Build 0)  -->
<svg version="1.1" id="Layer_1" xmlns="http://www.w3.org/2000/svg" xmlns:xlink="http://www.w3.org/1999/xlink" x="0px" y="0px"
	 width="32px" height="32px" viewBox="0 0 32 32" style="enable-background:new 0 0 32 32;" xml:space="preserve">
<style type="text/css">
	.st0{fill:#BAE1FF;stroke:#161616;stroke-width:2;stroke-miterlimit:10;}
	.st1{clip-path:url(#SVGID_1_);fill:#F2F2F2;}
	.st2{fill:none;stroke:#161616;stroke-width:3;stroke-linecap:round;stroke-miterlimit:10;}
	.st3{fill:none;stroke:#161616;stroke-width:2;stroke-linecap:round;stroke-miterlimit:10;}
</style>
<g>
	<circle class="st0" cx="13.5" cy="13.2" r="11.6"/>
	<g>
		<g>
			<defs>
				<path id="SVGID_758_" d="M8.1,6.7c-1.2,1.2-1.9,2.8-2.1,4.4c0.2-0.2,0.3-0.3,0.3-0.4c3.8-3.8,9.9-3.8,13.7,0
					c0.2,0.2,0.3,0.3,0.3,0.4c-0.2-1.6-0.8-3.2-2.1-4.4c-1.4-1.4-3.3-2.1-5.1-2.1C11.4,4.5,9.5,5.3,8.1,6.7"/>
			</defs>
			<use xlink:href="#SVGID_758_"  style="overflow:visible;fill:#F2F2F2;"/>
			<clipPath id="SVGID_1_">
				<use xlink:href="#SVGID_758_"  style="overflow:visible;"/>
			</clipPath>
			<polygon class="st1" points="2.8,7.8 13.3,-2.6 23.7,7.8 13.3,18.3 			"/>
		</g>
	</g>
	<line class="st2" x1="22.5" y1="22.8" x2="30.1" y2="30.4"/>
	<line class="st3" x1="20.6" y1="24.6" x2="24.3" y2="20.9"/>
</g>
</svg>
