<?xml version="1.0" encoding="utf-8"?>
<!-- Generator: Adobe Illustrator 22.0.1, SVG Export Plug-In . SVG Version: 6.00 Build 0)  -->
<svg version="1.1" id="Layer_1" xmlns="http://www.w3.org/2000/svg" xmlns:xlink="http://www.w3.org/1999/xlink" x="0px" y="0px"
	 width="32px" height="32px" viewBox="0 0 32 32" style="enable-background:new 0 0 32 32;" xml:space="preserve">
<style type="text/css">
	.st0{fill:#161616;stroke:#161616;stroke-linecap:round;stroke-linejoin:round;stroke-miterlimit:10;}
	.st1{fill:#FFFFFF;stroke:#FFFFFF;stroke-width:0.5;stroke-linecap:round;stroke-linejoin:round;stroke-miterlimit:10;}
</style>
<g>
	<rect x="5.3" y="5.3" class="st0" width="21.4" height="21.4"/>
	<path class="st1" d="M24.7,22.6v-1l-5.1-2v1l3.9,1.5l-3.9,1.5v1L24.7,22.6z M16.2,26v-1c0.3,0,0.5-0.1,0.7-0.2
		c0.2-0.1,0.4-0.2,0.6-0.4c0.2-0.2,0.3-0.3,0.4-0.6C18,23.6,18,23.3,18,23s0-0.5-0.1-0.7s-0.2-0.3-0.3-0.5c-0.1-0.1-0.3-0.3-0.5-0.3
		c-0.2-0.1-0.3-0.2-0.5-0.3L16,21c-0.1,0-0.2-0.1-0.3-0.2s-0.2-0.1-0.3-0.2s-0.2-0.2-0.2-0.2c-0.1-0.1-0.1-0.2-0.1-0.3
		c0-0.2,0-0.3,0.1-0.4s0.2-0.2,0.3-0.2c0.1-0.1,0.3-0.1,0.4-0.1s0.3,0,0.4,0c0.3,0,0.5,0,0.8,0.1c0.2,0,0.5,0.1,0.6,0.2l0.1-1.1
		c-0.4-0.1-0.9-0.2-1.4-0.2v-0.9h-0.9v1c-0.2,0-0.5,0.1-0.7,0.2s-0.4,0.2-0.6,0.3c-0.2,0.1-0.3,0.3-0.4,0.5c0,0.2-0.1,0.5-0.1,0.7
		s0,0.4,0.1,0.6s0.2,0.3,0.3,0.4s0.3,0.2,0.4,0.3c0.2,0.1,0.3,0.2,0.5,0.3l0.7,0.3c0.2,0.1,0.3,0.1,0.4,0.2s0.3,0.1,0.4,0.2
		s0.2,0.2,0.3,0.3c0.1,0.1,0.1,0.2,0.1,0.3c0,0.2,0,0.3-0.1,0.4s-0.2,0.2-0.3,0.3c-0.1,0.1-0.2,0.1-0.4,0.1c-0.1,0-0.3,0-0.4,0
		c-0.3,0-0.6,0-0.9-0.1c-0.3-0.1-0.6-0.2-0.8-0.3l-0.3,1.3c0.5,0.2,1.1,0.3,1.7,0.3V26H16.2z"/>
</g>
</svg>
