<?xml version="1.0" encoding="utf-8"?>
<!-- Generator: Adobe Illustrator 22.0.1, SVG Export Plug-In . SVG Version: 6.00 Build 0)  -->
<svg version="1.1" id="Layer_1" xmlns="http://www.w3.org/2000/svg" xmlns:xlink="http://www.w3.org/1999/xlink" x="0px" y="0px"
	 width="32px" height="32px" viewBox="0 0 32 32" style="enable-background:new 0 0 32 32;" xml:space="preserve">
<style type="text/css">
	
		.st0{clip-path:url(#SVGID_1_);fill:none;stroke:#0E2F6E;stroke-width:0.75;stroke-linecap:round;stroke-linejoin:round;stroke-miterlimit:10;}
	.st1{fill:#161616;stroke:#161616;stroke-width:0.75;stroke-linecap:round;stroke-linejoin:round;stroke-miterlimit:10;}
	.st2{clip-path:url(#SVGID_2_);fill:#161616;}
	.st3{clip-path:url(#SVGID_3_);fill:#161616;}
</style>
<g>
	<g>
		<g>
			<defs>
				<rect id="SVGID_762_" width="32" height="32"/>
			</defs>
			<clipPath id="SVGID_1_">
				<use xlink:href="#SVGID_762_"  style="overflow:visible;"/>
			</clipPath>
			<rect class="st0" width="32" height="32"/>
			
				<use xlink:href="#SVGID_762_"  style="overflow:visible;fill:none;stroke:#0E2F6E;stroke-width:0.75;stroke-linecap:round;stroke-linejoin:round;stroke-miterlimit:10;"/>
		</g>
	</g>
	<polygon class="st1" points="26,24.8 26,24.8 26,26.4 6,26.4 6,24.8 	"/>
	<g>
		<g>
			<defs>
				<rect id="SVGID_761_" width="32" height="32"/>
			</defs>
			<clipPath id="SVGID_2_">
				<use xlink:href="#SVGID_761_"  style="overflow:visible;"/>
			</clipPath>
			<path class="st2" d="M24.8,23.1v-0.8c0-0.4-0.4-0.4-0.4-0.4h-1.3c0,0,0,0,0-0.1V14c0,0,0-0.4-0.4-0.4h-2.5c0,0-0.4,0-0.4,0.4v7.8
				c0,0,0,0,0,0.1h-2.1c0,0,0,0,0-0.1V14c0,0,0-0.4-0.4-0.4h-2.5c0,0-0.4,0-0.4,0.4v7.8c0,0,0,0,0,0.1h-2.1c0,0,0,0,0-0.1V14
				c0,0,0-0.4-0.4-0.4H9.3c0,0-0.4,0-0.4,0.4v7.8c0,0,0,0,0,0.1H7.7c-0.4,0-0.4,0.4-0.4,0.4v0.8c0,0.4,0.4,0.4,0.4,0.4h16.7
				C24.8,23.5,24.8,23.1,24.8,23.1"/>
		</g>
		<g>
			<defs>
				<rect id="SVGID_760_" width="32" height="32"/>
			</defs>
			<clipPath id="SVGID_3_">
				<use xlink:href="#SVGID_760_"  style="overflow:visible;"/>
			</clipPath>
			<path class="st3" d="M6.9,12.7c0,0-1,0-0.2-0.6l8.4-5.6c0,0,0.8-0.6,1.7,0l8.4,5.6c0,0,0.8,0.6-0.2,0.6H6.9z"/>
			<use xlink:href="#SVGID_760_"  style="overflow:visible;fill:none;stroke:#161616;stroke-width:0.75;stroke-miterlimit:10;"/>
		</g>
	</g>
</g>
</svg>
