<?xml version="1.0" encoding="utf-8"?>
<!-- Generator: Adobe Illustrator 22.0.1, SVG Export Plug-In . SVG Version: 6.00 Build 0)  -->
<svg version="1.1" id="Ebene_1" xmlns="http://www.w3.org/2000/svg" xmlns:xlink="http://www.w3.org/1999/xlink" x="0px" y="0px"
	 width="32px" height="32px" viewBox="0 0 32 32" style="enable-background:new 0 0 32 32;" xml:space="preserve">
<style type="text/css">
	.st0{fill:#F2F2F2;stroke:#161616;stroke-width:0.75;stroke-linecap:round;stroke-linejoin:round;stroke-miterlimit:10;}
	.st1{fill:#161616;stroke:#161616;stroke-width:0.75;stroke-linecap:round;stroke-linejoin:round;stroke-miterlimit:10;}
	
		.st2{clip-path:url(#SVGID_1_);fill:#BAE1FF;stroke:#161616;stroke-width:0.75;stroke-linecap:round;stroke-linejoin:round;stroke-miterlimit:10;}
	
		.st3{clip-path:url(#SVGID_2_);fill:#DDDDDD;stroke:#161616;stroke-width:0.75;stroke-linecap:round;stroke-linejoin:round;stroke-miterlimit:10;}
</style>
<g id="Ebene_2_1_">
</g>
<g>
	<polygon class="st0" points="4.9,17.7 1.1,17.7 1.1,5.5 4.5,2.1 13.2,2.1 13.2,17.7 9.5,17.7 	"/>
	<polygon class="st1" points="1.1,5.5 4.5,5.6 4.5,2.1 	"/>
	<g>
		<g>
			<defs>
				<path id="SVGID_699_" d="M8.1,10.8c0,0-0.9,0-0.9,0.9v14c0,0,0,0.9,0.9,0.9H30c0,0,0.9,0,0.9-0.9v-14c0,0,0-0.9-0.9-0.9H8.1z"/>
			</defs>
			<use xlink:href="#SVGID_699_"  style="overflow:visible;fill:#FFFFFF;"/>
			<clipPath id="SVGID_1_">
				<use xlink:href="#SVGID_699_"  style="overflow:visible;"/>
			</clipPath>
			<rect x="7.4" y="10.8" class="st2" width="23.7" height="15.8"/>
			
				<use xlink:href="#SVGID_699_"  style="overflow:visible;fill:none;stroke:#161616;stroke-width:0.75;stroke-linecap:round;stroke-linejoin:round;stroke-miterlimit:10;"/>
		</g>
	</g>
	<g>
		<g>
			<defs>
				<polygon id="SVGID_698_" points="17.8,26.6 15,29.9 23.3,29.9 20.4,26.6 				"/>
			</defs>
			<use xlink:href="#SVGID_698_"  style="overflow:visible;fill:#DDDDDD;"/>
			<clipPath id="SVGID_2_">
				<use xlink:href="#SVGID_698_"  style="overflow:visible;"/>
			</clipPath>
			<rect x="6" y="26.6" class="st3" width="26.3" height="5.3"/>
			
				<use xlink:href="#SVGID_698_"  style="overflow:visible;fill:none;stroke:#161616;stroke-width:0.75;stroke-linecap:round;stroke-linejoin:round;stroke-miterlimit:10;"/>
		</g>
	</g>
</g>
</svg>
