<?xml version="1.0" encoding="utf-8"?>
<!-- Generator: Adobe Illustrator 22.0.1, SVG Export Plug-In . SVG Version: 6.00 Build 0)  -->
<svg version="1.1" id="Layer_1" xmlns="http://www.w3.org/2000/svg" xmlns:xlink="http://www.w3.org/1999/xlink" x="0px" y="0px"
	 width="32px" height="32px" viewBox="0 0 32 32" style="enable-background:new 0 0 32 32;" xml:space="preserve">
<style type="text/css">
	.st0{fill:#DFDCF2;stroke:#161616;stroke-width:0.75;stroke-linecap:round;stroke-linejoin:round;stroke-miterlimit:10;}
</style>
<path class="st0" d="M22.8,7.5c0.3-0.6,0.5-1.2,0.5-1.9c0-2.6-2.4-4.7-5.4-4.7c-1.6,0-3,0.6-4,1.6C13,2.2,12.1,2,11.1,2
	C7.3,2,4.3,4.7,4.3,7.9c0,1.1,0.3,2.1,0.9,3c-0.6,0.9-0.9,1.9-0.9,2.9c0,3.3,3,5.9,6.8,5.9c1.1,0,2.1-0.2,3-0.6v10.1l-1,1.8h5.8
	l-1-1.8V18.4c0.9,0.4,1.9,0.6,3,0.6c3.8,0,6.8-2.6,6.8-5.9C27.7,10.4,25.6,8.2,22.8,7.5z"/>
</svg>
