<?xml version="1.0" encoding="utf-8"?>
<!-- Generator: Adobe Illustrator 22.0.1, SVG Export Plug-In . SVG Version: 6.00 Build 0)  -->
<svg version="1.1" id="Layer_1" xmlns="http://www.w3.org/2000/svg" xmlns:xlink="http://www.w3.org/1999/xlink" x="0px" y="0px"
	 width="32px" height="32px" viewBox="0 0 32 32" style="enable-background:new 0 0 32 32;" xml:space="preserve">
<style type="text/css">
	.st0{fill:#FFDFBA;stroke:#161616;stroke-width:0.75;stroke-linecap:round;stroke-linejoin:round;stroke-miterlimit:10;}
	
		.st1{clip-path:url(#SVGID_1_);fill:none;stroke:#161616;stroke-width:0.75;stroke-linecap:round;stroke-linejoin:round;stroke-miterlimit:10;}
	.st2{fill:#BAFFC9;stroke:#161616;stroke-width:0.75;stroke-linecap:round;stroke-linejoin:round;stroke-miterlimit:10;}
	
		.st3{clip-path:url(#SVGID_2_);fill:#D8BDF2;stroke:#161616;stroke-width:0.75;stroke-linecap:round;stroke-linejoin:round;stroke-miterlimit:10;}
	.st4{fill:#D8BDF2;stroke:#161616;stroke-width:0.75;stroke-linecap:round;stroke-linejoin:round;stroke-miterlimit:10;}
	
		.st5{clip-path:url(#SVGID_3_);fill:none;stroke:#161616;stroke-width:0.75;stroke-linecap:round;stroke-linejoin:round;stroke-miterlimit:10;}
	.st6{fill:#BAE1FF;stroke:#161616;stroke-width:0.75;stroke-linecap:round;stroke-linejoin:round;stroke-miterlimit:10;}
	.st7{fill:#FFB3BA;stroke:#161616;stroke-width:0.75;stroke-linecap:round;stroke-linejoin:round;stroke-miterlimit:10;}
</style>
<g>
	<path class="st0" d="M5.5,14.4c1.7,0,3.1-1.5,3.1-3.4c0-1.9-1.4-3.4-3.1-3.4c-1.7,0-3.1,1.5-3.1,3.4C2.4,12.9,3.8,14.4,5.5,14.4"/>
	<g>
		<defs>
			<path id="SVGID_706_" d="M5.5,17c-0.9,0-1.7-0.3-2.3-0.7C1.9,16.9,1,18,1,19.2V24h9v-4.8c0-1.2-0.9-2.3-2.2-2.9
				C7.2,16.7,6.4,17,5.5,17"/>
		</defs>
		<clipPath id="SVGID_1_">
			<use xlink:href="#SVGID_706_"  style="overflow:visible;"/>
		</clipPath>
		<rect x="1" y="16.3" class="st1" width="9" height="7.7"/>
		<use xlink:href="#SVGID_706_"  style="overflow:visible;fill:none;stroke:#161616;stroke-width:0.75;stroke-miterlimit:10;"/>
	</g>
	<path class="st2" d="M5.5,17c-0.9,0-1.7-0.3-2.3-0.7C1.9,16.9,1,18,1,19.2V24h9v-4.8c0-1.2-0.9-2.3-2.2-2.9C7.2,16.7,6.4,17,5.5,17
		"/>
	<path class="st0" d="M26.5,14.4c1.7,0,3.1-1.5,3.1-3.4c0-1.9-1.4-3.4-3.1-3.4c-1.7,0-3.1,1.5-3.1,3.4
		C23.4,12.9,24.8,14.4,26.5,14.4"/>
	<g>
		<defs>
			<path id="SVGID_705_" d="M26.5,17c-0.9,0-1.7-0.3-2.3-0.7C22.9,16.9,22,18,22,19.2V24h9v-4.8c0-1.2-0.9-2.3-2.2-2.9
				C28.2,16.7,27.4,17,26.5,17"/>
		</defs>
		<use xlink:href="#SVGID_705_"  style="overflow:visible;fill:#D8BDF2;"/>
		<clipPath id="SVGID_2_">
			<use xlink:href="#SVGID_705_"  style="overflow:visible;"/>
		</clipPath>
		<rect x="22" y="16.3" class="st3" width="9" height="7.7"/>
		<use xlink:href="#SVGID_705_"  style="overflow:visible;fill:none;stroke:#161616;stroke-width:0.75;stroke-miterlimit:10;"/>
	</g>
	<path class="st4" d="M26.5,17c-0.9,0-1.7-0.3-2.3-0.7C22.9,16.9,22,18,22,19.2V24h9v-4.8c0-1.2-0.9-2.3-2.2-2.9
		C28.2,16.7,27.4,17,26.5,17"/>
	<path class="st0" d="M16,9.9c1.7,0,3.1-1.5,3.1-3.4c0-1.9-1.4-3.4-3.1-3.4c-1.7,0-3.1,1.5-3.1,3.4C12.9,8.4,14.3,9.9,16,9.9"/>
	<g>
		<defs>
			<path id="SVGID_704_" d="M16,12.5c-0.9,0-1.7-0.3-2.3-0.7c-1.3,0.6-2.2,1.7-2.2,2.9v4.8h9v-4.8c0-1.2-0.9-2.3-2.2-2.9
				C17.7,12.2,16.9,12.5,16,12.5"/>
		</defs>
		<clipPath id="SVGID_3_">
			<use xlink:href="#SVGID_704_"  style="overflow:visible;"/>
		</clipPath>
		<rect x="11.5" y="11.8" class="st5" width="9" height="7.7"/>
		<use xlink:href="#SVGID_704_"  style="overflow:visible;fill:none;stroke:#161616;stroke-width:0.75;stroke-miterlimit:10;"/>
	</g>
	<path class="st6" d="M16,12.5c-0.9,0-1.7-0.3-2.3-0.7c-1.3,0.6-2.2,1.7-2.2,2.9v4.8h9v-4.8c0-1.2-0.9-2.3-2.2-2.9
		C17.7,12.2,16.9,12.5,16,12.5"/>
	<path class="st7" d="M7.7,20.4l0,2.4H2.6c-0.2,0-0.3,0.1-0.3,0.3v2.7c0,0.2,0.1,0.3,0.3,0.3h5.1l0,2.4c0,0.3,0.4,0.4,0.6,0.2
		l3.5-4.1c0.1-0.1,0.1-0.3,0-0.4l-3.5-4.1C8.1,19.9,7.7,20.1,7.7,20.4z"/>
</g>
</svg>
