<?xml version="1.0" encoding="utf-8"?>
<!-- Generator: Adobe Illustrator 22.0.1, SVG Export Plug-In . SVG Version: 6.00 Build 0)  -->
<svg version="1.1" id="Layer_1" xmlns="http://www.w3.org/2000/svg" xmlns:xlink="http://www.w3.org/1999/xlink" x="0px" y="0px"
	 width="32px" height="32px" viewBox="0 0 32 32" style="enable-background:new 0 0 32 32;" xml:space="preserve">
<style type="text/css">
	.st0{fill:#F2F2F2;stroke:#161616;stroke-width:0.75;stroke-linecap:round;stroke-linejoin:round;stroke-miterlimit:10;}
	.st1{fill:#161616;stroke:#161616;stroke-width:0.75;stroke-linecap:round;stroke-linejoin:round;stroke-miterlimit:10;}
	.st2{fill:#BAE1FF;stroke:#161616;stroke-width:0.75;stroke-linecap:round;stroke-linejoin:round;stroke-miterlimit:10;}
	.st3{fill:none;stroke:#161616;stroke-width:0.75;stroke-linecap:round;stroke-linejoin:round;stroke-miterlimit:10;}
	.st4{fill:#BAE1FF;}
</style>
<g>
	<g>
		<polygon class="st0" points="11.7,27.6 7.6,27.6 7.6,11 12.2,6.3 24.1,6.3 24.1,27.6 20,27.6 		"/>
		<polygon class="st1" points="7.6,11 12.2,11 12.2,6.3 		"/>
	</g>
	<g>
		<path class="st2" d="M31.1,10.1c0,3.2-2.6,5.8-5.8,5.8c-3.2,0-5.8-2.6-5.8-5.8c0-1.1,0.3-2.1,0.8-3c1-1.7,2.9-2.8,5-2.8
			c2.1,0,3.9,1.1,5,2.8C30.8,8,31.1,9,31.1,10.1z"/>
		<g>
			<line class="st3" x1="25.3" y1="4.3" x2="25.3" y2="15.9"/>
			<path class="st3" d="M22.7,5.1c-0.5,1.5-0.7,3.2-0.7,5c0,1.8,0.3,3.5,0.7,5"/>
			<path class="st3" d="M27.9,15.1c0.5-1.5,0.7-3.2,0.7-5c0-1.8-0.3-3.5-0.7-5"/>
		</g>
		<g>
			<line class="st3" x1="20.2" y1="10.1" x2="30.4" y2="10.1"/>
			<path class="st3" d="M21,7c1.1,0.6,2.7,1,4.4,1s3.2-0.4,4.4-1"/>
			<path class="st3" d="M29.7,13.2c-1.1-0.6-2.7-1-4.4-1c-1.7,0-3.2,0.4-4.4,1"/>
		</g>
	</g>
	<g>
		<polygon class="st4" points="3.3,27.7 2.2,25.1 4.4,25.1 		"/>
		<rect x="0.9" y="6.3" class="st2" width="4.8" height="15.6"/>
		<polygon class="st3" points="3.3,27.6 0.9,22 5.7,22 		"/>
		<line class="st3" x1="3.3" y1="6.3" x2="3.3" y2="22"/>
	</g>
</g>
</svg>
