<?xml version="1.0" encoding="utf-8"?>
<!-- Generator: Adobe Illustrator 22.0.1, SVG Export Plug-In . SVG Version: 6.00 Build 0)  -->
<svg version="1.1" id="Layer_1" xmlns="http://www.w3.org/2000/svg" xmlns:xlink="http://www.w3.org/1999/xlink" x="0px" y="0px"
	 width="32px" height="32px" viewBox="0 0 32 32" style="enable-background:new 0 0 32 32;" xml:space="preserve">
<style type="text/css">
	
		.st0{clip-path:url(#SVGID_1_);fill:#DFDCF2;stroke:#161616;stroke-width:0.75;stroke-linecap:round;stroke-linejoin:round;stroke-miterlimit:10;}
</style>
<g>
	<g>
		<defs>
			<path id="SVGID_725_" d="M15.1,19.8c-0.4-0.3-0.7-0.8-0.7-1.3c0-0.9,0.7-1.6,1.6-1.6c0.9,0,1.6,0.7,1.6,1.6c0,0.6-0.3,1-0.7,1.3
				l0.5,3.2h-2.8L15.1,19.8z M16,7.6c3.1,0,5.7,2.1,6.5,4.9H9.5C10.3,9.7,12.9,7.6,16,7.6 M16,4C10.4,4,5.8,8.5,5.7,14.1
				c0,0,0,0,0,0v12.4c0,0,0,1.5,1.5,1.5h17.5c0,0,1.5,0,1.5-1.5V14.1c0,0,0-0.1,0-0.1C26.2,8.5,21.6,4,16,4z"/>
		</defs>
		<use xlink:href="#SVGID_725_"  style="overflow:visible;fill:#DFDCF2;"/>
		<clipPath id="SVGID_1_">
			<use xlink:href="#SVGID_725_"  style="overflow:visible;"/>
		</clipPath>
		<rect x="5.7" y="4" class="st0" width="20.6" height="24"/>
		
			<use xlink:href="#SVGID_725_"  style="overflow:visible;fill:none;stroke:#161616;stroke-width:0.75;stroke-linecap:round;stroke-linejoin:round;stroke-miterlimit:10;"/>
	</g>
</g>
</svg>
