<?xml version="1.0" encoding="utf-8"?>
<!-- Generator: Adobe Illustrator 22.0.1, SVG Export Plug-In . SVG Version: 6.00 Build 0)  -->
<svg version="1.1" id="Layer_1" xmlns="http://www.w3.org/2000/svg" xmlns:xlink="http://www.w3.org/1999/xlink" x="0px" y="0px"
	 width="32px" height="32px" viewBox="0 0 32 32" style="enable-background:new 0 0 32 32;" xml:space="preserve">
<style type="text/css">
	.st0{fill:#BAFFC9;stroke:#161616;stroke-width:0.75;stroke-linecap:round;stroke-linejoin:round;stroke-miterlimit:10;}
	.st1{fill:#DFDCF2;stroke:#161616;stroke-width:0.75;stroke-linecap:round;stroke-linejoin:round;stroke-miterlimit:10;}
	.st2{fill:none;stroke:#161616;stroke-width:0.75;stroke-linecap:round;stroke-linejoin:round;stroke-miterlimit:10;}
</style>
<g>
	<path class="st0" d="M13.5,15C6,14.6,6.7,7.6,6.7,7.6C15.6,7.8,14.1,13.4,13.5,15L13.5,15z"/>
	<path class="st1" d="M28.2,11.7c-2.1,1.9-2.9,2.3-6.8,3.4c-7,2.2-13.3,0.5-13.3,0.5c-0.5,0.7,0.1,1.5,0.1,1.5
		c2.3,0.4,5.2,1.2,7.5,1.1c-7.3,4.3-13.8,4.6-13.8,4.6c-0.1,0.9,0.4,1.6,0.4,1.6C20.4,20.9,30.1,14,30.1,14
		C29.8,12.5,28.2,11.7,28.2,11.7z"/>
	<path class="st2" d="M8.8,9.5c0,0,4.1,3.9,5.3,6.7"/>
</g>
</svg>
