<?xml version="1.0" encoding="utf-8"?>
<!-- Generator: Adobe Illustrator 22.0.1, SVG Export Plug-In . SVG Version: 6.00 Build 0)  -->
<svg version="1.1" xmlns="http://www.w3.org/2000/svg" xmlns:xlink="http://www.w3.org/1999/xlink" x="0px" y="0px" width="32px"
	 height="32px" viewBox="0 0 32 32" style="enable-background:new 0 0 32 32;" xml:space="preserve">
<style type="text/css">
	.st0{clip-path:url(#SVGID_1_);fill:#161616;}
	.st1{fill:#0E2F6E;}
	.st2{fill:none;stroke:#FFFFFF;stroke-linecap:round;stroke-linejoin:round;stroke-miterlimit:10;}
	.st3{fill:#FFFFFF;}
</style>
<g id="Ebene_2">
</g>
<g id="Layer_1">
	<g>
		<g>
			<g>
				<g>
					<defs>
						<path id="SVGID_715_" d="M1,0h30c0.6,0,1,0.5,1,1v30c0,0.6-0.5,1-1,1H1c-0.6,0-1-0.5-1-1V1C0,0.5,0.5,0,1,0z"/>
					</defs>
					<use xlink:href="#SVGID_715_"  style="overflow:visible;fill:#161616;"/>
					<clipPath id="SVGID_1_">
						<use xlink:href="#SVGID_715_"  style="overflow:visible;"/>
					</clipPath>
					<rect x="0" y="0" class="st0" width="32" height="32"/>
				</g>
			</g>
		</g>
		<g>
			<line class="st1" x1="13.4" y1="17.6" x2="8.3" y2="28.3"/>
			<line class="st2" x1="13.4" y1="17.6" x2="8.3" y2="28.3"/>
			<line class="st1" x1="18.6" y1="17.6" x2="23.7" y2="28.3"/>
			<line class="st2" x1="18.6" y1="17.6" x2="23.7" y2="28.3"/>
			<line class="st1" x1="10.5" y1="24.3" x2="21.4" y2="24.3"/>
			<line class="st2" x1="10.5" y1="24.3" x2="21.4" y2="24.3"/>
			<rect x="6.7" y="16.5" class="st3" width="18.7" height="1.9"/>
			<rect x="6.7" y="5.9" class="st2" width="18.7" height="12.5"/>
		</g>
	</g>
</g>
</svg>
