<?xml version="1.0" encoding="utf-8"?>
<!-- Generator: Adobe Illustrator 22.0.1, SVG Export Plug-In . SVG Version: 6.00 Build 0)  -->
<svg version="1.1" xmlns="http://www.w3.org/2000/svg" xmlns:xlink="http://www.w3.org/1999/xlink" x="0px" y="0px" width="32px"
	 height="32px" viewBox="0 0 32 32" style="enable-background:new 0 0 32 32;" xml:space="preserve">
<style type="text/css">
	.st0{fill:none;}
	
		.st1{clip-path:url(#SVGID_1_);fill:none;stroke:#161616;stroke-width:0.75;stroke-linecap:round;stroke-linejoin:round;stroke-miterlimit:10;}
	
		.st2{clip-path:url(#SVGID_2_);fill:none;stroke:#161616;stroke-width:0.75;stroke-linecap:round;stroke-linejoin:round;stroke-miterlimit:10;}
	
		.st3{clip-path:url(#SVGID_3_);fill:none;stroke:#161616;stroke-width:0.75;stroke-linecap:round;stroke-linejoin:round;stroke-miterlimit:10;}
	
		.st4{clip-path:url(#SVGID_4_);fill:none;stroke:#161616;stroke-width:0.75;stroke-linecap:round;stroke-linejoin:round;stroke-miterlimit:10;}
	.st5{fill:none;stroke:#161616;stroke-width:0.75;stroke-linecap:round;stroke-linejoin:round;stroke-miterlimit:10;}
</style>
<g id="Ebene_2">
</g>
<g id="Layer_1">
	<g>
		<rect y="0" class="st0" width="32" height="32"/>
		<g>
			<g>
				<g>
					<defs>
						<path id="SVGID_766_" d="M12,6c0,0-0.5,0-0.5,0.5v5c0,0,0,0.5,0.5,0.5h8c0,0,0.5,0,0.5-0.5v-5c0,0,0-0.5-0.5-0.5L12,6z"/>
					</defs>
					<use xlink:href="#SVGID_766_"  style="overflow:visible;fill:#BAE1FF;"/>
					<clipPath id="SVGID_1_">
						<use xlink:href="#SVGID_766_"  style="overflow:visible;"/>
					</clipPath>
					<rect x="11.5" y="6" class="st1" width="9" height="6"/>
					
						<use xlink:href="#SVGID_766_"  style="overflow:visible;fill:none;stroke:#161616;stroke-width:0.75;stroke-linecap:round;stroke-linejoin:round;stroke-miterlimit:10;"/>
				</g>
			</g>
		</g>
		<g>
			<g>
				<g>
					<defs>
						<path id="SVGID_765_" d="M4.5,20c0,0-0.5,0-0.5,0.5v3c0,0,0,0.5,0.5,0.5h5c0,0,0.5,0,0.5-0.5v-3c0,0,0-0.5-0.5-0.5H4.5z"/>
					</defs>
					<use xlink:href="#SVGID_765_"  style="overflow:visible;fill:#BAE1FF;"/>
					<clipPath id="SVGID_2_">
						<use xlink:href="#SVGID_765_"  style="overflow:visible;"/>
					</clipPath>
					<rect x="4" y="20" class="st2" width="6" height="4"/>
					
						<use xlink:href="#SVGID_765_"  style="overflow:visible;fill:none;stroke:#161616;stroke-width:0.75;stroke-linecap:round;stroke-linejoin:round;stroke-miterlimit:10;"/>
				</g>
			</g>
		</g>
		<g>
			<g>
				<g>
					<defs>
						<path id="SVGID_764_" d="M22.5,20c0,0-0.5,0-0.5,0.5v3c0,0,0,0.5,0.5,0.5h5c0,0,0.5,0,0.5-0.5v-3c0,0,0-0.5-0.5-0.5H22.5z"/>
					</defs>
					<use xlink:href="#SVGID_764_"  style="overflow:visible;fill:#BAE1FF;"/>
					<clipPath id="SVGID_3_">
						<use xlink:href="#SVGID_764_"  style="overflow:visible;"/>
					</clipPath>
					<rect x="22" y="20" class="st3" width="6" height="4"/>
					
						<use xlink:href="#SVGID_764_"  style="overflow:visible;fill:none;stroke:#161616;stroke-width:0.75;stroke-linecap:round;stroke-linejoin:round;stroke-miterlimit:10;"/>
				</g>
			</g>
		</g>
		<g>
			<g>
				<g>
					<defs>
						<path id="SVGID_763_" d="M13.5,20c0,0-0.5,0-0.5,0.5v3c0,0,0,0.5,0.5,0.5h5c0,0,0.5,0,0.5-0.5v-3c0,0,0-0.5-0.5-0.5H13.5z"/>
					</defs>
					<use xlink:href="#SVGID_763_"  style="overflow:visible;fill:#BAE1FF;"/>
					<clipPath id="SVGID_4_">
						<use xlink:href="#SVGID_763_"  style="overflow:visible;"/>
					</clipPath>
					<rect x="13" y="20" class="st4" width="6" height="4"/>
					
						<use xlink:href="#SVGID_763_"  style="overflow:visible;fill:none;stroke:#161616;stroke-width:0.75;stroke-linecap:round;stroke-linejoin:round;stroke-miterlimit:10;"/>
				</g>
			</g>
		</g>
		<line class="st5" x1="16" y1="13.3" x2="16" y2="18.3"/>
		<line class="st5" x1="7" y1="16" x2="7" y2="18.3"/>
		<line class="st5" x1="25" y1="16" x2="25" y2="18.3"/>
		<line class="st5" x1="7" y1="15.6" x2="25" y2="15.6"/>
	</g>
</g>
</svg>
