<?xml version="1.0" encoding="utf-8"?>
<!-- Generator: Adobe Illustrator 22.0.1, SVG Export Plug-In . SVG Version: 6.00 Build 0)  -->
<svg version="1.1" id="Layer_1" xmlns="http://www.w3.org/2000/svg" xmlns:xlink="http://www.w3.org/1999/xlink" x="0px" y="0px"
	 width="32px" height="32px" viewBox="0 0 32 32" style="enable-background:new 0 0 32 32;" xml:space="preserve">
<style type="text/css">
	.st0{fill:#F2F2F2;stroke:#161616;stroke-width:0.75;stroke-linecap:round;stroke-linejoin:round;stroke-miterlimit:10;}
	.st1{fill:none;stroke:#161616;stroke-width:0.75;stroke-linecap:round;stroke-linejoin:round;stroke-miterlimit:10;}
	.st2{fill:#D8BDF2;stroke:#161616;stroke-width:0.75;stroke-linecap:round;stroke-linejoin:round;stroke-miterlimit:10;}
	.st3{fill:#D8BDF2;}
	.st4{fill:#FFFFBA;stroke:#161616;stroke-width:0.75;stroke-linecap:round;stroke-linejoin:round;stroke-miterlimit:10;}
</style>
<g>
	<rect x="3.3" y="4.6" class="st0" width="25.5" height="21.9"/>
	<line class="st1" x1="10.7" y1="8.5" x2="21.3" y2="8.5"/>
	<line class="st1" x1="6.9" y1="12.5" x2="25.1" y2="12.5"/>
	<g>
		<polygon class="st2" points="19.4,29.4 21.3,27 23.2,29.4 22.6,23.8 20,23.8 		"/>
		<g>
			<path class="st3" d="M24.8,23.2c-0.1,0.3-0.5,0.6-0.8,0.7s-0.8,0.3-1,0.5c-0.2,0.2-0.7,0.3-1,0.3c-0.3-0.1-0.8-0.1-1.2,0
				c-0.3,0.1-0.8,0-1-0.3c-0.2-0.2-0.7-0.5-1-0.5c-0.3-0.1-0.7-0.4-0.8-0.7c-0.1-0.3-0.4-0.7-0.7-1c-0.2-0.2-0.4-0.7-0.4-1
				c0-0.3,0-0.8-0.1-1.2c-0.1-0.3-0.1-0.8,0.1-1.1c0.2-0.3,0.4-0.8,0.4-1.1c0-0.3,0.3-0.7,0.6-0.9c0.3-0.2,0.7-0.5,0.9-0.8
				c0.2-0.3,0.6-0.5,0.9-0.5c0.3,0,0.8-0.1,1.1-0.3s0.8-0.2,1.1,0s0.8,0.3,1.1,0.3c0.3,0,0.8,0.2,0.9,0.5c0.2,0.3,0.6,0.6,0.9,0.8
				c0.3,0.2,0.6,0.5,0.6,0.9c0,0.3,0.2,0.8,0.4,1.1c0.2,0.3,0.2,0.7,0.1,1.1c-0.1,0.3-0.2,0.8-0.1,1.2c0,0.3-0.1,0.8-0.4,1
				C25.2,22.5,24.9,22.9,24.8,23.2z"/>
			<path class="st1" d="M24.8,23.2c-0.1,0.3-0.5,0.6-0.8,0.7s-0.8,0.3-1,0.5c-0.2,0.2-0.7,0.3-1,0.3c-0.3-0.1-0.8-0.1-1.2,0
				c-0.3,0.1-0.8,0-1-0.3c-0.2-0.2-0.7-0.5-1-0.5c-0.3-0.1-0.7-0.4-0.8-0.7c-0.1-0.3-0.4-0.7-0.7-1c-0.2-0.2-0.4-0.7-0.4-1
				c0-0.3,0-0.8-0.1-1.2c-0.1-0.3-0.1-0.8,0.1-1.1c0.2-0.3,0.4-0.8,0.4-1.1c0-0.3,0.3-0.7,0.6-0.9c0.3-0.2,0.7-0.5,0.9-0.8
				c0.2-0.3,0.6-0.5,0.9-0.5c0.3,0,0.8-0.1,1.1-0.3s0.8-0.2,1.1,0s0.8,0.3,1.1,0.3c0.3,0,0.8,0.2,0.9,0.5c0.2,0.3,0.6,0.6,0.9,0.8
				c0.3,0.2,0.6,0.5,0.6,0.9c0,0.3,0.2,0.8,0.4,1.1c0.2,0.3,0.2,0.7,0.1,1.1c-0.1,0.3-0.2,0.8-0.1,1.2c0,0.3-0.1,0.8-0.4,1
				C25.2,22.5,24.9,22.9,24.8,23.2z"/>
		</g>
		<circle class="st4" cx="21.3" cy="20.1" r="3"/>
	</g>
</g>
</svg>
