<?xml version="1.0" encoding="utf-8"?>
<!-- Generator: Adobe Illustrator 22.0.1, SVG Export Plug-In . SVG Version: 6.00 Build 0)  -->
<svg version="1.1" id="Layer_1" xmlns="http://www.w3.org/2000/svg" xmlns:xlink="http://www.w3.org/1999/xlink" x="0px" y="0px"
	 width="32px" height="32px" viewBox="0 0 32 32" style="enable-background:new 0 0 32 32;" xml:space="preserve">
<style type="text/css">
	.st0{fill:#333333;stroke:#161616;stroke-width:0.75;stroke-linecap:round;stroke-linejoin:round;stroke-miterlimit:10;}
</style>
<g>
	<path class="st0" d="M11.5,9v3H7c-0.8,0-1.5,0.7-1.5,1.5C5.5,14.3,6.2,15,7,15h4.5v2H7c-0.8,0-1.5,0.7-1.5,1.5S6.2,20,7,20h4.5v3h3
		V9C12.8,9,11.5,9,11.5,9"/>
	<path class="st0" d="M26.5,16c0-1.1-0.4-1.9-1.2-2c-0.5-2.9-1.9-5-4.1-5c0,0-3.1,0-5.7,0v14h5.7c2.2,0,3.6-2.1,4.1-5
		C26.1,17.9,26.5,17.1,26.5,16"/>
</g>
</svg>
