<?xml version="1.0" encoding="utf-8"?>
<!-- Generator: Adobe Illustrator 22.0.1, SVG Export Plug-In . SVG Version: 6.00 Build 0)  -->
<svg version="1.1" id="Layer_1" xmlns="http://www.w3.org/2000/svg" xmlns:xlink="http://www.w3.org/1999/xlink" x="0px" y="0px"
	 width="32px" height="32px" viewBox="0 0 32 32" style="enable-background:new 0 0 32 32;" xml:space="preserve">
<style type="text/css">
	.st0{fill:#161616;stroke:#161616;stroke-miterlimit:10;}
	.st1{fill:#0E2F6E;stroke:#161616;stroke-linecap:round;stroke-linejoin:round;stroke-miterlimit:10;}
	.st2{fill:#0E2F6E;stroke:#0E2F6E;stroke-linecap:round;stroke-linejoin:round;stroke-miterlimit:10;}
	.st3{fill:#FFFFFF;stroke:#161616;stroke-linecap:round;stroke-miterlimit:10;}
	.st4{fill:#161616;stroke:#161616;stroke-linecap:round;stroke-linejoin:round;stroke-miterlimit:10;}
</style>
<g>
	<path class="st0" d="M23.8,26.5H9.9c-0.4,0-0.7-0.3-0.7-0.7V7.7c0-0.4,0.3-0.7,0.7-0.7h13.9c0.4,0,0.7,0.3,0.7,0.7v18.1
		C24.5,26.2,24.2,26.5,23.8,26.5z"/>
	<path class="st1" d="M7.5,6c0-0.4,0.3-0.7,0.7-0.7h13.9"/>
	<path class="st2" d="M9.5,26.6"/>
	<path class="st3" d="M20.7,15.3H13c-0.1,0-0.1-0.1-0.1-0.1v-4.4c0-0.1,0.1-0.1,0.1-0.1h7.8c0.1,0,0.1,0.1,0.1,0.1v4.4
		C20.8,15.2,20.8,15.3,20.7,15.3z"/>
	<polygon class="st4" points="7.5,25.5 9.2,26.5 9.2,6.7 7.5,5.7 	"/>
</g>
</svg>
