<?xml version="1.0" encoding="utf-8"?>
<!-- Generator: Adobe Illustrator 22.0.1, SVG Export Plug-In . SVG Version: 6.00 Build 0)  -->
<svg version="1.1" id="Layer_1" xmlns="http://www.w3.org/2000/svg" xmlns:xlink="http://www.w3.org/1999/xlink" x="0px" y="0px"
	 width="32px" height="32px" viewBox="0 0 32 32" style="enable-background:new 0 0 32 32;" xml:space="preserve">
<style type="text/css">
	.st0{fill:#BAFFC9;stroke:#161616;stroke-width:0.75;stroke-linecap:round;stroke-linejoin:round;stroke-miterlimit:10;}
	.st1{fill:none;stroke:#161616;stroke-width:0.75;stroke-linecap:round;stroke-linejoin:round;stroke-miterlimit:10;}
	.st2{fill:none;stroke:#0E2F6E;stroke-width:0.75;stroke-linecap:round;stroke-linejoin:round;stroke-miterlimit:10;}
	.st3{fill:#F2F2F2;stroke:#161616;stroke-width:0.75;stroke-linecap:round;stroke-linejoin:round;stroke-miterlimit:10;}
	.st4{fill:#161616;stroke:#161616;stroke-width:0.75;stroke-linecap:round;stroke-linejoin:round;stroke-miterlimit:10;}
	.st5{fill:#BAE1FF;stroke:#161616;stroke-width:0.75;stroke-linecap:round;stroke-linejoin:round;stroke-miterlimit:10;}
</style>
<g>
	<g>
		<path class="st0" d="M20.9,30H7c-0.4,0-0.7-0.3-0.7-0.7V11.2c0-0.4,0.3-0.7,0.7-0.7h13.9c0.4,0,0.7,0.3,0.7,0.7v18.1
			C21.6,29.7,21.3,30,20.9,30z"/>
		<path class="st1" d="M4.6,9.5c0-0.4,0.3-0.7,0.7-0.7h13.9"/>
		<path class="st2" d="M6.6,30.1"/>
		<path class="st3" d="M17.8,18.8h-7.8c-0.1,0-0.1-0.1-0.1-0.1v-4.4c0-0.1,0.1-0.1,0.1-0.1h7.8c0.1,0,0.1,0.1,0.1,0.1v4.4
			C17.9,18.7,17.9,18.8,17.8,18.8z"/>
		<polygon class="st4" points="4.6,29 6.3,30 6.3,10.2 4.6,9.2 		"/>
	</g>
	<g>
		<path class="st5" d="M27.4,7.7c0,3.2-2.6,5.8-5.8,5.8c-3.2,0-5.8-2.6-5.8-5.8c0-1.1,0.3-2.1,0.8-3c1-1.7,2.9-2.8,5-2.8
			c2.1,0,3.9,1.1,5,2.8C27.1,5.6,27.4,6.6,27.4,7.7z"/>
		<g>
			<line class="st1" x1="21.6" y1="1.9" x2="21.6" y2="13.5"/>
			<path class="st1" d="M18.9,2.7c-0.5,1.5-0.7,3.2-0.7,5c0,1.8,0.3,3.5,0.7,5"/>
			<path class="st1" d="M24.2,12.7c0.5-1.5,0.7-3.2,0.7-5c0-1.8-0.3-3.5-0.7-5"/>
		</g>
		<g>
			<line class="st1" x1="16.5" y1="7.7" x2="26.7" y2="7.7"/>
			<path class="st1" d="M17.2,4.6c1.1,0.6,2.7,1,4.4,1s3.2-0.4,4.4-1"/>
			<path class="st1" d="M25.9,10.8c-1.1-0.6-2.7-1-4.4-1c-1.7,0-3.2,0.4-4.4,1"/>
		</g>
	</g>
</g>
</svg>
