<?xml version="1.0" encoding="utf-8"?>
<!-- Generator: Adobe Illustrator 22.0.1, SVG Export Plug-In . SVG Version: 6.00 Build 0)  -->
<svg version="1.1" xmlns="http://www.w3.org/2000/svg" xmlns:xlink="http://www.w3.org/1999/xlink" x="0px" y="0px" width="32px"
	 height="32px" viewBox="0 0 32 32" style="enable-background:new 0 0 32 32;" xml:space="preserve">
<style type="text/css">
	.st0{fill:#BAE1FF;stroke:#161616;stroke-width:0.75;stroke-linecap:round;stroke-linejoin:round;stroke-miterlimit:10;}
	.st1{fill:none;stroke:#161616;stroke-width:0.75;stroke-linecap:round;stroke-linejoin:round;stroke-miterlimit:10;}
</style>
<g id="Ebene_2">
</g>
<g id="Layer_1">
	<g>
		<path class="st0" d="M27.1,16c0,6.2-5,11.2-11.2,11.2c-6.1,0-11.1-5-11.1-11.2c0-2.1,0.6-4.1,1.6-5.8C8.4,7,12,4.9,16,4.9
			c4,0,7.6,2.1,9.5,5.4C26.6,11.9,27.1,13.9,27.1,16z"/>
		<line class="st1" x1="16" y1="4.9" x2="16" y2="27.1"/>
		<line class="st1" x1="4.9" y1="16" x2="27.1" y2="16"/>
		<path class="st1" d="M6.5,10.2C8.4,7,12,4.9,16,4.9c4,0,7.6,2.2,9.5,5.4"/>
		<path class="st1" d="M6.4,10.3c2.8,0.9,6.1,1.4,9.6,1.4c3.5,0,6.8-0.5,9.6-1.4"/>
		<path class="st1" d="M11.5,6.1c-0.9,2.8-1.4,6.1-1.4,9.6c0,3.5,0.5,6.8,1.4,9.6"/>
		<path class="st1" d="M21.2,25.6c0.9-2.8,1.4-6.1,1.4-9.6c0-3.5-0.5-6.8-1.4-9.6"/>
		<path class="st1" d="M25.6,21.7c-2.8-0.9-6.1-1.4-9.6-1.4c-3.5,0-6.8,0.5-9.6,1.4"/>
		<path class="st1" d="M10.8,6.1C12.1,7.5,14,8.3,16,8.3s3.9-0.8,5.2-2.1"/>
		<path class="st1" d="M21.2,25.8c-1.3-1.3-3.2-2.1-5.2-2.1s-3.9,0.8-5.2,2.1"/>
	</g>
</g>
</svg>
