<?xml version="1.0" encoding="utf-8"?>
<!-- Generator: Adobe Illustrator 22.0.1, SVG Export Plug-In . SVG Version: 6.00 Build 0)  -->
<svg version="1.1" id="Layer_1" xmlns="http://www.w3.org/2000/svg" xmlns:xlink="http://www.w3.org/1999/xlink" x="0px" y="0px"
	 width="32px" height="32px" viewBox="0 0 32 32" style="enable-background:new 0 0 32 32;" xml:space="preserve">
<style type="text/css">
	.st0{fill:#D8BDF2;stroke:#161616;stroke-width:0.75;stroke-linecap:round;stroke-linejoin:round;stroke-miterlimit:10;}
	.st1{fill:#D8BDF2;}
	.st2{fill:none;stroke:#161616;stroke-width:0.75;stroke-linecap:round;stroke-linejoin:round;stroke-miterlimit:10;}
	.st3{fill:#FFFFBA;stroke:#161616;stroke-width:0.75;stroke-linecap:round;stroke-linejoin:round;stroke-miterlimit:10;}
</style>
<g>
	<polygon class="st0" points="12.3,30.1 16,25.1 19.7,30.1 18.5,18.4 13.4,18.4 	"/>
	<g>
		<path class="st1" d="M22.7,17.3c-0.2,0.6-0.9,1.2-1.5,1.4c-0.6,0.2-1.5,0.6-2,1.1c-0.5,0.4-1.4,0.6-2,0.5c-0.6-0.2-1.6-0.1-2.2,0
			c-0.6,0.2-1.5-0.1-2-0.5c-0.5-0.4-1.4-0.9-2-1c-0.6-0.2-1.3-0.8-1.5-1.4c-0.2-0.6-0.8-1.4-1.3-1.8c-0.5-0.4-0.8-1.3-0.7-1.9
			c0.1-0.6-0.1-1.6-0.3-2.2S7,9.8,7.3,9.3S8,7.8,8.1,7.2s0.6-1.4,1.2-1.7c0.6-0.3,1.3-1,1.7-1.5c0.4-0.5,1.2-1,1.8-1
			s1.6-0.2,2.2-0.5s1.5-0.3,2.1,0C17.6,2.8,18.6,3,19.2,3C19.8,3,20.6,3.4,21,4s1.1,1.2,1.7,1.5c0.6,0.3,1.1,1.1,1.2,1.7
			s0.4,1.6,0.8,2.1c0.4,0.5,0.5,1.4,0.3,2s-0.3,1.6-0.3,2.2c0.1,0.6-0.2,1.5-0.7,1.9C23.5,15.8,22.9,16.7,22.7,17.3z"/>
		<path class="st2" d="M22.7,17.3c-0.2,0.6-0.9,1.2-1.5,1.4c-0.6,0.2-1.5,0.6-2,1.1c-0.5,0.4-1.4,0.6-2,0.5c-0.6-0.2-1.6-0.1-2.2,0
			c-0.6,0.2-1.5-0.1-2-0.5c-0.5-0.4-1.4-0.9-2-1c-0.6-0.2-1.3-0.8-1.5-1.4c-0.2-0.6-0.8-1.4-1.3-1.8c-0.5-0.4-0.8-1.3-0.7-1.9
			c0.1-0.6-0.1-1.6-0.3-2.2S7,9.8,7.3,9.3S8,7.8,8.1,7.2s0.6-1.4,1.2-1.7c0.6-0.3,1.3-1,1.7-1.5c0.4-0.5,1.2-1,1.8-1
			s1.6-0.2,2.2-0.5s1.5-0.3,2.1,0C17.6,2.8,18.6,3,19.2,3C19.8,3,20.6,3.4,21,4s1.1,1.2,1.7,1.5c0.6,0.3,1.1,1.1,1.2,1.7
			s0.4,1.6,0.8,2.1c0.4,0.5,0.5,1.4,0.3,2s-0.3,1.6-0.3,2.2c0.1,0.6-0.2,1.5-0.7,1.9C23.5,15.8,22.9,16.7,22.7,17.3z"/>
	</g>
	<circle class="st3" cx="16" cy="11.2" r="5.9"/>
</g>
</svg>
