<?xml version="1.0" encoding="utf-8"?>
<!-- Generator: Adobe Illustrator 22.0.1, SVG Export Plug-In . SVG Version: 6.00 Build 0)  -->
<svg version="1.1" id="Layer_1" xmlns="http://www.w3.org/2000/svg" xmlns:xlink="http://www.w3.org/1999/xlink" x="0px" y="0px"
	 width="32px" height="32px" viewBox="0 0 32 32" style="enable-background:new 0 0 32 32;" xml:space="preserve">
<style type="text/css">
	.st0{fill:#DDDDDD;stroke:#161616;stroke-width:0.75;stroke-linecap:round;stroke-linejoin:round;stroke-miterlimit:10;}
	.st1{fill:none;stroke:#161616;stroke-width:0.75;stroke-linecap:round;stroke-linejoin:round;stroke-miterlimit:10;}
	.st2{fill:#161616;stroke:#161616;stroke-width:0.75;stroke-linecap:round;stroke-linejoin:round;stroke-miterlimit:10;}
</style>
<g>
	<polygon class="st0" points="23.8,28.9 8.2,28.9 6,10.5 26,10.5 	"/>
	<g>
		<line class="st1" x1="9.7" y1="10.5" x2="10.9" y2="28.9"/>
		<line class="st1" x1="13.7" y1="10.5" x2="13.9" y2="28.9"/>
		<line class="st1" x1="22.3" y1="10.5" x2="21.1" y2="28.9"/>
		<line class="st1" x1="18.3" y1="10.5" x2="18.1" y2="28.9"/>
	</g>
	<path class="st2" d="M26,7.3c0-1.9-4.5-2.5-10-2.5S6,5.4,6,7.3c0,0.2,0,1.4,0,1.4h20C26,8.7,26,7.5,26,7.3z"/>
	<path class="st1" d="M14.4,4.7c0-0.9,0.7-1.6,1.6-1.6s1.6,0.7,1.6,1.6"/>
</g>
</svg>
