<?xml version="1.0" encoding="utf-8"?>
<!-- Generator: Adobe Illustrator 22.0.1, SVG Export Plug-In . SVG Version: 6.00 Build 0)  -->
<svg version="1.1" xmlns="http://www.w3.org/2000/svg" xmlns:xlink="http://www.w3.org/1999/xlink" x="0px" y="0px" width="32px"
	 height="32px" viewBox="0 0 32 32" style="enable-background:new 0 0 32 32;" xml:space="preserve">
<style type="text/css">
	.st0{fill:#BAE1FF;stroke:#161616;stroke-width:0.75;stroke-linecap:round;stroke-linejoin:round;stroke-miterlimit:10;}
	.st1{fill:#FFFFFF;stroke:#161616;stroke-width:0.75;stroke-miterlimit:10;}
	.st2{fill:none;stroke:#161616;stroke-width:0.75;stroke-linecap:round;stroke-linejoin:round;stroke-miterlimit:10;}
	.st3{fill:#D8BDF2;stroke:#161616;stroke-width:0.75;stroke-linecap:round;stroke-linejoin:round;stroke-miterlimit:10;}
</style>
<g id="Ebene_2">
</g>
<g id="Layer_1">
	<g>
		<path class="st0" d="M21.9,5H6.2C5,5,4,5.9,4,7.1v9.7C4,18,5,19,6.2,19h1.9v5.3l4.5-5.3h9.2c1.2,0,2.2-1,2.2-2.2V7.1
			C24,5.9,23.1,5,21.9,5z"/>
		<path class="st1" d="M26.8,15.5h-8.7c-0.7,0-1.2,0.5-1.2,1.2V22c0,0.7,0.5,1.2,1.2,1.2h4.8V27l2.5-3.8h1.3c0.7,0,1.2-0.5,1.2-1.2
			v-5.3C28,16,27.4,15.5,26.8,15.5"/>
		<path class="st2" d="M26.8,15.5h-8.7c-0.7,0-1.2,0.5-1.2,1.2V22c0,0.7,0.5,1.2,1.2,1.2h4.8V27l2.5-3.8h1.3c0.7,0,1.2-0.5,1.2-1.2
			v-5.3C28,16,27.4,15.5,26.8,15.5z"/>
		<path class="st3" d="M26.8,15.5h-8.7c-0.7,0-1.2,0.5-1.2,1.2V22c0,0.7,0.5,1.2,1.2,1.2h4.8V27l2.5-3.8h1.3c0.7,0,1.2-0.5,1.2-1.2
			v-5.3C28,16,27.4,15.5,26.8,15.5z"/>
	</g>
</g>
</svg>
