<?xml version="1.0" encoding="utf-8"?>
<!-- Generator: Adobe Illustrator 22.0.1, SVG Export Plug-In . SVG Version: 6.00 Build 0)  -->
<svg version="1.1" xmlns="http://www.w3.org/2000/svg" xmlns:xlink="http://www.w3.org/1999/xlink" x="0px" y="0px" width="32px"
	 height="32px" viewBox="0 0 32 32" style="enable-background:new 0 0 32 32;" xml:space="preserve">
<style type="text/css">
	.st0{fill:none;}
	
		.st1{clip-path:url(#SVGID_1_);fill:#DFDCF2;stroke:#161616;stroke-width:0.75;stroke-linecap:round;stroke-linejoin:round;stroke-miterlimit:10;}
	.st2{fill:#0E2F6E;}
	
		.st3{clip-path:url(#SVGID_2_);fill:#DFDCF2;stroke:#161616;stroke-width:0.75;stroke-linecap:round;stroke-linejoin:round;stroke-miterlimit:10;}
	
		.st4{clip-path:url(#SVGID_3_);fill:#DFDCF2;stroke:#161616;stroke-width:0.75;stroke-linecap:round;stroke-linejoin:round;stroke-miterlimit:10;}
</style>
<g id="Ebene_2">
</g>
<g id="Layer_1">
	<rect class="st0" width="32" height="32"/>
	<g>
		<g>
			<defs>
				<path id="SVGID_47_" d="M6,8c0,0-0.5,0-0.5,0.5v15c0,0,0,0.5,0.5,0.5h5c0,0,0.5,0,0.5-0.5v-15c0,0,0-0.5-0.5-0.5H6z"/>
			</defs>
			<use xlink:href="#SVGID_47_"  style="overflow:visible;fill:#DFDCF2;"/>
			<clipPath id="SVGID_1_">
				<use xlink:href="#SVGID_47_"  style="overflow:visible;"/>
			</clipPath>
			<rect x="5.5" y="8" class="st1" width="6" height="16"/>
			<use xlink:href="#SVGID_47_"  style="overflow:visible;fill:none;stroke:#161616;stroke-width:0.75;stroke-miterlimit:10;"/>
		</g>
		<rect x="7" y="10" class="st2" width="3" height="1"/>
		<rect x="7" y="12" class="st2" width="3" height="1"/>
		<g>
			<defs>
				<path id="SVGID_45_" d="M13.5,8c0,0-0.5,0-0.5,0.5v15c0,0,0,0.5,0.5,0.5h5c0,0,0.5,0,0.5-0.5v-15c0,0,0-0.5-0.5-0.5H13.5z"/>
			</defs>
			<use xlink:href="#SVGID_45_"  style="overflow:visible;fill:#DFDCF2;"/>
			<clipPath id="SVGID_2_">
				<use xlink:href="#SVGID_45_"  style="overflow:visible;"/>
			</clipPath>
			<rect x="13" y="8" class="st3" width="6" height="16"/>
			<use xlink:href="#SVGID_45_"  style="overflow:visible;fill:none;stroke:#161616;stroke-width:0.75;stroke-miterlimit:10;"/>
		</g>
		<rect x="14.5" y="10" class="st2" width="3" height="1"/>
		<rect x="14.5" y="12" class="st2" width="3" height="1"/>
		<g>
			<defs>
				<path id="SVGID_43_" d="M21,8c0,0-0.5,0-0.5,0.5v15c0,0,0,0.5,0.5,0.5h5c0,0,0.5,0,0.5-0.5v-15c0,0,0-0.5-0.5-0.5H21z"/>
			</defs>
			<use xlink:href="#SVGID_43_"  style="overflow:visible;fill:#DFDCF2;"/>
			<clipPath id="SVGID_3_">
				<use xlink:href="#SVGID_43_"  style="overflow:visible;"/>
			</clipPath>
			<rect x="20.5" y="8" class="st4" width="6" height="16"/>
			<use xlink:href="#SVGID_43_"  style="overflow:visible;fill:none;stroke:#161616;stroke-width:0.75;stroke-miterlimit:10;"/>
		</g>
		<rect x="22" y="10" class="st2" width="3" height="1"/>
		<rect x="22" y="12" class="st2" width="3" height="1"/>
	</g>
</g>
</svg>
