<?xml version="1.0" encoding="utf-8"?>
<!-- Generator: Adobe Illustrator 22.0.1, SVG Export Plug-In . SVG Version: 6.00 Build 0)  -->
<svg version="1.1" id="Ebene_1" xmlns="http://www.w3.org/2000/svg" xmlns:xlink="http://www.w3.org/1999/xlink" x="0px" y="0px"
	 width="32px" height="32px" viewBox="0 0 32 32" style="enable-background:new 0 0 32 32;" xml:space="preserve">
<style type="text/css">
	.st0{fill:#BAE1FF;stroke:#161616;stroke-width:0.75;stroke-linecap:round;stroke-linejoin:round;stroke-miterlimit:10;}
	.st1{fill:none;stroke:#FFDFBA;stroke-width:0.75;stroke-linecap:round;stroke-linejoin:round;stroke-miterlimit:10;}
</style>
<g id="Ebene_2_1_">
</g>
<g>
	<path class="st0" d="M22,25.5h-6.6L8,16.7c-0.3,0.5-0.8,0.9-1.4,1l6.6,7.8H8.8c-1.1,0,0,2.5,0,2.5H22C22,27.9,23.1,25.5,22,25.5z"
		/>
	<g>
		<g>
			<g>
				<path id="SVGID_759_" class="st0" d="M5.2,15.9c0,0.7,0.6,1.3,1.3,1.3c0.7,0,1.3-0.6,1.3-1.3c0-0.7-0.6-1.3-1.3-1.3
					C5.7,14.6,5.2,15.2,5.2,15.9"/>
			</g>
		</g>
	</g>
	<path class="st0" d="M20.4,5.5c-1.9,0-3.6,0.7-3.6,0.7l-2.3-1.9c0,0-0.3-0.2-0.7-0.2c-0.3,0-0.6,0.1-0.9,0.5c-0.7,0.9-1.6,2-1.6,2
		s-0.9,1-0.1,1.7c0.2,0.2,0.4,0.3,0.6,0.5l-5.1,5.4c0.6,0.1,1.1,0.5,1.3,1l5-5.3c0.1,0.1,0.2,0.2,0.2,0.2s-0.1,1.4,0.2,3.2
		s1.3,3.1,1.3,3.1s0.9,0.8,1.6-0.1c0.7-0.9,6.9-8.2,7.1-8.9C23.8,6.7,22.3,5.5,20.4,5.5z"/>
	<g>
		<line class="st1" x1="20.4" y1="14.2" x2="21.9" y2="18"/>
		<line class="st1" x1="21.6" y1="12.7" x2="24.4" y2="14.8"/>
		<line class="st1" x1="22.8" y1="11.1" x2="26.8" y2="11.7"/>
	</g>
</g>
</svg>
