<?xml version="1.0" encoding="utf-8"?>
<!-- Generator: Adobe Illustrator 26.0.3, SVG Export Plug-In . SVG Version: 6.00 Build 0)  -->
<svg version="1.1" id="Layer_1" xmlns="http://www.w3.org/2000/svg" xmlns:xlink="http://www.w3.org/1999/xlink" x="0px" y="0px"
	 viewBox="0 0 32 32" style="enable-background:new 0 0 32 32;" xml:space="preserve">
<style type="text/css">
	.st0{fill:#D8BDF2;}
	.st1{fill:#FFFFFF;}
	.st2{fill:none;stroke:#161616;stroke-width:0.75;stroke-linecap:round;stroke-linejoin:round;stroke-miterlimit:10;}
	.st3{fill:#FFB3BA;}
	.st4{fill:#BAFFC9;}
</style>
<g>
	<g>
		<path class="st0" d="M22,11.1v-4c0,0-3-2-8.2,0c-4,1.5-7.8,0-7.8,0v4c0,0,3.8,1.5,7.8,0C19,9.1,22,11.1,22,11.1"/>
		<path class="st0" d="M22,19.1v-4c0,0-3-2-8.2,0c-4,1.5-7.8,0-7.8,0v4c0,0,3.8,1.5,7.8,0C19,17.1,22,19.1,22,19.1"/>
		<path class="st1" d="M22,15.1v-4c0,0-3-2-8.2,0c-4,1.5-7.8,0-7.8,0v4c0,0,3.8,1.5,7.8,0C19,13.1,22,15.1,22,15.1"/>
	</g>
	<path class="st2" d="M13.8,7.1c-4,1.5-7.8,0-7.8,0v4v4v4c0,0,3.8,1.5,7.8,0c5.2-2,8.2,0,8.2,0v-4v-4v-4C22,7.1,19,5.1,13.8,7.1z"/>
	<path class="st1" d="M20.7,24.3v-12c-0.9,0.1-1.8,0.3-2.9,0.7c-0.8,0.3-1.6,0.5-2.4,0.6v12c0.8-0.1,1.6-0.3,2.4-0.6
		C18.8,24.7,19.8,24.5,20.7,24.3"/>
	<path class="st3" d="M15.4,13.6c-3,0.4-5.3-0.6-5.3-0.6v12c0,0,2.4,0.9,5.3,0.6V13.6z"/>
	<path class="st4" d="M26,25.1v-12c0,0-1.9-1.2-5.3-0.7v12C24.1,23.8,26,25.1,26,25.1"/>
	<path class="st2" d="M17.8,13.1c-4,1.5-7.8,0-7.8,0v4v4v4c0,0,3.8,1.5,7.8,0c5.2-2,8.2,0,8.2,0v-4v-4v-4C26,13.1,23,11.1,17.8,13.1
		z"/>
</g>
</svg>
