<?xml version="1.0" encoding="utf-8"?>
<!-- Generator: Adobe Illustrator 22.0.1, SVG Export Plug-In . SVG Version: 6.00 Build 0)  -->
<svg version="1.1" id="Layer_1" xmlns="http://www.w3.org/2000/svg" xmlns:xlink="http://www.w3.org/1999/xlink" x="0px" y="0px"
	 width="16px" height="16px" viewBox="0 0 16 16" style="enable-background:new 0 0 16 16;" xml:space="preserve">
<style type="text/css">
	.st0{fill:#F2F2F2;}
	.st1{fill:none;}
	.st2{fill:#F2F2F2;stroke:#161616;stroke-width:0.75;stroke-linecap:round;stroke-linejoin:round;stroke-miterlimit:10;}
	.st3{fill:none;stroke:#161616;stroke-width:0.75;stroke-linecap:round;stroke-linejoin:round;stroke-miterlimit:10;}
</style>
<g>
	<path class="st0" d="M8,1C5.9,1,4.2,2.5,3.7,4.6c0,0-0.1,1.8-0.1,2.7C3.6,9,2,9.9,2,9.9s-0.3,1.9,0,2.6c0.2,0.4,11.8,0.4,12,0
		c0.3-0.7,0-2.6,0-2.6S12.4,9,12.4,7.2c0-0.9-0.1-2.7-0.1-2.7C11.9,2.5,10.1,1,8,1z"/>
	<path class="st1" d="M8,1C5.9,1,4.2,2.5,3.7,4.6c0,0-0.1,1.8-0.1,2.7C3.6,9,2,9.9,2,9.9s-0.3,1.9,0,2.6c0.2,0.4,11.8,0.4,12,0
		c0.3-0.7,0-2.6,0-2.6S12.4,9,12.4,7.2c0-0.9-0.1-2.7-0.1-2.7C11.9,2.5,10.1,1,8,1z"/>
	<path class="st2" d="M6.3,13.1C6.4,14,7.1,14.6,8,14.6s1.6-0.6,1.7-1.5C9.2,13.2,6.9,13.2,6.3,13.1"/>
	<path class="st3" d="M8,1C5.9,1,4.2,2.5,3.7,4.6c0,0-0.1,1.8-0.1,2.7C3.6,9,2,9.9,2,9.9s-0.3,1.9,0,2.6c0.2,0.4,11.8,0.4,12,0
		c0.3-0.7,0-2.6,0-2.6S12.4,9,12.4,7.2c0-0.9-0.1-2.7-0.1-2.7C11.9,2.5,10.1,1,8,1z"/>
</g>
</svg>
