<?xml version="1.0" encoding="utf-8"?>
<!-- Generator: Adobe Illustrator 27.6.1, SVG Export Plug-In . SVG Version: 6.00 Build 0)  -->
<svg version="1.1" id="cat-pg" xmlns="http://www.w3.org/2000/svg" xmlns:xlink="http://www.w3.org/1999/xlink" x="0px" y="0px"
	 viewBox="0 0 32 32" style="enable-background:new 0 0 32 32;" xml:space="preserve">
<style type="text/css">
	.st0{fill:none;stroke:#161616;stroke-width:0.75;stroke-linecap:round;stroke-linejoin:round;stroke-miterlimit:10;}
</style>
<g>
	<polygon class="st0" points="15.8,1.2 22.1,3.9 15.8,6.6 9.5,3.9 	"/>
	<polyline class="st0" points="15.8,6.6 15.8,14.9 9.5,12.2 9.5,3.9 	"/>
	<polyline class="st0" points="22.2,4 22.2,12.3 15.9,15 15.9,6.7 	"/>
</g>
<g>
	<g>
		<polygon class="st0" points="6.8,14.7 13.1,17.4 6.8,20.1 0.5,17.4 		"/>
		<polyline class="st0" points="6.8,20.1 6.8,28.4 0.5,25.7 0.5,17.4 		"/>
		<polyline class="st0" points="13.2,17.4 13.2,25.7 6.9,28.4 6.9,20.1 		"/>
	</g>
	<g>
		<polygon class="st0" points="24.8,14.7 31.1,17.4 24.8,20.1 18.5,17.4 		"/>
		<polyline class="st0" points="24.8,20.1 24.8,28.4 18.5,25.7 18.5,17.4 		"/>
		<polyline class="st0" points="31.2,17.4 31.2,25.7 24.9,28.4 24.9,20.1 		"/>
	</g>
</g>
</svg>
