<?xml version="1.0" encoding="utf-8"?>
<!-- Generator: Adobe Illustrator 22.0.1, SVG Export Plug-In . SVG Version: 6.00 Build 0)  -->
<svg version="1.1" id="Layer_1" xmlns="http://www.w3.org/2000/svg" xmlns:xlink="http://www.w3.org/1999/xlink" x="0px" y="0px"
	 width="32px" height="32px" viewBox="0 0 32 32" style="enable-background:new 0 0 32 32;" xml:space="preserve">
<style type="text/css">
	.st0{fill:#BAE1FF;stroke:#161616;stroke-width:0.75;stroke-linecap:round;stroke-linejoin:round;stroke-miterlimit:10;}
</style>
<path class="st0" d="M13.1,13C12,10.9,9.8,9.4,7.2,9.4c-3.6,0.1-6.5,3.1-6.5,6.6c0.1,3.6,3,6.6,6.6,6.5c2.5,0,4.7-1.5,5.8-3.6l4.4,0
	l1.8-1.2l1.8,1.2l1.8-1.2l1.8,1.2l1.8-1.2l1.8,1.2l3-3l-3-3L13.1,13z M6.2,17.2c-0.7,0.7-1.8,0.7-2.6,0.1c-0.7-0.7-0.7-1.8-0.1-2.6
	c0.7-0.7,1.8-0.7,2.6-0.1C6.9,15.3,6.9,16.5,6.2,17.2z"/>
</svg>
