<?xml version="1.0" encoding="utf-8"?>
<!-- Generator: Adobe Illustrator 22.0.1, SVG Export Plug-In . SVG Version: 6.00 Build 0)  -->
<svg version="1.1" id="Layer_1" xmlns="http://www.w3.org/2000/svg" xmlns:xlink="http://www.w3.org/1999/xlink" x="0px" y="0px"
	 width="32px" height="32px" viewBox="0 0 32 32" style="enable-background:new 0 0 32 32;" xml:space="preserve">
<style type="text/css">
	.st0{fill:#FFDFBA;stroke:#161616;stroke-width:0.75;stroke-linecap:round;stroke-linejoin:round;stroke-miterlimit:10;}
	
		.st1{clip-path:url(#SVGID_1_);fill:none;stroke:#0E2F6E;stroke-width:0.75;stroke-linecap:round;stroke-linejoin:round;stroke-miterlimit:10;}
	.st2{fill:#BAFFC9;stroke:#161616;stroke-width:0.75;stroke-linecap:round;stroke-linejoin:round;stroke-miterlimit:10;}
	.st3{fill:#BAE1FF;}
	.st4{fill:#BAE1FF;stroke:#161616;stroke-width:0.75;stroke-linecap:round;stroke-linejoin:round;stroke-miterlimit:10;}
	.st5{fill:none;stroke:#161616;stroke-width:0.75;stroke-linecap:round;stroke-linejoin:round;stroke-miterlimit:10;}
</style>
<g>
	<path class="st0" d="M12.3,14.2c2.1,0,3.8-1.9,3.8-4.2c0-2.4-1.7-4.2-3.8-4.2c-2.1,0-3.8,1.9-3.8,4.2C8.5,12.3,10.2,14.2,12.3,14.2
		"/>
	<g>
		<defs>
			<path id="SVGID_3_" d="M12.3,17.4c-1.1,0-2.1-0.4-2.9-0.9c-1.6,0.7-2.7,2.1-2.7,3.6V26h11.2v-5.9c0-1.5-1.1-2.9-2.7-3.6
				C14.4,17,13.4,17.4,12.3,17.4"/>
		</defs>
		<clipPath id="SVGID_1_">
			<use xlink:href="#SVGID_3_"  style="overflow:visible;"/>
		</clipPath>
		<rect x="6.7" y="16.5" class="st1" width="11.2" height="9.5"/>
	</g>
	<path class="st2" d="M12.3,17.4c-1.1,0-2.1-0.4-2.9-0.9c-1.6,0.7-2.7,2.1-2.7,3.6V26h11.2v-5.9c0-1.5-1.1-2.8-2.7-3.6
		C14.4,17,13.4,17.4,12.3,17.4"/>
	<g>
		<polygon class="st3" points="23,26.2 21.8,23.6 24.1,23.6 		"/>
		<rect x="20.7" y="5.8" class="st4" width="4.6" height="14.9"/>
		<polygon class="st5" points="23,26 20.7,20.7 25.3,20.7 		"/>
		<line class="st5" x1="23" y1="5.8" x2="23" y2="20.7"/>
	</g>
</g>
</svg>
