<?xml version="1.0" encoding="utf-8"?>
<!-- Generator: Adobe Illustrator 22.0.1, SVG Export Plug-In . SVG Version: 6.00 Build 0)  -->
<svg version="1.1" id="Layer_1" xmlns="http://www.w3.org/2000/svg" xmlns:xlink="http://www.w3.org/1999/xlink" x="0px" y="0px"
	 width="32px" height="32px" viewBox="0 0 32 32" style="enable-background:new 0 0 32 32;" xml:space="preserve">
<style type="text/css">
	.st0{fill:#F2F2F2;stroke:#161616;stroke-width:0.75;stroke-linecap:round;stroke-linejoin:round;stroke-miterlimit:10;}
	.st1{fill:#FFFFBA;stroke:#161616;stroke-width:0.75;stroke-linecap:round;stroke-linejoin:round;stroke-miterlimit:10;}
</style>
<g>
	<polygon class="st0" points="31,1 1,1 1,31 28.5,31 31,28.5 	"/>
	<polygon class="st0" points="1,8.4 8.4,1 1,1 	"/>
	<polygon class="st0" points="31,23.6 23.6,31 31,31 	"/>
	<path class="st1" d="M14,21.9c-0.1-0.1-0.2-0.2-0.3-0.3c-0.8-0.6-0.8-1.5-0.8-1.5c0-2,2.3-1.7,2.3-1.7c2.3,0.3,2.1,1.8,2.1,1.8
		c-0.1,0.9-1.1,1.6-1.1,1.6c-0.2,0.2-0.3,0.4-0.1,0.8c0.2,0.3,0.7,0.2,0.7,0.2l6.4,0l0-6.2c0,0,0-0.5,0.2-0.7
		c0.3-0.2,0.6-0.1,0.8,0.1c0,0,0.7,1,1.6,1.1c0,0,1.5,0.2,1.8-2.1c0,0,0.2-2.3-1.7-2.3c0,0-0.8,0-1.5,0.8c-0.1,0.1-0.2,0.2-0.3,0.3
		c0,0-0.7,0.4-0.8-0.6l0-3.6l-6.5,0c-1.2,0.2-0.3,1-0.3,1s0.7,0.6,0.9,1.1c0.7,1.9-1.8,2.2-1.8,2.2C13.6,14,13,12.4,13,12.4
		c-0.4-1,0.5-1.7,0.5-1.7c0.4-0.3,0.6-0.7,0.6-0.7c0.3-0.8-0.7-0.8-0.7-0.8l-4.5,0l0,3.7c0,0,0,1-0.8,0.7c0,0-0.4-0.2-0.7-0.6
		c0,0-0.7-0.9-1.7-0.5c0,0-1.5,0.6-1.2,2.5c0,0,0.3,2.5,2.2,1.8C7.2,16.7,7.8,16,7.8,16s0.8-0.9,1,0.3l0,6.4l4.5,0
		C14.4,22.6,14,21.9,14,21.9z"/>
</g>
</svg>
