<?xml version="1.0" encoding="utf-8"?>
<!-- Generator: Adobe Illustrator 22.0.1, SVG Export Plug-In . SVG Version: 6.00 Build 0)  -->
<svg version="1.1" id="Layer_1" xmlns="http://www.w3.org/2000/svg" xmlns:xlink="http://www.w3.org/1999/xlink" x="0px" y="0px"
	 width="32px" height="32px" viewBox="0 0 32 32" style="enable-background:new 0 0 32 32;" xml:space="preserve">
<style type="text/css">
	.st0{fill:none;}
	
		.st1{clip-path:url(#SVGID_1_);fill:#DDDDDD;stroke:#161616;stroke-width:0.75;stroke-linecap:round;stroke-linejoin:round;stroke-miterlimit:10;}
	
		.st2{clip-path:url(#SVGID_2_);fill:#FFFFBA;stroke:#161616;stroke-width:0.75;stroke-linecap:round;stroke-linejoin:round;stroke-miterlimit:10;}
	
		.st3{clip-path:url(#SVGID_3_);fill:#DDDDDD;stroke:#161616;stroke-width:0.75;stroke-linecap:round;stroke-linejoin:round;stroke-miterlimit:10;}
</style>
<rect y="0" class="st0" width="32" height="32"/>
<g>
	<g>
		<defs>
			<polygon id="SVGID_682_" points="24.1,6.9 23.1,8.9 13,18.3 14.1,19.5 24.2,10.1 26.3,9.2 28.1,6.4 28.1,6.4 27,5.3 			"/>
		</defs>
		<use xlink:href="#SVGID_682_"  style="overflow:visible;fill:#DDDDDD;"/>
		<clipPath id="SVGID_1_">
			<use xlink:href="#SVGID_682_"  style="overflow:visible;"/>
		</clipPath>
		<polygon class="st1" points="5.9,11.9 20,27 35.2,12.9 21.1,-2.2 		"/>
		
			<use xlink:href="#SVGID_682_"  style="overflow:visible;fill:none;stroke:#161616;stroke-width:0.75;stroke-linecap:round;stroke-linejoin:round;stroke-miterlimit:10;"/>
	</g>
</g>
<g>
	<g>
		<defs>
			<path id="SVGID_680_" d="M5,24.2C4.1,25,4,26.3,4.8,27.1s2.1,0.8,2.9,0l8.1-8.3l-2-2.2L5,24.2z"/>
		</defs>
		<use xlink:href="#SVGID_680_"  style="overflow:visible;fill:#FFFFBA;"/>
		<clipPath id="SVGID_2_">
			<use xlink:href="#SVGID_680_"  style="overflow:visible;"/>
		</clipPath>
		<polygon class="st2" points="10.3,10.7 21.5,22.7 9.5,33.8 -1.6,21.9 		"/>
		
			<use xlink:href="#SVGID_680_"  style="overflow:visible;fill:none;stroke:#161616;stroke-width:0.75;stroke-linecap:round;stroke-linejoin:round;stroke-miterlimit:10;"/>
	</g>
</g>
<g>
	<g>
		<defs>
			<path id="SVGID_679_" d="M24.3,25.7c-0.4-0.4-0.4-1,0-1.4c0.4-0.4,1-0.4,1.4,0c0.4,0.4,0.4,1,0,1.4c-0.2,0.2-0.5,0.3-0.7,0.3
				C24.7,26,24.5,25.9,24.3,25.7 M8.6,5C8,5,7.7,5.3,8.1,5.8C8.4,6.3,10,8.3,10,8.3s0,1.2-0.9,1.9C8.1,11,7,10.6,7,10.6
				S5.4,8.6,5.1,8.1C4.5,7.3,4,8.1,4,9.3v0.2c0,1,0.3,2.4,1.1,3.4c1,1.4,3.4,2.1,5.5,1.1L22,24.7c-0.1,0.9,0.2,1.8,0.9,2.4
				c1.2,1.1,3,1,4.1-0.1c1.1-1.2,1-3-0.1-4.1c-0.7-0.7-1.6-0.9-2.5-0.7L13,11.5c0.6-1.5,0.4-3.3-0.4-4.3C11.6,5.8,9.7,5,8.6,5L8.6,5
				z"/>
		</defs>
		<use xlink:href="#SVGID_679_"  style="overflow:visible;fill:#DDDDDD;"/>
		<clipPath id="SVGID_3_">
			<use xlink:href="#SVGID_679_"  style="overflow:visible;"/>
		</clipPath>
		<polygon class="st3" points="-7.6,17.4 15.3,-7.1 39.8,15.8 16.9,40.3 		"/>
		
			<use xlink:href="#SVGID_679_"  style="overflow:visible;fill:none;stroke:#161616;stroke-width:0.75;stroke-linecap:round;stroke-linejoin:round;stroke-miterlimit:10;"/>
	</g>
</g>
</svg>
