<?xml version="1.0" encoding="utf-8"?>
<!-- Generator: Adobe Illustrator 22.0.1, SVG Export Plug-In . SVG Version: 6.00 Build 0)  -->
<svg version="1.1" id="Layer_1" xmlns="http://www.w3.org/2000/svg" xmlns:xlink="http://www.w3.org/1999/xlink" x="0px" y="0px"
	 width="27.6px" height="26.5px" viewBox="0 0 27.6 26.5" style="enable-background:new 0 0 27.6 26.5;" xml:space="preserve">
<style type="text/css">
	.st0{fill:#D8BDF2;stroke:#161616;stroke-width:0.75;stroke-linecap:round;stroke-linejoin:round;stroke-miterlimit:10;}
	.st1{fill:#D8BDF2;}
	.st2{fill:none;stroke:#161616;stroke-width:0.75;stroke-linecap:round;stroke-linejoin:round;stroke-miterlimit:10;}
	.st3{fill:#FFFFBA;stroke:#161616;stroke-width:0.75;stroke-linecap:round;stroke-linejoin:round;stroke-miterlimit:10;}
	.st4{fill:#0E2F6E;stroke:#161616;stroke-width:0.75;stroke-linecap:round;stroke-linejoin:round;stroke-miterlimit:10;}
	.st5{fill:#BAE1FF;stroke:#161616;stroke-width:0.75;stroke-linecap:round;stroke-linejoin:round;stroke-miterlimit:10;}
</style>
<title>icon_lrnng-hstr</title>
<g>
	<polygon class="st0" points="4,17.1 6.2,14.4 8.4,17.1 7.7,10.7 4.6,10.7 	"/>
	<g>
		<path class="st1" d="M10.1,10c-0.1,0.4-0.5,0.7-0.9,0.8c-0.4,0.1-0.9,0.4-1.2,0.6c-0.3,0.3-0.8,0.4-1.2,0.3c-0.4-0.1-1-0.1-1.3,0
			s-0.9,0-1.2-0.3s-0.8-0.5-1.2-0.6S2.4,10.3,2.2,10S1.7,9.1,1.5,8.9S1,8.1,1,7.7c0-0.4,0-1-0.2-1.3S0.8,5.5,1,5.2
			C1.2,4.9,1.4,4.3,1.5,4c0-0.4,0.4-0.8,0.7-1s0.8-0.6,1-0.9s0.7-0.6,1.1-0.6c0.4,0,1-0.1,1.3-0.3C5.9,1,6.4,1,6.8,1.2
			c0.3,0.2,0.9,0.3,1.3,0.3S8.9,1.7,9.1,2s0.7,0.7,1,0.9c0.3,0.2,0.6,0.6,0.7,1s0.3,0.9,0.5,1.2c0.2,0.3,0.3,0.9,0.2,1.2
			c-0.1,0.4-0.2,1-0.2,1.3s-0.1,0.9-0.4,1.1C10.6,9.1,10.3,9.6,10.1,10z"/>
		<path class="st2" d="M10.1,10c-0.1,0.4-0.5,0.7-0.9,0.8c-0.4,0.1-0.9,0.4-1.2,0.6c-0.3,0.3-0.8,0.4-1.2,0.3c-0.4-0.1-1-0.1-1.3,0
			s-0.9,0-1.2-0.3s-0.8-0.5-1.2-0.6S2.4,10.3,2.2,10S1.7,9.1,1.5,8.9S1,8.1,1,7.7c0-0.4,0-1-0.2-1.3S0.8,5.5,1,5.2
			C1.2,4.9,1.4,4.3,1.5,4c0-0.4,0.4-0.8,0.7-1s0.8-0.6,1-0.9s0.7-0.6,1.1-0.6c0.4,0,1-0.1,1.3-0.3C5.9,1,6.4,1,6.8,1.2
			c0.3,0.2,0.9,0.3,1.3,0.3S8.9,1.7,9.1,2s0.7,0.7,1,0.9c0.3,0.2,0.6,0.6,0.7,1s0.3,0.9,0.5,1.2c0.2,0.3,0.3,0.9,0.2,1.2
			c-0.1,0.4-0.2,1-0.2,1.3s-0.1,0.9-0.4,1.1C10.6,9.1,10.3,9.6,10.1,10z"/>
	</g>
	<circle class="st3" cx="6.2" cy="6.4" r="3.5"/>
	<rect x="2" y="12.7" transform="matrix(6.123234e-17 -1 1 6.123234e-17 0.8308 27.6346)" class="st4" width="24.5" height="1.3"/>
	<g>
		<polygon class="st5" points="27,8.4 23.1,6 27,3.5 17.8,3.5 17.8,8.4 		"/>
		<polygon class="st5" points="27,15.9 23.1,13.4 27,10.9 17.8,10.9 17.8,15.9 		"/>
		<polygon class="st5" points="27,23.3 23.1,20.9 27,18.4 17.8,18.4 17.8,23.3 		"/>
	</g>
</g>
</svg>
