<?xml version="1.0" encoding="utf-8"?>
<!-- Generator: Adobe Illustrator 22.0.1, SVG Export Plug-In . SVG Version: 6.00 Build 0)  -->
<svg version="1.1" id="Layer_1" xmlns="http://www.w3.org/2000/svg" xmlns:xlink="http://www.w3.org/1999/xlink" x="0px" y="0px"
	 width="22px" height="19.1px" viewBox="0 0 22 19.1" style="enable-background:new 0 0 22 19.1;" xml:space="preserve">
<style type="text/css">
	.st0{clip-path:url(#SVGID_1_);}
	.st1{fill:#161616;}
	.st2{fill:#FFFFFF;}
	.st3{clip-path:url(#SVGID_2_);}
	.st4{fill:#FFB3BA;}
	.st5{clip-path:url(#SVGID_3_);}
	.st6{clip-path:url(#SVGID_4_);}
</style>
<title>icon_cntrlnvgtn_B3</title>
<g>
	<g>
		<defs>
			<path id="SVGID_795_" d="M0.8,0.4c-0.2,0-0.4,0.2-0.4,0.4c0,0,0,0,0,0v13.9c0,0.2,0.2,0.4,0.4,0.4c0,0,0,0,0,0H9
				c0.2,0,0.3,0.1,0.3,0.3V17c0,0.2-0.1,0.3-0.3,0.3H7.8c-0.2,0-0.3,0.1-0.3,0.3v0.8c0,0.2,0.1,0.3,0.3,0.3h6.5
				c0.2,0,0.3-0.1,0.3-0.3v-0.8c0-0.2-0.1-0.3-0.3-0.3H13c-0.2,0-0.3-0.1-0.3-0.3v-1.7c0-0.2,0.1-0.3,0.3-0.3h8.2
				c0.2,0,0.4-0.2,0.4-0.4c0,0,0,0,0,0V0.8c0-0.2-0.2-0.4-0.4-0.4c0,0,0,0,0,0H0.8z"/>
		</defs>
		<use xlink:href="#SVGID_795_"  style="overflow:visible;fill:#161616;"/>
		<clipPath id="SVGID_1_">
			<use xlink:href="#SVGID_795_"  style="overflow:visible;"/>
		</clipPath>
		<g class="st0">
			<rect x="0.4" y="0.4" class="st1" width="21.2" height="18.4"/>
		</g>
	</g>
	<path class="st2" d="M1.9,1.9h18.3v11.6h-18c-0.2,0-0.3-0.1-0.3-0.3V1.9z"/>
	<g>
		<defs>
			<rect id="SVGID_794_" x="1.9" y="2.8" width="3.4" height="1.4"/>
		</defs>
		<use xlink:href="#SVGID_794_"  style="overflow:visible;fill:#FFB3BA;"/>
		<clipPath id="SVGID_2_">
			<use xlink:href="#SVGID_794_"  style="overflow:visible;"/>
		</clipPath>
		<g class="st3">
			<path class="st4" d="M2.2,2.8h2.7c0.2,0,0.4,0.2,0.4,0.4v0.7c0,0.2-0.2,0.4-0.4,0.4H2.2C2,4.3,1.9,4.1,1.9,3.9V3.2
				C1.9,3,2,2.8,2.2,2.8z"/>
		</g>
	</g>
	<g>
		<defs>
			<rect id="SVGID_793_" x="6.2" y="2.8" width="3.4" height="1.4"/>
		</defs>
		<use xlink:href="#SVGID_793_"  style="overflow:visible;fill:#FFB3BA;"/>
		<clipPath id="SVGID_3_">
			<use xlink:href="#SVGID_793_"  style="overflow:visible;"/>
		</clipPath>
		<g class="st5">
			<path class="st4" d="M6.5,2.8h2.7c0.2,0,0.4,0.2,0.4,0.4v0.7c0,0.2-0.2,0.4-0.4,0.4H6.5c-0.2,0-0.4-0.2-0.4-0.4V3.2
				C6.2,3,6.3,2.8,6.5,2.8z"/>
		</g>
	</g>
	<g>
		<defs>
			<rect id="SVGID_792_" x="10.5" y="2.8" width="3.4" height="1.4"/>
		</defs>
		<use xlink:href="#SVGID_792_"  style="overflow:visible;fill:#FFB3BA;"/>
		<clipPath id="SVGID_4_">
			<use xlink:href="#SVGID_792_"  style="overflow:visible;"/>
		</clipPath>
		<g class="st6">
			<path class="st4" d="M10.9,2.8h2.7c0.2,0,0.4,0.2,0.4,0.4v0.7c0,0.2-0.2,0.4-0.4,0.4h-2.7c-0.2,0-0.4-0.2-0.4-0.4V3.2
				C10.5,3,10.7,2.8,10.9,2.8z"/>
		</g>
	</g>
</g>
</svg>
