<?xml version="1.0" encoding="utf-8"?>
<!-- Generator: Adobe Illustrator 22.0.1, SVG Export Plug-In . SVG Version: 6.00 Build 0)  -->
<svg version="1.1" id="Layer_1" xmlns="http://www.w3.org/2000/svg" xmlns:xlink="http://www.w3.org/1999/xlink" x="0px" y="0px"
	 width="32px" height="32px" viewBox="0 0 32 32" style="enable-background:new 0 0 32 32;" xml:space="preserve">
<style type="text/css">
	
		.st0{clip-path:url(#SVGID_1_);fill:none;stroke:#161616;stroke-width:0.75;stroke-linecap:round;stroke-linejoin:round;stroke-miterlimit:10;}
	
		.st1{clip-path:url(#SVGID_2_);fill:none;stroke:#161616;stroke-width:0.75;stroke-linecap:round;stroke-linejoin:round;stroke-miterlimit:10;}
	
		.st2{clip-path:url(#SVGID_3_);fill:none;stroke:#161616;stroke-width:0.75;stroke-linecap:round;stroke-linejoin:round;stroke-miterlimit:10;}
	
		.st3{clip-path:url(#SVGID_4_);fill:none;stroke:#161616;stroke-width:0.75;stroke-linecap:round;stroke-linejoin:round;stroke-miterlimit:10;}
	
		.st4{clip-path:url(#SVGID_5_);fill:none;stroke:#161616;stroke-width:0.75;stroke-linecap:round;stroke-linejoin:round;stroke-miterlimit:10;}
	
		.st5{clip-path:url(#SVGID_6_);fill:none;stroke:#161616;stroke-width:0.75;stroke-linecap:round;stroke-linejoin:round;stroke-miterlimit:10;}
</style>
<g>
	<g>
		<g>
			<defs>
				<path id="SVGID_731_" d="M3.2,2.5c0,0-0.5,0-0.5,0.5v8c0,0,0,0.5,0.5,0.5h12.5c0,0,0.5,0,0.5-0.5V3c0,0,0-0.5-0.5-0.5H3.2z"/>
			</defs>
			<use xlink:href="#SVGID_731_"  style="overflow:visible;fill:#F2F2F2;"/>
			<clipPath id="SVGID_1_">
				<use xlink:href="#SVGID_731_"  style="overflow:visible;"/>
			</clipPath>
			<rect x="2.8" y="2.5" class="st0" width="13.5" height="9"/>
			
				<use xlink:href="#SVGID_731_"  style="overflow:visible;fill:none;stroke:#161616;stroke-width:0.75;stroke-linecap:round;stroke-linejoin:round;stroke-miterlimit:10;"/>
		</g>
	</g>
	<g>
		<g>
			<defs>
				<polygon id="SVGID_730_" points="4.2,11.5 2,14.5 17,14.5 14.8,11.5 				"/>
			</defs>
			<use xlink:href="#SVGID_730_"  style="overflow:visible;fill:#BAE1FF;"/>
			<clipPath id="SVGID_2_">
				<use xlink:href="#SVGID_730_"  style="overflow:visible;"/>
			</clipPath>
			<rect x="2" y="11.5" class="st1" width="15" height="3"/>
			
				<use xlink:href="#SVGID_730_"  style="overflow:visible;fill:none;stroke:#161616;stroke-width:0.75;stroke-linecap:round;stroke-linejoin:round;stroke-miterlimit:10;"/>
		</g>
	</g>
	<g>
		<g>
			<defs>
				<path id="SVGID_729_" d="M16.2,17.5c0,0-0.5,0-0.5,0.5v8c0,0,0,0.5,0.5,0.5h12.5c0,0,0.5,0,0.5-0.5v-8c0,0,0-0.5-0.5-0.5H16.2z"
					/>
			</defs>
			<use xlink:href="#SVGID_729_"  style="overflow:visible;fill:#F2F2F2;"/>
			<clipPath id="SVGID_3_">
				<use xlink:href="#SVGID_729_"  style="overflow:visible;"/>
			</clipPath>
			<rect x="15.8" y="17.5" class="st2" width="13.5" height="9"/>
			
				<use xlink:href="#SVGID_729_"  style="overflow:visible;fill:none;stroke:#161616;stroke-width:0.75;stroke-linecap:round;stroke-linejoin:round;stroke-miterlimit:10;"/>
		</g>
	</g>
	<g>
		<g>
			<defs>
				<polygon id="SVGID_728_" points="17.2,26.5 15,29.5 30,29.5 27.8,26.5 				"/>
			</defs>
			<use xlink:href="#SVGID_728_"  style="overflow:visible;fill:#BAE1FF;"/>
			<clipPath id="SVGID_4_">
				<use xlink:href="#SVGID_728_"  style="overflow:visible;"/>
			</clipPath>
			<rect x="15" y="26.5" class="st3" width="15" height="3"/>
			
				<use xlink:href="#SVGID_728_"  style="overflow:visible;fill:none;stroke:#161616;stroke-width:0.75;stroke-linecap:round;stroke-linejoin:round;stroke-miterlimit:10;"/>
		</g>
	</g>
	<g>
		<g>
			<defs>
				<polygon id="SVGID_727_" points="5.5,21 5.5,24 9.5,24 9.5,27 13.5,22.5 9.5,18 9.5,21 				"/>
			</defs>
			<use xlink:href="#SVGID_727_"  style="overflow:visible;fill:#FFB3BA;"/>
			<clipPath id="SVGID_5_">
				<use xlink:href="#SVGID_727_"  style="overflow:visible;"/>
			</clipPath>
			<rect x="5.5" y="18" class="st4" width="8" height="9"/>
			
				<use xlink:href="#SVGID_727_"  style="overflow:visible;fill:none;stroke:#161616;stroke-width:0.75;stroke-linecap:round;stroke-linejoin:round;stroke-miterlimit:10;"/>
		</g>
	</g>
	<g>
		<g>
			<defs>
				<polygon id="SVGID_726_" points="22.5,13 22.5,10 26.5,10 26.5,7 22.5,7 22.5,4 18.5,8.5 				"/>
			</defs>
			<use xlink:href="#SVGID_726_"  style="overflow:visible;fill:#FFB3BA;"/>
			<clipPath id="SVGID_6_">
				<use xlink:href="#SVGID_726_"  style="overflow:visible;"/>
			</clipPath>
			<rect x="18.5" y="4" class="st5" width="8" height="9"/>
			
				<use xlink:href="#SVGID_726_"  style="overflow:visible;fill:none;stroke:#161616;stroke-width:0.75;stroke-linecap:round;stroke-linejoin:round;stroke-miterlimit:10;"/>
		</g>
	</g>
</g>
</svg>
