<?xml version="1.0" encoding="utf-8"?>
<!-- Generator: Adobe Illustrator 22.0.1, SVG Export Plug-In . SVG Version: 6.00 Build 0)  -->
<svg version="1.1" id="Layer_1" xmlns="http://www.w3.org/2000/svg" xmlns:xlink="http://www.w3.org/1999/xlink" x="0px" y="0px"
	 width="32px" height="32px" viewBox="0 0 32 32" style="enable-background:new 0 0 32 32;" xml:space="preserve">
<style type="text/css">
	.st0{clip-path:url(#SVGID_1_);fill:#161616;}
	.st1{fill:none;}
	.st2{fill:#FFFFFF;}
</style>
<g>
	<g>
		<g>
			<defs>
				<circle id="SVGID_701_" cx="16" cy="16" r="14"/>
			</defs>
			<use xlink:href="#SVGID_701_"  style="overflow:visible;fill:#161616;"/>
			<clipPath id="SVGID_1_">
				<use xlink:href="#SVGID_701_"  style="overflow:visible;"/>
			</clipPath>
			<rect x="2" y="2" class="st0" width="28" height="28"/>
		</g>
	</g>
	<rect id="SVGID_700_" x="2" y="2" class="st1" width="28" height="28"/>
	<g>
		<path class="st2" d="M10.4,12.1c0-0.7,0.2-1.4,0.7-2.2c0.5-0.7,1.1-1.3,2-1.8C14,7.7,15,7.5,16.2,7.5c1.1,0,2,0.2,2.9,0.6
			S20.5,9,21,9.7c0.5,0.7,0.7,1.4,0.7,2.2c0,0.6-0.1,1.2-0.4,1.7s-0.6,0.9-0.9,1.2c-0.4,0.3-1,0.9-1.9,1.8c-0.3,0.2-0.5,0.4-0.6,0.6
			c-0.2,0.2-0.3,0.3-0.3,0.5c-0.1,0.1-0.1,0.3-0.2,0.4c0,0.1-0.1,0.4-0.2,0.8C17,19.7,16.5,20,15.8,20c-0.4,0-0.7-0.1-1-0.4
			s-0.4-0.6-0.4-1.1c0-0.6,0.1-1.2,0.3-1.6c0.2-0.5,0.5-0.9,0.8-1.2s0.8-0.8,1.3-1.2c0.5-0.4,0.8-0.7,1-0.9s0.4-0.5,0.5-0.7
			c0.1-0.3,0.2-0.5,0.2-0.9c0-0.6-0.2-1.1-0.7-1.5s-1-0.6-1.7-0.6c-0.8,0-1.4,0.2-1.8,0.6c-0.4,0.4-0.7,1-1,1.8
			c-0.3,0.8-0.7,1.3-1.4,1.3c-0.4,0-0.8-0.1-1.1-0.4C10.6,12.8,10.4,12.5,10.4,12.1z M15.9,24.4c-0.5,0-0.9-0.1-1.2-0.4
			c-0.3-0.3-0.5-0.7-0.5-1.2c0-0.5,0.2-0.9,0.5-1.2c0.3-0.3,0.7-0.5,1.2-0.5c0.5,0,0.9,0.2,1.2,0.5c0.3,0.3,0.5,0.7,0.5,1.2
			c0,0.5-0.2,0.9-0.5,1.2C16.7,24.3,16.3,24.4,15.9,24.4z"/>
	</g>
</g>
</svg>
