<?xml version="1.0" encoding="utf-8"?>
<!-- Generator: Adobe Illustrator 22.0.1, SVG Export Plug-In . SVG Version: 6.00 Build 0)  -->
<svg version="1.1" id="cat-pg" xmlns="http://www.w3.org/2000/svg" xmlns:xlink="http://www.w3.org/1999/xlink" x="0px" y="0px"
	 width="32px" height="32px" viewBox="0 0 32 32" style="enable-background:new 0 0 32 32;" xml:space="preserve">
<style type="text/css">
	.st0{fill:none;stroke:#000000;stroke-width:0.75;stroke-linecap:round;stroke-linejoin:round;stroke-miterlimit:10;}
</style>
<title>icon_root</title>
<path class="st0" d="M23.6,27.8h-8.4L5.9,16.7c-0.3,0.7-1,1.1-1.7,1.3l8.3,9.9H6.9c-1.4,0,0,3.2,0,3.2h16.7
	C23.6,31,25,27.8,23.6,27.8z"/>
<g>
	<g>
		<g>
			<path id="SVGID_759_" class="st0" d="M2.3,15.7c0,0.9,0.7,1.6,1.6,1.6c0.9,0,1.6-0.7,1.6-1.6c0-0.9-0.7-1.6-1.6-1.6
				C3,14.1,2.3,14.8,2.3,15.7"/>
		</g>
	</g>
</g>
<path class="st0" d="M21.6,2.5c-2.4,0-4.5,0.9-4.5,0.9L14.2,1c0,0-0.4-0.3-0.9-0.3c-0.4,0-0.8,0.1-1.2,0.6c-0.9,1.2-2,2.5-2,2.5
	S9,5.1,10,6c0.3,0.2,0.5,0.4,0.7,0.7l-6.5,6.8c0.8,0.1,1.4,0.6,1.7,1.3l6.4-6.7c0.2,0.2,0.3,0.2,0.3,0.2s-0.1,1.7,0.3,4
	c0.5,2.3,1.7,3.9,1.7,3.9s1.2,1,2.1-0.1c0.9-1.1,8.7-10.4,9-11.2C25.9,4,24,2.5,21.6,2.5z"/>
<g>
	<line class="st0" x1="21.6" y1="13.6" x2="23.5" y2="18.4"/>
	<line class="st0" x1="23.1" y1="11.6" x2="26.6" y2="14.4"/>
	<line class="st0" x1="24.7" y1="9.6" x2="29.7" y2="10.4"/>
</g>
</svg>
