<?xml version="1.0" encoding="utf-8"?>
<!-- Generator: Adobe Illustrator 22.0.1, SVG Export Plug-In . SVG Version: 6.00 Build 0)  -->
<svg version="1.1" id="Layer_1" xmlns="http://www.w3.org/2000/svg" xmlns:xlink="http://www.w3.org/1999/xlink" x="0px" y="0px"
	 width="32px" height="32px" viewBox="0 0 32 32" style="enable-background:new 0 0 32 32;" xml:space="preserve">
<style type="text/css">
	.st0{fill:#BAE1FF;stroke:#161616;stroke-width:0.75;stroke-linecap:round;stroke-linejoin:round;stroke-miterlimit:10;}
	.st1{fill:#F2F2F2;stroke:#161616;stroke-width:0.75;stroke-linecap:round;stroke-linejoin:round;stroke-miterlimit:10;}
	
		.st2{clip-path:url(#SVGID_1_);fill:none;stroke:#0E2F6E;stroke-width:0.75;stroke-linecap:round;stroke-linejoin:round;stroke-miterlimit:10;}
	.st3{clip-path:url(#SVGID_2_);fill:#161616;}
	.st4{clip-path:url(#SVGID_3_);fill:#161616;}
</style>
<g>
	<rect x="-0.3" y="-0.3" class="st0" width="32.6" height="32.6"/>
	<g>
		<path id="SVGID_751_" class="st1" d="M16,18.6c-1.4,0-2.6-0.5-3.5-1.1c-2.1,1-3.5,2.6-3.5,4.6v7.4h14v-7.4c0-1.9-1.4-3.6-3.5-4.5
			C18.6,18.1,17.4,18.6,16,18.6"/>
		<g>
			<g>
				<defs>
					<path id="SVGID_750_" d="M11.2,11.1c0,2.9,2.2,5.2,4.8,5.2s4.8-2.4,4.8-5.2S18.7,5.9,16,5.9S11.2,8.2,11.2,11.1"/>
				</defs>
				<use xlink:href="#SVGID_750_"  style="overflow:visible;fill:#F2F2F2;"/>
				<clipPath id="SVGID_1_">
					<use xlink:href="#SVGID_750_"  style="overflow:visible;"/>
				</clipPath>
				<rect x="11.2" y="5.9" class="st2" width="9.6" height="10.5"/>
				
					<use xlink:href="#SVGID_750_"  style="overflow:visible;fill:none;stroke:#161616;stroke-width:0.75;stroke-linecap:round;stroke-linejoin:round;stroke-miterlimit:10;"/>
			</g>
		</g>
		<g>
			<g>
				<defs>
					<rect id="SVGID_749_" x="8.5" y="2.5" width="15" height="27"/>
				</defs>
				<clipPath id="SVGID_2_">
					<use xlink:href="#SVGID_749_"  style="overflow:visible;"/>
				</clipPath>
				<path class="st3" d="M21.1,9.3V5.9c0-2.3-2.3-3.4-5.1-3.4s-5.1,1.1-5.1,3.4v3.4H21.1z"/>
			</g>
			<g>
				<defs>
					<rect id="SVGID_748_" x="8.5" y="2.5" width="15" height="27"/>
				</defs>
				<clipPath id="SVGID_3_">
					<use xlink:href="#SVGID_748_"  style="overflow:visible;"/>
				</clipPath>
				<path class="st4" d="M23.5,9.2c0-0.5-0.3-0.9-0.8-0.9H9.2c-0.4,0-0.8,0.4-0.8,0.9s0.3,0.9,0.8,0.9h13.5
					C23.2,10,23.5,9.6,23.5,9.2"/>
			</g>
		</g>
	</g>
</g>
</svg>
