<?xml version="1.0" encoding="utf-8"?>
<!-- Generator: Adobe Illustrator 22.0.1, SVG Export Plug-In . SVG Version: 6.00 Build 0)  -->
<svg version="1.1" xmlns="http://www.w3.org/2000/svg" xmlns:xlink="http://www.w3.org/1999/xlink" x="0px" y="0px" width="32px"
	 height="32px" viewBox="0 0 32 32" style="enable-background:new 0 0 32 32;" xml:space="preserve">
<style type="text/css">
	.st0{fill:#F2F2F2;stroke:#161616;stroke-width:0.75;stroke-linecap:round;stroke-linejoin:round;stroke-miterlimit:10;}
	.st1{fill:#161616;stroke:#161616;stroke-width:0.75;stroke-linecap:round;stroke-linejoin:round;stroke-miterlimit:10;}
	.st2{fill:#BAE1FF;stroke:#161616;stroke-width:0.75;stroke-linecap:round;stroke-linejoin:round;stroke-miterlimit:10;}
	.st3{fill:#0E2F6E;}
</style>
<g id="Ebene_2">
</g>
<g id="Layer_1">
	<g>
		<rect x="5.3" y="22.9" class="st0" width="2.9" height="2.9"/>
		<rect x="5.3" y="16.9" class="st0" width="2.9" height="2.9"/>
		<rect x="5.3" y="10.9" class="st0" width="2.9" height="2.9"/>
		<polygon class="st0" points="21.6,5.4 26.7,5.4 26.7,22 22.1,26.6 10.2,26.6 10.2,5.4 15.3,5.4 		"/>
		<polygon class="st1" points="26.4,21.9 22,21.9 22,26.2 		"/>
		<rect x="10.2" y="5.4" class="st2" width="16.6" height="3.1"/>
		<g>
			<path class="st3" d="M20.5,13h-2.9l-0.3,2c0.6-0.3,1.1-0.5,1.6-0.5c0.4,0,0.8,0.1,1.1,0.2c0.3,0.1,0.6,0.3,0.9,0.6
				c0.3,0.3,0.5,0.6,0.6,0.9c0.1,0.4,0.2,0.7,0.2,1.1c0,0.6-0.1,1.1-0.4,1.6c-0.3,0.5-0.6,0.9-1.1,1.1c-0.5,0.3-1.1,0.4-1.7,0.4
				c-0.7,0-1.3-0.1-1.8-0.4c-0.5-0.3-0.8-0.6-1-0.9c-0.2-0.3-0.3-0.6-0.3-0.9c0-0.2,0.1-0.3,0.2-0.4c0.1-0.1,0.3-0.2,0.5-0.2
				c0.3,0,0.6,0.2,0.8,0.6c0.2,0.4,0.4,0.6,0.7,0.8c0.3,0.2,0.6,0.3,0.9,0.3c0.3,0,0.6-0.1,0.8-0.2c0.2-0.2,0.4-0.4,0.5-0.7
				c0.1-0.3,0.2-0.6,0.2-1c0-0.4-0.1-0.7-0.2-1s-0.3-0.5-0.6-0.6c-0.2-0.1-0.5-0.2-0.8-0.2c-0.3,0-0.6,0-0.7,0.1
				c-0.2,0.1-0.4,0.2-0.6,0.4c-0.3,0.2-0.5,0.3-0.7,0.3c-0.2,0-0.4-0.1-0.5-0.2s-0.2-0.3-0.2-0.5c0,0,0-0.2,0.1-0.4l0.5-2.9
				c0.1-0.3,0.2-0.6,0.3-0.8s0.4-0.2,0.8-0.2h3.2c0.6,0,0.9,0.2,0.9,0.7c0,0.2-0.1,0.4-0.2,0.5C21,12.9,20.8,13,20.5,13z"/>
		</g>
	</g>
</g>
</svg>
