<?xml version="1.0" encoding="utf-8"?>
<!-- Generator: Adobe Illustrator 26.1.0, SVG Export Plug-In . SVG Version: 6.00 Build 0)  -->
<svg version="1.1" id="cat-pg" xmlns="http://www.w3.org/2000/svg" xmlns:xlink="http://www.w3.org/1999/xlink" x="0px" y="0px"
	 viewBox="0 0 32 32" style="enable-background:new 0 0 32 32;" xml:space="preserve">
<style type="text/css">
	.st0{fill:#1D1D1B;}
</style>
<g>
	<path class="st0" d="M26.7,16c0,5.9-4.7,10.7-10.7,10.7S5.4,21.9,5.4,16S10.1,5.3,16,5.3S26.7,10.1,26.7,16z M16,2.5
		C8.6,2.5,2.5,8.6,2.5,16S8.6,29.5,16,29.5S29.5,23.4,29.5,16S23.4,2.5,16,2.5z"/>
</g>
<g>
	<circle class="st0" cx="16" cy="10" r="1.6"/>
	<path class="st0" d="M16.1,23.6h-0.2c-0.6,0-1.1-0.5-1.1-1.1v-8c0-0.6,0.5-1.1,1.1-1.1h0.2c0.6,0,1.1,0.5,1.1,1.1v8
		C17.2,23,16.7,23.6,16.1,23.6z"/>
</g>
</svg>
