<?xml version="1.0" encoding="utf-8"?>
<!-- Generator: Adobe Illustrator 22.0.1, SVG Export Plug-In . SVG Version: 6.00 Build 0)  -->
<svg version="1.1" id="Layer_1" xmlns="http://www.w3.org/2000/svg" xmlns:xlink="http://www.w3.org/1999/xlink" x="0px" y="0px"
	 width="32px" height="32px" viewBox="0 0 32 32" style="enable-background:new 0 0 32 32;" xml:space="preserve">
<style type="text/css">
	.st0{fill:#BAE1FF;}
	
		.st1{clip-path:url(#SVGID_1_);fill:none;stroke:#0E2F6E;stroke-width:0.75;stroke-linecap:round;stroke-linejoin:round;stroke-miterlimit:10;}
	.st2{fill:#0E2F6E;}
</style>
<g>
	<rect id="SVGID_775_" x="2" y="2" class="st0" width="28" height="28"/>
	<g>
		<g>
			<defs>
				<rect id="SVGID_772_" x="2" y="2" width="28" height="28"/>
			</defs>
			<clipPath id="SVGID_1_">
				<use xlink:href="#SVGID_772_"  style="overflow:visible;"/>
			</clipPath>
			<rect x="2" y="2" class="st1" width="28" height="28"/>
			
				<use xlink:href="#SVGID_772_"  style="overflow:visible;fill:none;stroke:#161616;stroke-width:0.75;stroke-linecap:round;stroke-linejoin:round;stroke-miterlimit:10;"/>
		</g>
	</g>
	<g>
		<path class="st2" d="M11.8,10.3c0-0.6,0.2-1.1,0.5-1.6c0.3-0.5,0.8-0.9,1.4-1.2s1.3-0.4,2.2-0.4c0.6,0,1.2,0.1,1.7,0.2
			s1,0.4,1.4,0.7c0.4,0.3,0.7,0.6,0.9,0.9c0.2,0.3,0.3,0.7,0.3,1c0,0.3-0.1,0.5-0.3,0.7s-0.5,0.3-0.8,0.3c-0.3,0-0.5-0.1-0.6-0.2
			c-0.2-0.1-0.4-0.4-0.6-0.7c-0.3-0.3-0.5-0.6-0.8-0.7C16.8,9.1,16.4,9,16,9c-0.5,0-0.9,0.1-1.2,0.4c-0.3,0.2-0.4,0.5-0.4,0.8
			c0,0.3,0.1,0.6,0.4,0.8c0.2,0.2,0.7,0.5,1.3,0.8s1,0.5,1.2,0.7c0.6,0.3,1.1,0.6,1.5,0.9c0.4,0.3,0.8,0.5,1.2,0.8
			c0.4,0.3,0.7,0.7,0.9,1.1c0.2,0.4,0.3,0.9,0.3,1.4c0,0.6-0.2,1.1-0.5,1.6s-0.8,0.9-1.4,1.3c0.9,0.7,1.3,1.6,1.3,2.5
			c0,0.5-0.1,0.9-0.3,1.3c-0.2,0.4-0.5,0.8-0.9,1.1c-0.4,0.3-0.8,0.6-1.3,0.7c-0.5,0.2-1.1,0.3-1.7,0.3c-0.7,0-1.4-0.1-2-0.3
			c-0.6-0.2-1.1-0.5-1.5-0.8c-0.4-0.4-0.7-0.7-0.9-1.1c-0.2-0.4-0.3-0.8-0.3-1.1c0-0.3,0.1-0.6,0.3-0.8c0.2-0.2,0.5-0.4,0.9-0.4
			c0.1,0,0.3,0,0.4,0.1c0.1,0.1,0.2,0.1,0.3,0.2c0.3,0.4,0.5,0.8,0.7,1.1c0.4,0.9,1,1.3,2,1.3c0.5,0,0.9-0.1,1.3-0.4s0.5-0.6,0.5-1
			c0-0.3-0.1-0.5-0.3-0.7c-0.2-0.2-0.4-0.4-0.8-0.7s-0.8-0.6-1.5-1c-0.7-0.4-1.4-0.9-2.1-1.3c-0.3-0.2-0.5-0.4-0.8-0.6
			c-0.3-0.2-0.5-0.4-0.8-0.7c-0.2-0.2-0.4-0.5-0.5-0.8c-0.1-0.3-0.2-0.7-0.2-1.1c0-1.2,0.7-2.1,2-2.8C12.2,11.9,11.8,11.1,11.8,10.3
			z M14.2,13.6c-0.7,0.5-1.1,1-1.1,1.5c0,0.3,0.1,0.5,0.3,0.7c0.2,0.2,0.4,0.4,0.8,0.6c0.3,0.2,0.8,0.5,1.5,0.9
			c0.2,0.1,0.5,0.3,0.8,0.5c0.3,0.2,0.7,0.4,1,0.6c0.8-0.5,1.1-1,1.1-1.5c0-0.2-0.1-0.4-0.2-0.6c-0.1-0.2-0.3-0.4-0.5-0.6
			s-0.5-0.4-0.9-0.6c-0.3-0.2-0.8-0.5-1.3-0.8c-0.4-0.2-0.8-0.4-1-0.6C14.5,13.8,14.4,13.7,14.2,13.6z"/>
	</g>
</g>
</svg>
