<?xml version="1.0" encoding="utf-8"?>
<!-- Generator: Adobe Illustrator 22.0.1, SVG Export Plug-In . SVG Version: 6.00 Build 0)  -->
<svg version="1.1" id="Layer_1" xmlns="http://www.w3.org/2000/svg" xmlns:xlink="http://www.w3.org/1999/xlink" x="0px" y="0px"
	 width="32px" height="32px" viewBox="0 0 32 32" style="enable-background:new 0 0 32 32;" xml:space="preserve">
<style type="text/css">
	.st0{fill:#F2F2F2;stroke:#161616;stroke-width:0.75;stroke-linecap:round;stroke-linejoin:round;stroke-miterlimit:10;}
	.st1{fill:#161616;stroke:#161616;stroke-width:0.75;stroke-linecap:round;stroke-linejoin:round;stroke-miterlimit:10;}
	.st2{fill:#BAE1FF;stroke:#161616;stroke-width:0.75;stroke-linecap:round;stroke-linejoin:round;stroke-miterlimit:10;}
</style>
<g>
	<polygon class="st0" points="10,27.9 4.8,27.9 4.8,11.3 9.4,6.7 21.4,6.7 21.4,27.9 16.2,27.9 	"/>
	<polygon class="st1" points="5.1,11.4 9.5,11.4 9.5,7.1 	"/>
	<path class="st2" d="M16.3,8.2c0,0-0.6-4.1,3.9-4.2c0,0,2.6-0.1,3.3,3.4c0,0,4.1-1,3.7,3.2c0,0-0.3,2.1-1.9,2.4l-10.5,0.1
		c0,0-2.1-0.1-2.3-2.6C12.5,10.5,12.7,7.2,16.3,8.2z"/>
</g>
</svg>
