<?xml version="1.0" encoding="utf-8"?>
<!-- Generator: Adobe Illustrator 22.0.1, SVG Export Plug-In . SVG Version: 6.00 Build 0)  -->
<svg version="1.1" xmlns="http://www.w3.org/2000/svg" xmlns:xlink="http://www.w3.org/1999/xlink" x="0px" y="0px" width="32px"
	 height="32px" viewBox="0 0 32 32" style="enable-background:new 0 0 32 32;" xml:space="preserve">
<style type="text/css">
	.st0{fill:#FFB3BA;stroke:#161616;stroke-width:0.75;stroke-linecap:round;stroke-linejoin:round;stroke-miterlimit:10;}
	.st1{fill:none;stroke:#161616;stroke-width:0.75;stroke-linecap:round;stroke-linejoin:round;stroke-miterlimit:10;}
	.st2{fill:#161616;stroke:#161616;stroke-width:0.75;stroke-linecap:round;stroke-linejoin:round;stroke-miterlimit:10;}
</style>
<g id="Ebene_2">
</g>
<g id="Layer_1">
	<g>
		<path class="st0" d="M20.6,25.5l-2.8,0v-5.8c0-0.2-0.1-0.3-0.3-0.3h-3.1c-0.2,0-0.3,0.1-0.3,0.3v5.8l-2.8,0
			c-0.3,0-0.5,0.4-0.2,0.7l4.6,3.9c0.1,0.1,0.3,0.1,0.5,0l4.6-4C21.1,26,20.9,25.5,20.6,25.5z"/>
		<g>
			<polyline class="st1" points="11.9,23 7.7,23 7.7,6.4 12.4,1.7 24.3,1.7 24.3,23 20.2,23 			"/>
			<polygon class="st2" points="7.7,6.4 12.3,6.4 12.4,1.7 			"/>
		</g>
	</g>
</g>
</svg>
