<?xml version="1.0" encoding="utf-8"?>
<!-- Generator: Adobe Illustrator 22.0.1, SVG Export Plug-In . SVG Version: 6.00 Build 0)  -->
<svg version="1.1" xmlns="http://www.w3.org/2000/svg" xmlns:xlink="http://www.w3.org/1999/xlink" x="0px" y="0px" width="32px"
	 height="32px" viewBox="0 0 32 32" style="enable-background:new 0 0 32 32;" xml:space="preserve">
<style type="text/css">
	.st0{fill:none;}
	.st1{fill:#FFFFBA;stroke:#161616;stroke-width:0.75;stroke-linecap:round;stroke-linejoin:round;stroke-miterlimit:10;}
</style>
<g id="Ebene_2">
</g>
<g id="Layer_1">
	<rect class="st0" width="32" height="32"/>
	<path class="st1" d="M13.7,22.8c-0.1-0.1-0.2-0.3-0.3-0.4c-0.9-0.7-1-1.7-1-1.7c0-2.3,2.7-2,2.7-2c2.7,0.3,2.5,2,2.5,2
		c-0.1,1.1-1.2,1.9-1.2,1.9c-0.2,0.2-0.4,0.5-0.1,0.9c0.2,0.3,0.8,0.3,0.8,0.3l7.3,0l0-7.2c0,0,0-0.6,0.3-0.8
		c0.4-0.2,0.7-0.1,0.9,0.1c0,0,0.8,1.1,1.9,1.2c0,0,1.7,0.2,2-2.5c0,0,0.3-2.7-2-2.7c0,0-1,0-1.7,1c-0.1,0.1-0.2,0.2-0.4,0.3
		c0,0-0.9,0.5-1-0.7l0-4.2l-7.4,0c-1.4,0.2-0.4,1.1-0.4,1.1s0.8,0.7,1.1,1.3c0.8,2.2-2.1,2.6-2.1,2.6c-2.2,0.4-2.9-1.4-2.9-1.4
		c-0.5-1.1,0.6-1.9,0.6-1.9c0.4-0.3,0.7-0.8,0.7-0.8C14.1,8.3,13,8.3,13,8.3l-5.2,0l0,4.2c0,0,0,1.2-0.9,0.8c0,0-0.4-0.3-0.8-0.7
		c0,0-0.8-1-1.9-0.6c0,0-1.8,0.7-1.4,2.9c0,0,0.4,2.9,2.6,2.1C5.9,16.8,6.6,16,6.6,16s0.9-1,1.1,0.4l0,7.4l5.2,0
		C14.2,23.6,13.7,22.8,13.7,22.8z"/>
</g>
</svg>
