<?xml version="1.0" encoding="utf-8"?>
<!-- Generator: Adobe Illustrator 22.0.1, SVG Export Plug-In . SVG Version: 6.00 Build 0)  -->
<svg version="1.1" xmlns="http://www.w3.org/2000/svg" xmlns:xlink="http://www.w3.org/1999/xlink" x="0px" y="0px" width="32px"
	 height="32px" viewBox="0 0 32 32" style="enable-background:new 0 0 32 32;" xml:space="preserve">
<style type="text/css">
	.st0{clip-path:url(#SVGID_1_);fill:none;stroke:#161616;stroke-width:0.75;stroke-miterlimit:10;}
	.st1{fill:#0E2F6E;}
	.st2{fill:#161616;}
</style>
<g id="Ebene_2">
</g>
<g id="Layer_1">
	<g>
		<g>
			<g>
				<g>
					<defs>
						<path id="SVGID_707_" d="M7.1,4c0,0-0.5,0-0.5,0.5v23c0,0,0,0.5,0.5,0.5h8c0,0,0.5,0,0.5-0.5v-23c0,0,0-0.5-0.5-0.5H7.1z"/>
					</defs>
					<use xlink:href="#SVGID_707_"  style="overflow:visible;fill:#DFDCF2;"/>
					<clipPath id="SVGID_1_">
						<use xlink:href="#SVGID_707_"  style="overflow:visible;"/>
					</clipPath>
					<rect x="6.6" y="4" class="st0" width="9" height="24"/>
					<use xlink:href="#SVGID_707_"  style="overflow:visible;fill:none;stroke:#161616;stroke-width:0.75;stroke-miterlimit:10;"/>
				</g>
			</g>
		</g>
		<rect x="8.9" y="7" class="st1" width="4.5" height="1.5"/>
		<rect x="8.9" y="10" class="st1" width="4.5" height="1.5"/>
		<g>
			<path class="st2" d="M23.8,12.3l-0.3-0.9h-3l-0.3,0.9c-0.1,0.4-0.3,0.6-0.3,0.7c-0.1,0.1-0.3,0.2-0.5,0.2c-0.2,0-0.3-0.1-0.5-0.2
				s-0.2-0.3-0.2-0.5c0-0.1,0-0.2,0-0.3s0.1-0.3,0.2-0.4l1.9-4.7c0.1-0.1,0.1-0.3,0.2-0.5c0.1-0.2,0.2-0.3,0.2-0.5
				c0.1-0.1,0.2-0.2,0.3-0.3c0.1-0.1,0.3-0.1,0.5-0.1c0.2,0,0.4,0,0.5,0.1c0.1,0.1,0.2,0.2,0.3,0.3s0.2,0.3,0.2,0.4
				c0.1,0.1,0.1,0.3,0.2,0.6l1.9,4.7c0.1,0.4,0.2,0.6,0.2,0.8c0,0.2-0.1,0.3-0.2,0.5c-0.1,0.1-0.3,0.2-0.5,0.2c-0.1,0-0.2,0-0.3-0.1
				c-0.1,0-0.2-0.1-0.2-0.2c-0.1-0.1-0.1-0.2-0.2-0.3C23.9,12.5,23.9,12.4,23.8,12.3z M20.9,10.3h2.2l-1.1-3L20.9,10.3z"/>
			<path class="st2" d="M22.8,16.2h-1.6c-0.2,0-0.4-0.1-0.5-0.2c-0.1-0.1-0.2-0.3-0.2-0.4c0-0.2,0.1-0.3,0.2-0.4
				C20.8,15,21,15,21.2,15h1.6c0.2,0,0.4,0.1,0.5,0.2c0.1,0.1,0.2,0.3,0.2,0.4c0,0.2-0.1,0.3-0.2,0.4C23.3,16.1,23.1,16.2,22.8,16.2
				z"/>
			<path class="st2" d="M19.3,24.2l3.7-4.5h-3.2c-0.2,0-0.4,0-0.5-0.1c-0.1-0.1-0.2-0.2-0.2-0.4c0-0.2,0.1-0.3,0.2-0.4
				c0.1-0.1,0.3-0.2,0.5-0.2H24c0.5,0,0.8,0.3,0.8,0.8c0,0.2,0,0.4-0.1,0.6c-0.1,0.1-0.3,0.4-0.5,0.7l-3.5,4.2h3.9
				c0.2,0,0.4,0,0.5,0.1c0.1,0.1,0.2,0.2,0.2,0.4c0,0.2-0.1,0.3-0.2,0.4c-0.1,0.1-0.3,0.2-0.5,0.2h-4.7c-0.3,0-0.6-0.1-0.7-0.2
				s-0.2-0.3-0.2-0.6c0-0.1,0-0.2,0-0.2c0-0.1,0.1-0.1,0.1-0.2c0-0.1,0.1-0.1,0.2-0.2C19.2,24.3,19.3,24.2,19.3,24.2z"/>
		</g>
	</g>
</g>
</svg>
