<?xml version="1.0" encoding="utf-8"?>
<!-- Generator: Adobe Illustrator 22.0.1, SVG Export Plug-In . SVG Version: 6.00 Build 0)  -->
<svg version="1.1" xmlns="http://www.w3.org/2000/svg" xmlns:xlink="http://www.w3.org/1999/xlink" x="0px" y="0px" width="32px"
	 height="32px" viewBox="0 0 32 32" style="enable-background:new 0 0 32 32;" xml:space="preserve">
<style type="text/css">
	
		.st0{clip-path:url(#SVGID_1_);fill:#BAE1FF;stroke:#161616;stroke-width:0.75;stroke-linecap:round;stroke-linejoin:round;stroke-miterlimit:10;}
	.st1{fill:#F2F2F2;stroke:#161616;stroke-width:0.75;stroke-linecap:round;stroke-linejoin:round;stroke-miterlimit:10;}
	.st2{clip-path:url(#SVGID_2_);fill:#161616;stroke:#161616;stroke-width:0.75;stroke-miterlimit:10;}
	.st3{clip-path:url(#SVGID_3_);fill:#161616;stroke:#161616;stroke-width:0.75;stroke-miterlimit:10;}
</style>
<g id="Ebene_2">
</g>
<g id="Layer_1">
	<g>
		<g>
			<g>
				<g>
					<defs>
						<path id="SVGID_33_" d="M4,6.2c0,0-0.5,0-0.5,0.5v21c0,0,0,0.5,0.5,0.5h24c0,0,0.5,0,0.5-0.5v-21c0,0,0-0.5-0.5-0.5H4z"/>
					</defs>
					<use xlink:href="#SVGID_33_"  style="overflow:visible;fill:#BAE1FF;"/>
					<clipPath id="SVGID_1_">
						<use xlink:href="#SVGID_33_"  style="overflow:visible;"/>
					</clipPath>
					<rect x="3.5" y="6.2" class="st0" width="25" height="22"/>
					
						<use xlink:href="#SVGID_33_"  style="overflow:visible;fill:none;stroke:#161616;stroke-width:0.75;stroke-linecap:round;stroke-linejoin:round;stroke-miterlimit:10;"/>
				</g>
			</g>
		</g>
		<rect x="6.8" y="14.2" class="st1" width="4.5" height="4"/>
		<rect x="13.8" y="14.2" class="st1" width="4.5" height="4"/>
		<rect x="20.8" y="14.2" class="st1" width="4.5" height="4"/>
		<rect x="6.8" y="20.7" class="st1" width="4.5" height="4"/>
		<rect x="13.8" y="20.7" class="st1" width="4.5" height="4"/>
		<rect x="20.8" y="20.7" class="st1" width="4.5" height="4"/>
		<g>
			<g>
				<g>
					<g>
						<defs>
							<path id="SVGID_27_" d="M8.8,3.8c0,0-0.4,0-0.4,0.4v4.1c0,0,0,0.4,0.4,0.4H11c0,0,0.4,0,0.4-0.4V4.2c0,0,0-0.4-0.4-0.4H8.8z"
								/>
						</defs>
						<use xlink:href="#SVGID_27_"  style="overflow:visible;fill:#161616;"/>
						<clipPath id="SVGID_2_">
							<use xlink:href="#SVGID_27_"  style="overflow:visible;"/>
						</clipPath>
						<rect x="8.4" y="3.8" class="st2" width="3" height="4.9"/>
						<use xlink:href="#SVGID_27_"  style="overflow:visible;fill:none;stroke:#161616;stroke-width:0.75;stroke-miterlimit:10;"/>
					</g>
				</g>
			</g>
			<g>
				<g>
					<g>
						<defs>
							<path id="SVGID_25_" d="M21,3.8c0,0-0.4,0-0.4,0.4v4.1c0,0,0,0.4,0.4,0.4h2.3c0,0,0.4,0,0.4-0.4V4.2c0,0,0-0.4-0.4-0.4H21z"
								/>
						</defs>
						<use xlink:href="#SVGID_25_"  style="overflow:visible;fill:#161616;"/>
						<clipPath id="SVGID_3_">
							<use xlink:href="#SVGID_25_"  style="overflow:visible;"/>
						</clipPath>
						<rect x="20.6" y="3.8" class="st3" width="3" height="4.9"/>
						<use xlink:href="#SVGID_25_"  style="overflow:visible;fill:none;stroke:#161616;stroke-width:0.75;stroke-miterlimit:10;"/>
					</g>
				</g>
			</g>
		</g>
	</g>
</g>
</svg>
