<?xml version="1.0" encoding="utf-8"?>
<!-- Generator: Adobe Illustrator 22.0.1, SVG Export Plug-In . SVG Version: 6.00 Build 0)  -->
<svg version="1.1" xmlns="http://www.w3.org/2000/svg" xmlns:xlink="http://www.w3.org/1999/xlink" x="0px" y="0px" width="32px"
	 height="32px" viewBox="0 0 32 32" style="enable-background:new 0 0 32 32;" xml:space="preserve">
<style type="text/css">
	.st0{fill:none;stroke:#161616;stroke-width:2;stroke-linecap:round;stroke-linejoin:round;stroke-miterlimit:10;}
	.st1{fill:#DFDCF2;stroke:#161616;stroke-linecap:round;stroke-linejoin:round;stroke-miterlimit:10;}
	.st2{fill:none;stroke:#161616;stroke-width:0.75;stroke-linecap:round;stroke-linejoin:round;stroke-miterlimit:10;}
	.st3{fill:#161616;}
</style>
<g id="Ebene_2">
</g>
<g id="Layer_1">
	<g>
		<path class="st0" d="M20.3,11.8h-8.6c-0.8,0-1.4-0.6-1.4-1.4V5.6c0-0.8,0.6-1.4,1.4-1.4h8.6c0.8,0,1.4,0.6,1.4,1.4v4.8
			C21.7,11.2,21.1,11.8,20.3,11.8z"/>
		<path class="st1" d="M27,27.8H5c-2,0-3.6-1.6-3.6-3.6V11.9c0-2,1.6-3.6,3.6-3.6h22c2,0,3.6,1.6,3.6,3.6v12.3
			C30.6,26.2,29,27.8,27,27.8z"/>
		<path class="st2" d="M30.6,17.5c0,2-1.6,3.6-3.6,3.6H5c-2,0-3.6-1.6-3.6-3.6"/>
		<path class="st3" d="M17.7,22.6h-3.4c-0.3,0-0.6-0.2-0.6-0.6v-1.9c0-0.3,0.2-0.6,0.6-0.6h3.4c0.3,0,0.6,0.2,0.6,0.6V22
			C18.2,22.3,18,22.6,17.7,22.6z"/>
	</g>
</g>
</svg>
