<?xml version="1.0" encoding="utf-8"?>
<!-- Generator: Adobe Illustrator 22.0.1, SVG Export Plug-In . SVG Version: 6.00 Build 0)  -->
<svg version="1.1" id="Layer_1" xmlns="http://www.w3.org/2000/svg" xmlns:xlink="http://www.w3.org/1999/xlink" x="0px" y="0px"
	 width="16px" height="16px" viewBox="0 0 16 16" style="enable-background:new 0 0 16 16;" xml:space="preserve">
<style type="text/css">
	.st0{clip-path:url(#SVGID_1_);fill:#161616;}
	.st1{fill:#FFFFFF;}
</style>
<g>
	<g>
		<g>
			<defs>
				<circle id="SVGID_708_" cx="8" cy="8" r="7"/>
			</defs>
			<use xlink:href="#SVGID_708_"  style="overflow:visible;fill:#161616;"/>
			<clipPath id="SVGID_1_">
				<use xlink:href="#SVGID_708_"  style="overflow:visible;"/>
			</clipPath>
			<rect x="1" y="1" class="st0" width="14" height="14"/>
		</g>
	</g>
	<g>
		<path class="st1" d="M8,5.4c-0.2,0-0.4-0.1-0.5-0.2C7.3,5.1,7.3,4.9,7.3,4.6c0-0.2,0.1-0.4,0.2-0.5C7.6,4,7.8,3.9,8,3.9
			c0.2,0,0.4,0.1,0.5,0.2c0.1,0.1,0.2,0.3,0.2,0.5c0,0.2-0.1,0.4-0.2,0.5S8.2,5.4,8,5.4z M8.7,6.9v4.3c0,0.3-0.1,0.5-0.2,0.7
			S8.2,12.1,8,12.1c-0.2,0-0.4-0.1-0.5-0.2c-0.1-0.2-0.2-0.4-0.2-0.7V6.9c0-0.3,0.1-0.5,0.2-0.7C7.6,6.1,7.8,6.1,8,6.1
			c0.2,0,0.4,0.1,0.5,0.2C8.7,6.4,8.7,6.6,8.7,6.9z"/>
	</g>
</g>
</svg>
