<?xml version="1.0" encoding="utf-8"?>
<!-- Generator: Adobe Illustrator 22.0.1, SVG Export Plug-In . SVG Version: 6.00 Build 0)  -->
<svg version="1.1" id="Layer_1" xmlns="http://www.w3.org/2000/svg" xmlns:xlink="http://www.w3.org/1999/xlink" x="0px" y="0px"
	 width="32px" height="32px" viewBox="0 0 32 32" style="enable-background:new 0 0 32 32;" xml:space="preserve">
<style type="text/css">
	.st0{clip-path:url(#SVGID_2_);fill:url(#SVGID_3_);}
	.st1{clip-path:url(#SVGID_5_);fill:url(#SVGID_6_);}
	.st2{clip-path:url(#SVGID_10_);fill:#7C655E;}
	.st3{clip-path:url(#SVGID_13_);fill:#DCB496;}
	.st4{clip-path:url(#SVGID_15_);fill:url(#SVGID_16_);}
	.st5{clip-path:url(#SVGID_18_);fill:url(#SVGID_19_);}
	.st6{fill:#FFDFBA;stroke:#161616;stroke-width:0.75;stroke-linecap:round;stroke-linejoin:round;stroke-miterlimit:10;}
	
		.st7{clip-path:url(#SVGID_20_);fill:none;stroke:#161616;stroke-width:0.75;stroke-linecap:round;stroke-linejoin:round;stroke-miterlimit:10;}
	.st8{fill:#BAFFC9;stroke:#161616;stroke-width:0.75;stroke-linecap:round;stroke-linejoin:round;stroke-miterlimit:10;}
	
		.st9{clip-path:url(#SVGID_21_);fill:#D8BDF2;stroke:#161616;stroke-width:0.75;stroke-linecap:round;stroke-linejoin:round;stroke-miterlimit:10;}
	.st10{fill:#D8BDF2;stroke:#161616;stroke-width:0.75;stroke-linecap:round;stroke-linejoin:round;stroke-miterlimit:10;}
	
		.st11{clip-path:url(#SVGID_22_);fill:none;stroke:#161616;stroke-width:0.75;stroke-linecap:round;stroke-linejoin:round;stroke-miterlimit:10;}
	.st12{fill:#BAE1FF;stroke:#161616;stroke-width:0.75;stroke-linecap:round;stroke-linejoin:round;stroke-miterlimit:10;}
</style>
<g>
	<g>
		<defs>
			<path id="SVGID_1_" d="M4.5,843.4c-0.9,0-1.7-0.3-2.3-0.7c-1.3,0.6-2.2,1.7-2.2,2.9v4.8h9v-4.8c0-1.2-0.9-2.3-2.2-2.9
				C6.2,843.1,5.4,843.4,4.5,843.4"/>
		</defs>
		<clipPath id="SVGID_2_">
			<use xlink:href="#SVGID_1_"  style="overflow:visible;"/>
		</clipPath>
		
			<linearGradient id="SVGID_3_" gradientUnits="userSpaceOnUse" x1="-722.6667" y1="-51.5522" x2="-721.6667" y2="-51.5522" gradientTransform="matrix(9 0 0 9 6504 1310.5197)">
			<stop  offset="0" style="stop-color:#4B823C"/>
			<stop  offset="1.983430e-02" style="stop-color:#4B823C"/>
			<stop  offset="1" style="stop-color:#6EA03C"/>
		</linearGradient>
		<rect y="842.7" class="st0" width="9" height="7.7"/>
	</g>
</g>
<g>
	<g>
		<defs>
			<path id="SVGID_4_" d="M1.4,838.6c0,1.9,1.4,3.4,3.1,3.4s3.1-1.5,3.1-3.4s-1.4-3.4-3.1-3.4S1.4,836.7,1.4,838.6"/>
		</defs>
		<clipPath id="SVGID_5_">
			<use xlink:href="#SVGID_4_"  style="overflow:visible;"/>
		</clipPath>
		
			<linearGradient id="SVGID_6_" gradientUnits="userSpaceOnUse" x1="-681.6061" y1="-16.8577" x2="-680.6062" y2="-16.8577" gradientTransform="matrix(6.1875 0 0 6.1875 4218.8438 942.8573)">
			<stop  offset="0" style="stop-color:#DCB496"/>
			<stop  offset="1.983430e-02" style="stop-color:#DCB496"/>
			<stop  offset="1" style="stop-color:#EBC3A5"/>
		</linearGradient>
		<rect x="1.4" y="835.2" class="st1" width="6.2" height="6.7"/>
	</g>
</g>
<g>
	<g>
		<defs>
			<rect id="SVGID_8_" y="830.7" width="30" height="19.7"/>
		</defs>
		<clipPath id="SVGID_10_">
			<use xlink:href="#SVGID_8_"  style="overflow:visible;"/>
		</clipPath>
		<path class="st2" d="M25.5,842c1.7,0,3.1-1.5,3.1-3.4s-1.4-3.4-3.1-3.4s-3.1,1.5-3.1,3.4S23.8,842,25.5,842"/>
	</g>
	<g>
		<defs>
			<rect id="SVGID_12_" y="830.7" width="30" height="19.7"/>
		</defs>
		<clipPath id="SVGID_13_">
			<use xlink:href="#SVGID_12_"  style="overflow:visible;"/>
		</clipPath>
		<path class="st3" d="M15,837.5c1.7,0,3.1-1.5,3.1-3.4s-1.4-3.4-3.1-3.4s-3.1,1.5-3.1,3.4S13.3,837.5,15,837.5"/>
	</g>
</g>
<g>
	<g>
		<defs>
			<path id="SVGID_14_" d="M15,838.9c-0.9,0-1.7-0.3-2.3-0.7c-1.3,0.6-2.2,1.7-2.2,2.9v4.8h9v-4.8c0-1.2-0.9-2.3-2.2-2.9
				C16.7,838.6,15.9,838.9,15,838.9"/>
		</defs>
		<clipPath id="SVGID_15_">
			<use xlink:href="#SVGID_14_"  style="overflow:visible;"/>
		</clipPath>
		
			<linearGradient id="SVGID_16_" gradientUnits="userSpaceOnUse" x1="-722.6667" y1="-51.5522" x2="-721.6667" y2="-51.5522" gradientTransform="matrix(9 0 0 9 6514.519 1306.0197)">
			<stop  offset="0" style="stop-color:#002555"/>
			<stop  offset="1.983430e-02" style="stop-color:#002555"/>
			<stop  offset="1" style="stop-color:#0F4187"/>
		</linearGradient>
		<rect x="10.5" y="838.2" class="st4" width="9" height="7.7"/>
	</g>
</g>
<g>
	<g>
		<defs>
			<path id="SVGID_17_" d="M25.5,843.4c-0.9,0-1.7-0.3-2.3-0.7c-1.3,0.6-2.2,1.7-2.2,2.9v4.8h9v-4.8c0-1.2-0.9-2.3-2.2-2.9
				C27.2,843.1,26.4,843.4,25.5,843.4"/>
		</defs>
		<clipPath id="SVGID_18_">
			<use xlink:href="#SVGID_17_"  style="overflow:visible;"/>
		</clipPath>
		
			<linearGradient id="SVGID_19_" gradientUnits="userSpaceOnUse" x1="-722.6667" y1="-51.5522" x2="-721.6667" y2="-51.5522" gradientTransform="matrix(9 0 0 9 6525 1310.5197)">
			<stop  offset="0" style="stop-color:#4C6586"/>
			<stop  offset="1.983430e-02" style="stop-color:#4C6586"/>
			<stop  offset="1" style="stop-color:#5A78A0"/>
		</linearGradient>
		<rect x="21" y="842.7" class="st5" width="9" height="7.7"/>
	</g>
</g>
<g>
	<path class="st6" d="M5.5,16.9c1.7,0,3.1-1.5,3.1-3.4c0-1.9-1.4-3.4-3.1-3.4c-1.7,0-3.1,1.5-3.1,3.4C2.4,15.4,3.8,16.9,5.5,16.9"/>
	<g>
		<defs>
			<path id="SVGID_7_" d="M5.5,19.4c-0.9,0-1.7-0.3-2.3-0.7C1.9,19.3,1,20.4,1,21.6v4.8h9v-4.8c0-1.2-0.9-2.3-2.2-2.9
				C7.2,19.1,6.4,19.4,5.5,19.4"/>
		</defs>
		<clipPath id="SVGID_20_">
			<use xlink:href="#SVGID_7_"  style="overflow:visible;"/>
		</clipPath>
		<rect x="1" y="18.7" class="st7" width="9" height="7.7"/>
		<use xlink:href="#SVGID_7_"  style="overflow:visible;fill:none;stroke:#161616;stroke-width:0.75;stroke-miterlimit:10;"/>
	</g>
	<path class="st8" d="M5.5,19.4c-0.9,0-1.7-0.3-2.3-0.7C1.9,19.3,1,20.4,1,21.6v4.8h9v-4.8c0-1.2-0.9-2.3-2.2-2.9
		C7.2,19.1,6.4,19.4,5.5,19.4"/>
	<path class="st6" d="M26.5,16.9c1.7,0,3.1-1.5,3.1-3.4c0-1.9-1.4-3.4-3.1-3.4c-1.7,0-3.1,1.5-3.1,3.4
		C23.4,15.4,24.8,16.9,26.5,16.9"/>
	<g>
		<defs>
			<path id="SVGID_9_" d="M26.5,19.4c-0.9,0-1.7-0.3-2.3-0.7c-1.3,0.6-2.2,1.7-2.2,2.9v4.8h9v-4.8c0-1.2-0.9-2.3-2.2-2.9
				C28.2,19.1,27.4,19.4,26.5,19.4"/>
		</defs>
		<use xlink:href="#SVGID_9_"  style="overflow:visible;fill:#D8BDF2;"/>
		<clipPath id="SVGID_21_">
			<use xlink:href="#SVGID_9_"  style="overflow:visible;"/>
		</clipPath>
		<rect x="22" y="18.7" class="st9" width="9" height="7.7"/>
		<use xlink:href="#SVGID_9_"  style="overflow:visible;fill:none;stroke:#161616;stroke-width:0.75;stroke-miterlimit:10;"/>
	</g>
	<path class="st10" d="M26.5,19.4c-0.9,0-1.7-0.3-2.3-0.7c-1.3,0.6-2.2,1.7-2.2,2.9v4.8h9v-4.8c0-1.2-0.9-2.3-2.2-2.9
		C28.2,19.1,27.4,19.4,26.5,19.4"/>
	<path class="st6" d="M16,12.4c1.7,0,3.1-1.5,3.1-3.4c0-1.9-1.4-3.4-3.1-3.4c-1.7,0-3.1,1.5-3.1,3.4C12.9,10.9,14.3,12.4,16,12.4"/>
	<g>
		<defs>
			<path id="SVGID_11_" d="M16,14.9c-0.9,0-1.7-0.3-2.3-0.7c-1.3,0.6-2.2,1.7-2.2,2.9v4.8h9v-4.8c0-1.2-0.9-2.3-2.2-2.9
				C17.7,14.6,16.9,14.9,16,14.9"/>
		</defs>
		<clipPath id="SVGID_22_">
			<use xlink:href="#SVGID_11_"  style="overflow:visible;"/>
		</clipPath>
		<rect x="11.5" y="14.2" class="st11" width="9" height="7.7"/>
		<use xlink:href="#SVGID_11_"  style="overflow:visible;fill:none;stroke:#161616;stroke-width:0.75;stroke-miterlimit:10;"/>
	</g>
	<path class="st12" d="M16,14.9c-0.9,0-1.7-0.3-2.3-0.7c-1.3,0.6-2.2,1.7-2.2,2.9v4.8h9v-4.8c0-1.2-0.9-2.3-2.2-2.9
		C17.7,14.6,16.9,14.9,16,14.9"/>
</g>
</svg>
