<?xml version="1.0" encoding="utf-8"?>
<!-- Generator: Adobe Illustrator 22.0.1, SVG Export Plug-In . SVG Version: 6.00 Build 0)  -->
<svg version="1.1" id="Layer_1" xmlns="http://www.w3.org/2000/svg" xmlns:xlink="http://www.w3.org/1999/xlink" x="0px" y="0px"
	 width="20px" height="20px" viewBox="0 0 20 20" style="enable-background:new 0 0 20 20;" xml:space="preserve">
<style type="text/css">
	.st0{clip-path:url(#SVGID_1_);fill:#161616;}
	.st1{fill:#161616;stroke:#161616;stroke-width:0.75;stroke-linecap:round;stroke-linejoin:round;stroke-miterlimit:10;}
	.st2{fill:#FFFFBA;stroke:#161616;stroke-width:0.75;stroke-linecap:round;stroke-linejoin:round;stroke-miterlimit:10;}
</style>
<g>
	<g>
		<g>
			<defs>
				<path id="SVGID_789_" d="M3,16.5c0,0.5,1.4,0.9,3.1,0.9s3.1-0.4,3.1-0.9c0-0.5-1.4-0.9-3.1-0.9S3,16,3,16.5"/>
			</defs>
			<use xlink:href="#SVGID_789_"  style="overflow:visible;fill:#161616;"/>
			<clipPath id="SVGID_1_">
				<use xlink:href="#SVGID_789_"  style="overflow:visible;"/>
			</clipPath>
			<rect x="3" y="15.6" class="st0" width="6.3" height="1.9"/>
		</g>
	</g>
	<rect x="-0.8" y="9.3" transform="matrix(6.123234e-17 -1 1 6.123234e-17 -3.3453 15.715)" class="st1" width="14" height="0.4"/>
	<path class="st2" d="M17,7c0,0-2.8-0.3-4.7-2.7c-1.5-1.9-3.9-1.8-3.9-1.8v7.8c0,0,2.1-1.9,4.3-1.5C15.1,9.3,16.4,8.1,17,7"/>
</g>
</svg>
