<?xml version="1.0" encoding="utf-8"?>
<!-- Generator: Adobe Illustrator 22.0.1, SVG Export Plug-In . SVG Version: 6.00 Build 0)  -->
<svg version="1.1" id="Layer_1" xmlns="http://www.w3.org/2000/svg" xmlns:xlink="http://www.w3.org/1999/xlink" x="0px" y="0px"
	 width="17.5px" height="24px" viewBox="0 0 17.5 24" style="enable-background:new 0 0 17.5 24;" xml:space="preserve">
<style type="text/css">
	.st0{fill:#FFB3BA;}
	.st1{fill:#161616;}
	.st2{fill:#BAE1FF;}
</style>
<g>
	<g>
		<path class="st0" d="M9.8,21.9c-2.4,0-4.3-1.9-4.3-4.3v-5.9c0-2.4,1.8-4.3,4.2-4.3l0.4,0v2.3l-0.4,0c-1.1,0.1-2,1-2,2.1v5.9
			c0,1.1,0.9,2.1,2.1,2.1h2.4c1.1,0,2.1-0.9,2.1-2.1v-5.9c0-1.1-0.9-2.1-2.1-2.1h-0.5V7.4h0.5c2.4,0,4.3,1.9,4.3,4.3v5.9
			c0,2.4-1.9,4.3-4.3,4.3H9.8z"/>
		<path class="st1" d="M12.2,7.7c2.2,0,4,1.8,4,4v5.9c0,2.2-1.8,4-4,4H9.8c-2.2,0-4-1.8-4-4v-5.9c0-2.1,1.7-3.9,3.8-4v1.5
			c-1.3,0.1-2.3,1.1-2.3,2.4v5.9c0,1.4,1.1,2.5,2.5,2.5h2.4c1.4,0,2.5-1.1,2.5-2.5v-5.9c0-1.4-1.1-2.5-2.5-2.5h-0.1V7.7H12.2
			 M10.4,7L9.7,7c-2.6,0.1-4.6,2.2-4.6,4.7v5.9c0,2.6,2.1,4.7,4.7,4.7h2.4c2.6,0,4.7-2.1,4.7-4.7v-5.9c0-2.6-2.1-4.7-4.7-4.7h-0.1
			h-0.8v0.8v1.5V10h0.8h0.1c0.9,0,1.7,0.8,1.7,1.7v5.9c0,0.9-0.8,1.7-1.7,1.7H9.8c-0.9,0-1.7-0.8-1.7-1.7v-5.9
			c0-0.9,0.7-1.6,1.6-1.7l0.7,0V9.3V7.8V7L10.4,7z"/>
	</g>
	<g>
		<path class="st2" d="M5.1,16.6c-2.3,0-4.1-1.9-4.1-4.3V6.4c0-2.4,1.9-4.3,4.3-4.3h2.4C10.1,2.1,12,4,12,6.4v5.9
			c0,2.4-1.6,4.2-3.9,4.3l-0.4,0l0-2.3l0.4,0c1-0.1,1.7-0.8,1.7-2V6.4c0-1.1-0.9-2.1-2.1-2.1H5.3c-1.1,0-2.1,0.9-2.1,2.1v5.9
			c0,1.2,0.8,2.1,1.9,2.1h0.4v2.3H5.1z"/>
		<path class="st1" d="M7.7,2.5c2.2,0,4,1.8,4,4v5.9c0,2.1-1.4,3.8-3.5,3.9l0-1.6c1.3-0.1,2-1.1,2-2.4V6.4C10.1,5.1,9,4,7.7,4H5.3
			C3.9,4,2.8,5.1,2.8,6.4v5.9c0,1.4,0.9,2.5,2.3,2.5v1.5c-2.2,0-3.8-1.8-3.8-4V6.4c0-2.2,1.8-4,4-4H7.7 M7.7,1.7H5.3
			c-2.6,0-4.7,2.1-4.7,4.7v5.9c0,2.6,2,4.7,4.5,4.7h0.8v-0.8v-1.5V14H5.1c-1,0-1.5-0.9-1.5-1.7V6.4c0-0.9,0.8-1.7,1.7-1.7h2.4
			c0.9,0,1.7,0.8,1.7,1.7v5.9c0,0.5-0.1,1.6-1.3,1.6l-0.7,0l0,0.7l0,1.6l0,0.8l0.8,0c2.5-0.1,4.3-2,4.3-4.7V6.4
			C12.4,3.8,10.3,1.7,7.7,1.7L7.7,1.7z"/>
	</g>
</g>
</svg>
