<?xml version="1.0" encoding="utf-8"?>
<!-- Generator: Adobe Illustrator 22.0.1, SVG Export Plug-In . SVG Version: 6.00 Build 0)  -->
<svg version="1.1" xmlns="http://www.w3.org/2000/svg" xmlns:xlink="http://www.w3.org/1999/xlink" x="0px" y="0px" width="32px"
	 height="32px" viewBox="0 0 32 32" style="enable-background:new 0 0 32 32;" xml:space="preserve">
<style type="text/css">
	.st0{fill:#BAE1FF;stroke:#161616;stroke-width:0.75;stroke-linecap:round;stroke-linejoin:round;stroke-miterlimit:10;}
	.st1{fill:#D8BDF2;stroke:#161616;stroke-width:0.75;stroke-linecap:round;stroke-linejoin:round;stroke-miterlimit:10;}
</style>
<g id="Ebene_2">
</g>
<g id="Layer_1">
	<g>
		<path class="st0" d="M15.2,6.8C10,6.8,5.7,10,5.7,14c0,2,1.1,3.8,2.8,5.1c-1.3,1.3-2.8,2.3-2.8,2.3c2-0.1,3.5-0.6,4.6-1.2
			c1.4,0.6,3.1,1,4.8,1c5.2,0,9.5-3.3,9.5-7.3S20.4,6.8,15.2,6.8z"/>
		<path class="st1" d="M19.9,15.3c3.5,0,6.4,2.2,6.4,4.9c0,1.3-0.7,2.6-1.9,3.5c0.9,0.9,1.9,1.6,1.9,1.6c-1.3,0-2.4-0.4-3.1-0.8
			c-1,0.4-2.1,0.7-3.2,0.7c-3.5,0-6.4-2.2-6.4-4.9S16.4,15.3,19.9,15.3z"/>
	</g>
</g>
</svg>
