<?xml version="1.0" encoding="utf-8"?>
<!-- Generator: Adobe Illustrator 22.0.1, SVG Export Plug-In . SVG Version: 6.00 Build 0)  -->
<svg version="1.1" id="Layer_1" xmlns="http://www.w3.org/2000/svg" xmlns:xlink="http://www.w3.org/1999/xlink" x="0px" y="0px"
	 width="32px" height="32px" viewBox="0 0 32 32" style="enable-background:new 0 0 32 32;" xml:space="preserve">
<style type="text/css">
	
		.st0{clip-path:url(#SVGID_1_);fill:#DDDDDD;stroke:#161616;stroke-width:0.75;stroke-linecap:round;stroke-linejoin:round;stroke-miterlimit:10;}
	
		.st1{clip-path:url(#SVGID_2_);fill:#FFDFBA;stroke:#161616;stroke-width:0.75;stroke-linecap:round;stroke-linejoin:round;stroke-miterlimit:10;}
	
		.st2{clip-path:url(#SVGID_3_);fill:#BAE1FF;stroke:#161616;stroke-width:0.75;stroke-linecap:round;stroke-linejoin:round;stroke-miterlimit:10;}
</style>
<g>
	<g>
		<defs>
			<path id="SVGID_685_" d="M5.9,20.7c0,4,3.2,7.3,7.3,7.3c3.1,0,5.7-2,6.8-4.7l-1.2-2.1c-0.2,2.9-2.6,5.1-5.6,5.1
				c-3.1,0-5.6-2.5-5.6-5.6c0-1.5,0.6-2.7,1.5-3.7v-2.2C7.1,16.1,5.9,18.3,5.9,20.7"/>
		</defs>
		<use xlink:href="#SVGID_685_"  style="overflow:visible;fill:#DDDDDD;"/>
		<clipPath id="SVGID_1_">
			<use xlink:href="#SVGID_685_"  style="overflow:visible;"/>
		</clipPath>
		<rect x="5.9" y="14.8" class="st0" width="14" height="13.2"/>
		
			<use xlink:href="#SVGID_685_"  style="overflow:visible;fill:none;stroke:#161616;stroke-width:0.75;stroke-linecap:round;stroke-linejoin:round;stroke-miterlimit:10;"/>
	</g>
</g>
<g>
	<g>
		<defs>
			<circle id="SVGID_684_" cx="11.4" cy="6.2" r="2.2"/>
		</defs>
		<use xlink:href="#SVGID_684_"  style="overflow:visible;fill:#FFDFBA;"/>
		<clipPath id="SVGID_2_">
			<use xlink:href="#SVGID_684_"  style="overflow:visible;"/>
		</clipPath>
		<rect x="9.1" y="4" class="st1" width="4.5" height="4.5"/>
		
			<use xlink:href="#SVGID_684_"  style="overflow:visible;fill:none;stroke:#161616;stroke-width:0.75;stroke-linecap:round;stroke-linejoin:round;stroke-miterlimit:10;"/>
	</g>
</g>
<g>
	<g>
		<defs>
			<path id="SVGID_683_" d="M9.1,11.4v5.8c0,1.2,1,2.2,2.2,2.2h6.7l3.3,5.8h0l3.1-1.8c0.3-0.1,0.4-0.4,0.4-0.7v0
				c0-0.2,0-0.3-0.1-0.5c-0.3-0.4-0.8-0.6-1.2-0.4l-1.1,0.7l-3.5-6.1c-0.2-0.3-0.5-0.3-0.8-0.3h-4.5v-2.2h2.9c0.5,0,0.8-0.4,0.8-0.8
				c0-0.5-0.4-0.8-0.8-0.8h-2.9v-0.8c0-1.2-1-2.2-2.2-2.2S9.1,10.2,9.1,11.4"/>
		</defs>
		<use xlink:href="#SVGID_683_"  style="overflow:visible;fill:#BAE1FF;"/>
		<clipPath id="SVGID_3_">
			<use xlink:href="#SVGID_683_"  style="overflow:visible;"/>
		</clipPath>
		<rect x="9.1" y="9.2" class="st2" width="15.8" height="16"/>
		
			<use xlink:href="#SVGID_683_"  style="overflow:visible;fill:none;stroke:#161616;stroke-width:0.75;stroke-linecap:round;stroke-linejoin:round;stroke-miterlimit:10;"/>
	</g>
</g>
</svg>
