<?xml version="1.0" encoding="utf-8"?>
<!-- Generator: Adobe Illustrator 22.0.1, SVG Export Plug-In . SVG Version: 6.00 Build 0)  -->
<svg version="1.1" id="Layer_1" xmlns="http://www.w3.org/2000/svg" xmlns:xlink="http://www.w3.org/1999/xlink" x="0px" y="0px"
	 width="32px" height="32px" viewBox="0 0 32 32" style="enable-background:new 0 0 32 32;" xml:space="preserve">
<style type="text/css">
	.st0{fill:#F2F2F2;stroke:#161616;stroke-width:0.75;stroke-linecap:round;stroke-linejoin:round;stroke-miterlimit:10;}
	.st1{fill:#161616;stroke:#161616;stroke-width:0.75;stroke-linecap:round;stroke-linejoin:round;stroke-miterlimit:10;}
</style>
<g>
	<path class="st0" d="M6.4,24c9.4-4.3,14.1-6.4,23.5-10.7c0,0,1.3-1.1,0.4-3.3c-0.8-2.1-2.7-2.2-2.7-2.2c-10,3-15,4.5-24.9,7.4"/>
	<path class="st0" d="M8.9,21.3c-1,2.7-3.2,3.8-5.7,2.1c-2-1.3-3-4.4-2.2-6.5c0.6-1.7,2.5-2.1,4.1-1c1.3,0.9,1.8,2.6,1.3,3.9
		c-0.4,1.1-1.5,1.5-2.6,0.8c1-0.3,1.5-0.5,2.6-0.8"/>
	<path class="st1" d="M6.4,24c9.7-4.4,14.6-6.5,24.3-10.9c0,0,0.4-0.2,0.5-0.8c0.1-0.5,0-0.6,0-0.6c-9,3.8-13.4,5.7-22.4,9.6"/>
</g>
</svg>
