<?xml version="1.0" encoding="utf-8"?>
<!-- Generator: Adobe Illustrator 22.0.1, SVG Export Plug-In . SVG Version: 6.00 Build 0)  -->
<svg version="1.1" id="Layer_1" xmlns="http://www.w3.org/2000/svg" xmlns:xlink="http://www.w3.org/1999/xlink" x="0px" y="0px"
	 width="32px" height="32px" viewBox="0 0 32 32" style="enable-background:new 0 0 32 32;" xml:space="preserve">
<style type="text/css">
	.st0{fill:#BAFFC9;stroke:#161616;stroke-width:0.75;stroke-linecap:round;stroke-linejoin:round;stroke-miterlimit:10;}
	.st1{fill:#BAE1FF;stroke:#161616;stroke-width:0.75;stroke-linecap:round;stroke-linejoin:round;stroke-miterlimit:10;}
	.st2{fill:#FFB3BA;stroke:#161616;stroke-width:0.75;stroke-linecap:round;stroke-linejoin:round;stroke-miterlimit:10;}
</style>
<g>
	<path class="st0" d="M20.6,16.7l-2.8,0v-5.8c0-0.2-0.1-0.3-0.3-0.3h-3.1c-0.2,0-0.3,0.1-0.3,0.3v5.8l-2.8,0c-0.3,0-0.5,0.4-0.2,0.7
		l4.6,3.9c0.1,0.1,0.3,0.1,0.5,0l4.6-4C21.1,17.1,20.9,16.7,20.6,16.7z"/>
	<rect x="12" y="23" class="st1" width="8" height="4.9"/>
	<g>
		<rect x="3.9" y="20" class="st2" width="6.2" height="4.8"/>
		<rect x="21.9" y="20" class="st2" width="6.2" height="4.8"/>
	</g>
	<rect x="7" y="4" class="st1" width="18" height="4.9"/>
</g>
</svg>
