<?xml version="1.0" encoding="utf-8"?>
<!-- Generator: Adobe Illustrator 22.0.1, SVG Export Plug-In . SVG Version: 6.00 Build 0)  -->
<svg version="1.1" id="Layer_1" xmlns="http://www.w3.org/2000/svg" xmlns:xlink="http://www.w3.org/1999/xlink" x="0px" y="0px"
	 width="32px" height="32px" viewBox="0 0 32 32" style="enable-background:new 0 0 32 32;" xml:space="preserve">
<style type="text/css">
	.st0{fill:#FFFFBA;stroke:#161616;stroke-width:0.75;stroke-linecap:round;stroke-linejoin:round;stroke-miterlimit:10;}
	.st1{fill:none;stroke:#161616;stroke-width:0.75;stroke-linecap:round;stroke-linejoin:round;stroke-miterlimit:10;}
</style>
<g>
	<path class="st0" d="M18.9,9.5c-1.6-1.6-4.2-1.6-5.8,0s-1.6,4.2,0,5.8c0.5,0.5,1.2,0.9,1.9,1.1c-0.9,6.2-1.8,13.9-1.8,13.9h5.6
		c0,0-0.9-7.7-1.8-13.9c0.7-0.2,1.3-0.5,1.9-1.1C20.5,13.7,20.5,11.1,18.9,9.5"/>
	<g>
		<path class="st1" d="M22.1,4.1c0.1,0.1,2.6,2.7,2.6,8.1s-2.5,8-2.6,8.1"/>
		<path class="st1" d="M26.4,1.7c0.1,0.1,3.4,3.5,3.4,10.5s-3.3,10.3-3.4,10.5"/>
	</g>
	<g>
		<path class="st1" d="M9.9,4.1c-0.1,0.1-2.6,2.7-2.6,8.1s2.5,8,2.6,8.1"/>
		<path class="st1" d="M5.6,1.7C5.4,1.9,2.1,5.3,2.1,12.2s3.3,10.3,3.4,10.5"/>
	</g>
</g>
</svg>
