<?xml version="1.0" encoding="utf-8"?>
<!-- Generator: Adobe Illustrator 26.0.3, SVG Export Plug-In . SVG Version: 6.00 Build 0)  -->
<svg version="1.1" id="Ebene_1" xmlns="http://www.w3.org/2000/svg" xmlns:xlink="http://www.w3.org/1999/xlink" x="0px" y="0px"
	 viewBox="0 0 32 32" style="enable-background:new 0 0 32 32;" xml:space="preserve">
<style type="text/css">
	.st0{fill:#BAFFC9;stroke:#161616;stroke-width:0.75;stroke-linecap:round;stroke-linejoin:round;stroke-miterlimit:10;}
	.st1{fill:none;}
	.st2{fill:none;stroke:#161616;stroke-width:0.75;stroke-linecap:round;stroke-linejoin:round;stroke-miterlimit:10;}
	.st3{fill:none;stroke:#161616;stroke-width:0.75;stroke-linecap:round;stroke-miterlimit:10;}
	.st4{fill:#161616;}
	.st5{fill:#BAE1FF;stroke:#161616;stroke-width:0.75;stroke-linecap:round;stroke-linejoin:round;stroke-miterlimit:10;}
</style>
<g id="Ebene_2_00000145056487240486894190000015414639842555812524_">
</g>
<g id="Layer_1">
	<g>
		<rect x="5" y="6.8" class="st0" width="18.7" height="12.5"/>
		<line class="st1" x1="11.8" y1="18.4" x2="6.6" y2="29.2"/>
		<line class="st2" x1="11.8" y1="18.4" x2="6.6" y2="29.2"/>
		<line class="st1" x1="16.9" y1="18.4" x2="22.1" y2="29.2"/>
		<line class="st3" x1="16.9" y1="18.4" x2="22.1" y2="29.2"/>
		<line class="st1" x1="8.8" y1="25.2" x2="19.7" y2="25.2"/>
		<line class="st2" x1="8.8" y1="25.2" x2="19.7" y2="25.2"/>
		<rect x="5" y="17.3" class="st4" width="18.7" height="1.9"/>
		<g>
			<path class="st5" d="M27,8.6c0,3.2-2.6,5.8-5.8,5.8s-5.8-2.6-5.8-5.8c0-1.1,0.3-2.1,0.8-3c1-1.7,2.9-2.8,5-2.8s3.9,1.1,5,2.8
				C26.7,6.5,27,7.5,27,8.6z"/>
			<g>
				<line class="st2" x1="21.2" y1="2.8" x2="21.2" y2="14.2"/>
				<path class="st2" d="M18.5,3.7c-0.5,1.5-0.7,3.2-0.7,5s0.3,3.5,0.7,5"/>
				<path class="st2" d="M23.8,13.6c0.5-1.5,0.7-3.2,0.7-5s-0.3-3.5-0.7-5"/>
			</g>
			<g>
				<line class="st2" x1="15.4" y1="8.6" x2="27" y2="8.6"/>
				<path class="st2" d="M16.8,5.5c1.1,0.6,2.7,1,4.4,1c1.7,0,3.2-0.4,4.4-1"/>
				<path class="st2" d="M25.5,11.8c-1.1-0.6-2.7-1-4.4-1s-3.2,0.4-4.4,1"/>
			</g>
		</g>
	</g>
</g>
</svg>
