<?xml version="1.0" encoding="utf-8"?>
<!-- Generator: Adobe Illustrator 22.0.1, SVG Export Plug-In . SVG Version: 6.00 Build 0)  -->
<svg version="1.1" id="Layer_1" xmlns="http://www.w3.org/2000/svg" xmlns:xlink="http://www.w3.org/1999/xlink" x="0px" y="0px"
	 width="32px" height="32px" viewBox="0 0 32 32" style="enable-background:new 0 0 32 32;" xml:space="preserve">
<style type="text/css">
	.st0{clip-path:url(#SVGID_1_);fill:#161616;}
</style>
<g>
	<g>
		<defs>
			<path id="SVGID_797_" d="M17.5,2.1c-1.5,0.9-2.1,2.7-1.6,4.2l-9.7,6.1H2.8c0,0-0.6,0-0.6,0.6v6c0,0,0,0.6,0.6,0.6h3.3l9.7,6.1
				c-0.5,1.6,0.1,3.3,1.6,4.2c1.8,1.1,4.1,0.6,5.2-1.2c1.1-1.8,0.6-4.1-1.2-5.2c-1.5-0.9-3.3-0.7-4.5,0.4l-7-4.4h3.7
				c0,0,0.6,0,0.6-0.6v-2h8.4c0.4,1.6,1.9,2.8,3.6,2.8c2,0,3.7-1.6,3.7-3.7v-0.2c0-2-1.7-3.7-3.7-3.7c-1.7,0-3.2,1.2-3.6,2.7h-8.4
				v-2c0,0,0-0.6-0.6-0.6H9.9l7-4.4c1.2,1.1,3,1.3,4.5,0.4c1.8-0.9,2.3-3.2,1.2-4.9c-0.7-1.1-1.9-1.8-3.2-1.8
				C18.8,1.5,18.1,1.7,17.5,2.1"/>
		</defs>
		<use xlink:href="#SVGID_797_"  style="overflow:visible;fill:#161616;"/>
		<clipPath id="SVGID_1_">
			<use xlink:href="#SVGID_797_"  style="overflow:visible;"/>
		</clipPath>
		<polygon class="st0" points="-11.3,22.3 21.7,43.7 43.4,10.3 10.4,-11.2 		"/>
	</g>
</g>
</svg>
