<?xml version="1.0" encoding="utf-8"?>
<!-- Generator: Adobe Illustrator 26.0.3, SVG Export Plug-In . SVG Version: 6.00 Build 0)  -->
<svg version="1.1" id="Layer_1" xmlns="http://www.w3.org/2000/svg" xmlns:xlink="http://www.w3.org/1999/xlink" x="0px" y="0px"
	 viewBox="0 0 32 32" style="enable-background:new 0 0 32 32;" xml:space="preserve">
<style type="text/css">
	.st0{fill:#FFFFBA;stroke:#161616;stroke-width:0.75;stroke-linecap:round;stroke-linejoin:round;stroke-miterlimit:10;}
	.st1{fill:#BAE1FF;stroke:#161616;stroke-width:0.75;stroke-linecap:round;stroke-linejoin:round;stroke-miterlimit:10;}
	.st2{fill:none;stroke:#161616;stroke-width:0.75;stroke-linecap:round;stroke-linejoin:round;stroke-miterlimit:10;}
</style>
<g>
	<path class="st0" d="M13.1,20.2c-0.1-0.1-0.2-0.3-0.4-0.4c-1-0.8-1-1.8-1-1.8c0-2.4,2.8-2.1,2.8-2.1c2.8,0.3,2.6,2.1,2.6,2.1
		c-0.1,1.1-1.3,2-1.3,2c-0.3,0.2-0.4,0.5-0.1,0.9c0.2,0.3,0.9,0.3,0.9,0.3h7.7v-7.6c0,0,0-0.6,0.3-0.9c0.4-0.3,0.7-0.1,0.9,0.1
		c0,0,0.8,1.2,2,1.3c0,0,1.8,0.2,2.1-2.6c0,0,0.3-2.8-2.1-2.8c0,0-1,0-1.8,1c-0.1,0.1-0.2,0.3-0.4,0.4c0,0-0.9,0.5-1-0.8V4.9h-7.8
		C14.9,5.2,16,6.2,16,6.2s0.9,0.7,1.1,1.3c0.9,2.3-2.2,2.7-2.2,2.7c-2.3,0.4-3.1-1.5-3.1-1.5c-0.5-1.2,0.6-2,0.6-2
		c0.4-0.4,0.7-0.8,0.7-0.8C13.5,5,12.3,5,12.3,5H6.8v4.4c0,0,0,1.2-0.9,0.9c0,0-0.5-0.3-0.8-0.7c0,0-0.9-1.1-2-0.6
		c0,0-1.9,0.8-1.5,3.1c0,0,0.4,3,2.7,2.2c0.6-0.2,1.3-1.1,1.3-1.1s1-1,1.2,0.4v7.8h5.5C13.6,21.1,13.1,20.2,13.1,20.2z"/>
	<g>
		<path class="st1" d="M30.5,21.2c0,3.2-2.6,5.8-5.8,5.8s-5.8-2.6-5.8-5.8c0-1.1,0.3-2.1,0.8-3c1-1.7,2.9-2.8,5-2.8s3.9,1.1,5,2.8
			C30.2,19.1,30.5,20.1,30.5,21.2z"/>
		<g>
			<line class="st2" x1="24.7" y1="15.4" x2="24.7" y2="26.7"/>
			<path class="st2" d="M22.1,16.3c-0.5,1.5-0.7,3.2-0.7,5s0.3,3.5,0.7,5"/>
			<path class="st2" d="M27.3,26.2c0.5-1.5,0.7-3.2,0.7-5s-0.3-3.5-0.7-5"/>
		</g>
		<g>
			<line class="st2" x1="18.9" y1="21.2" x2="30.5" y2="21.2"/>
			<path class="st2" d="M20.3,18.1c1.1,0.6,2.7,1,4.4,1s3.2-0.4,4.4-1"/>
			<path class="st2" d="M29.1,24.4c-1.1-0.6-2.7-1-4.4-1c-1.7,0-3.2,0.4-4.4,1"/>
		</g>
	</g>
</g>
</svg>
