<?xml version="1.0" encoding="utf-8"?>
<!-- Generator: Adobe Illustrator 22.0.1, SVG Export Plug-In . SVG Version: 6.00 Build 0)  -->
<svg version="1.1" id="Ebene_1" xmlns="http://www.w3.org/2000/svg" xmlns:xlink="http://www.w3.org/1999/xlink" x="0px" y="0px"
	 width="32px" height="32px" viewBox="0 0 32 32" style="enable-background:new 0 0 32 32;" xml:space="preserve">
<style type="text/css">
	.st0{fill:#DDDDDD;stroke:#161616;stroke-width:0.75;stroke-linecap:round;stroke-linejoin:round;stroke-miterlimit:10;}
	.st1{fill:none;stroke:#161616;stroke-width:0.75;stroke-linecap:round;stroke-linejoin:round;stroke-miterlimit:10;}
</style>
<g id="Ebene_2_1_">
</g>
<g>
	<path class="st0" d="M19.9,18.8h-0.8c-1.3,0-2.3-1.1-2.3-2.3v-0.8c0-1.3,1.1-2.3,2.3-2.3h0.8c1.3,0,2.3,1.1,2.3,2.3v0.8
		C22.3,17.7,21.2,18.8,19.9,18.8z"/>
	<path class="st1" d="M23.2,8.7c0.1,0.1,2.4,2.4,2.4,7.3s-2.3,7.2-2.4,7.3"/>
	<path class="st1" d="M25.8,6.6c0.1,0.1,3.1,3.2,3.1,9.4s-3,9.3-3.1,9.4"/>
	<path class="st0" d="M18.9,7.7c0,0-6.8,4.5-6.8,4.6c-1.5,0-7.9,0-7.9,0s-1.1,0-1.1,0.6v6.1c0,0,0,0.7,1.1,0.7h3.1L5.4,22
		c-0.3,0.4-0.3,1,0.1,1.4c0.4,0.3,1,0.3,1.4-0.1l2.9-3.5h2.3c0.1,0.2,6.8,4.6,6.8,4.6c0.3,0.2,0.3-0.2,0.3-0.2V7.8
		C19.3,7.4,18.9,7.7,18.9,7.7z"/>
</g>
</svg>
