<?xml version="1.0" encoding="utf-8"?>
<!-- Generator: Adobe Illustrator 22.0.1, SVG Export Plug-In . SVG Version: 6.00 Build 0)  -->
<svg version="1.1" id="Layer_1" xmlns="http://www.w3.org/2000/svg" xmlns:xlink="http://www.w3.org/1999/xlink" x="0px" y="0px"
	 width="32px" height="32px" viewBox="0 0 32 32" style="enable-background:new 0 0 32 32;" xml:space="preserve">
<style type="text/css">
	.st0{fill:#FFDFBA;stroke:#161616;stroke-width:0.75;stroke-linecap:round;stroke-linejoin:round;stroke-miterlimit:10;}
	
		.st1{clip-path:url(#SVGID_1_);fill:none;stroke:#161616;stroke-width:0.75;stroke-linecap:round;stroke-linejoin:round;stroke-miterlimit:10;}
	.st2{fill:#BAE1FF;stroke:#161616;stroke-width:0.75;stroke-linecap:round;stroke-linejoin:round;stroke-miterlimit:10;}
	
		.st3{clip-path:url(#SVGID_2_);fill:#BAFFC9;stroke:#161616;stroke-width:0.75;stroke-linecap:round;stroke-linejoin:round;stroke-miterlimit:10;}
	.st4{fill:#BAFFC9;stroke:#161616;stroke-width:0.75;stroke-linecap:round;stroke-linejoin:round;stroke-miterlimit:10;}
</style>
<g>
	<path class="st0" d="M10.2,17c1.9,0,3.4-1.7,3.4-3.8c0-2.1-1.5-3.8-3.4-3.8c-1.9,0-3.4,1.7-3.4,3.8C6.8,15.3,8.3,17,10.2,17"/>
	<g>
		<defs>
			<path id="SVGID_31_" d="M10.2,19.8c-1,0-1.9-0.3-2.5-0.8c-1.4,0.7-2.4,1.9-2.4,3.2v5.3h10v-5.3c0-1.3-1-2.5-2.4-3.2
				C12.1,19.5,11.2,19.8,10.2,19.8"/>
		</defs>
		<clipPath id="SVGID_1_">
			<use xlink:href="#SVGID_31_"  style="overflow:visible;"/>
		</clipPath>
		<rect x="5.2" y="19" class="st1" width="10" height="8.5"/>
		<use xlink:href="#SVGID_31_"  style="overflow:visible;fill:none;stroke:#161616;stroke-width:0.75;stroke-miterlimit:10;"/>
	</g>
	<path class="st2" d="M10.2,19.8c-1,0-1.9-0.3-2.5-0.8c-1.4,0.7-2.4,1.9-2.4,3.2v5.3h10v-5.3c0-1.3-1-2.5-2.4-3.2
		C12.1,19.5,11.2,19.8,10.2,19.8"/>
	<path class="st0" d="M21.8,12c1.9,0,3.4-1.7,3.4-3.8c0-2.1-1.5-3.8-3.4-3.8c-1.9,0-3.4,1.7-3.4,3.8C18.4,10.3,19.9,12,21.8,12"/>
	<g>
		<defs>
			<path id="SVGID_29_" d="M21.8,14.8c-1,0-1.9-0.3-2.5-0.8c-1.4,0.7-2.4,1.9-2.4,3.2v5.3h10v-5.3c0-1.3-1-2.5-2.4-3.2
				C23.7,14.5,22.8,14.8,21.8,14.8"/>
		</defs>
		<use xlink:href="#SVGID_29_"  style="overflow:visible;fill:#BAFFC9;"/>
		<clipPath id="SVGID_2_">
			<use xlink:href="#SVGID_29_"  style="overflow:visible;"/>
		</clipPath>
		<rect x="16.8" y="14" class="st3" width="10" height="8.5"/>
		<use xlink:href="#SVGID_29_"  style="overflow:visible;fill:none;stroke:#161616;stroke-width:0.75;stroke-miterlimit:10;"/>
	</g>
	<path class="st4" d="M21.8,14.8c-1,0-1.9-0.3-2.5-0.8c-1.4,0.7-2.4,1.9-2.4,3.2v5.3h10v-5.3c0-1.3-1-2.5-2.4-3.2
		C23.7,14.5,22.8,14.8,21.8,14.8"/>
</g>
</svg>
