<?xml version="1.0" encoding="utf-8"?>
<!-- Generator: Adobe Illustrator 22.0.1, SVG Export Plug-In . SVG Version: 6.00 Build 0)  -->
<svg version="1.1" id="Layer_1" xmlns="http://www.w3.org/2000/svg" xmlns:xlink="http://www.w3.org/1999/xlink" x="0px" y="0px"
	 width="32px" height="32px" viewBox="0 0 32 32" style="enable-background:new 0 0 32 32;" xml:space="preserve">
<style type="text/css">
	.st0{fill:#161616;}
	.st1{fill:#DDDDDD;stroke:#161616;stroke-width:0.75;stroke-linecap:round;stroke-linejoin:round;stroke-miterlimit:10;}
	.st2{fill:#DDDDDD;stroke:#161616;stroke-width:0.75;stroke-linejoin:round;stroke-miterlimit:10;}
	.st3{fill:#161616;stroke:#161616;stroke-width:0.75;stroke-linejoin:round;stroke-miterlimit:10;}
	.st4{fill:#DDDDDD;}
	.st5{fill:#161616;stroke:#161616;stroke-miterlimit:10;}
	.st6{fill:none;stroke:#1D1D1B;stroke-miterlimit:10;}
</style>
<g>
	<path class="st0" d="M11.7,7.7c-0.5,0-0.9-0.4-0.9-0.9V5.3c0-0.5,0.4-0.9,0.9-0.9s0.9,0.4,0.9,0.9v1.4C12.6,7.3,12.2,7.7,11.7,7.7z
		"/>
</g>
<g>
	<path class="st0" d="M13.8,7.7c-0.5,0-0.9-0.4-0.9-0.9V5.3c0-0.5,0.4-0.9,0.9-0.9s0.9,0.4,0.9,0.9v1.4C14.7,7.3,14.3,7.7,13.8,7.7z
		"/>
</g>
<g>
	<path class="st0" d="M17.8,7.7c-0.5,0-0.9-0.4-0.9-0.9V5.3c0-0.5,0.4-0.9,0.9-0.9s0.9,0.4,0.9,0.9v1.4C18.7,7.3,18.3,7.7,17.8,7.7z
		"/>
</g>
<g>
	<path class="st0" d="M19.9,7.7c-0.5,0-0.9-0.4-0.9-0.9V5.3c0-0.5,0.4-0.9,0.9-0.9s0.9,0.4,0.9,0.9v1.4C20.8,7.3,20.4,7.7,19.9,7.7z
		"/>
</g>
<rect x="2" y="9.7" class="st1" width="27.9" height="15.8"/>
<rect x="10.7" y="9.7" class="st2" width="10.6" height="16.8"/>
<polygon class="st3" points="27.9,7.2 4.1,7.2 0.7,9.7 15.7,9.7 16.2,9.7 31.3,9.7 "/>
<rect x="10.2" y="7.8" class="st4" width="11.6" height="1.4"/>
<rect x="4.2" y="16.8" class="st5" width="0.9" height="1.5"/>
<rect x="7.9" y="16.8" class="st5" width="0.9" height="1.5"/>
<rect x="18.4" y="16.8" class="st5" width="0.9" height="1.5"/>
<rect x="12.6" y="16.8" class="st5" width="0.9" height="1.5"/>
<rect x="4.2" y="12.7" class="st5" width="0.9" height="1.5"/>
<rect x="7.9" y="12.7" class="st5" width="0.9" height="1.5"/>
<rect x="12.6" y="12.4" class="st5" width="0.9" height="1.5"/>
<rect x="18.4" y="12.4" class="st5" width="0.9" height="1.5"/>
<rect x="23.2" y="16.9" class="st5" width="0.9" height="1.5"/>
<rect x="27.1" y="16.9" class="st5" width="0.9" height="1.5"/>
<rect x="4.2" y="20.9" class="st5" width="0.9" height="1.5"/>
<rect x="7.9" y="20.9" class="st5" width="0.9" height="1.5"/>
<rect x="23.2" y="20.9" class="st5" width="0.9" height="1.5"/>
<rect x="27.1" y="20.9" class="st5" width="0.9" height="1.5"/>
<rect x="23.2" y="12.8" class="st5" width="0.9" height="1.5"/>
<rect x="27.1" y="12.8" class="st5" width="0.9" height="1.5"/>
<path class="st0" d="M16,20.1L16,20.1c-1.3,0-2.4,1.2-2.4,2.7v3.7h4.8v-3.7C18.4,21.3,17.3,20.1,16,20.1"/>
<line class="st6" x1="6.5" y1="10" x2="6.5" y2="25.5"/>
<line class="st6" x1="25.6" y1="10" x2="25.6" y2="25.5"/>
</svg>
