<?xml version="1.0" encoding="utf-8"?>
<!-- Generator: Adobe Illustrator 22.0.1, SVG Export Plug-In . SVG Version: 6.00 Build 0)  -->
<svg version="1.1" id="Layer_1" xmlns="http://www.w3.org/2000/svg" xmlns:xlink="http://www.w3.org/1999/xlink" x="0px" y="0px"
	 width="16px" height="16px" viewBox="0 0 16 16" style="enable-background:new 0 0 16 16;" xml:space="preserve">
<style type="text/css">
	.st0{fill:#161616;}
	.st1{fill:#ED0400;stroke:#161616;stroke-width:0.75;stroke-linecap:round;stroke-linejoin:round;stroke-miterlimit:10;}
</style>
<g>
	<path class="st0" d="M7.4,11.7h1.2v-1.1H7.4V11.7z M8.6,6.8H7.4L7.5,10h0.9L8.6,6.8z"/>
	<g>
		<g>
			<path class="st1" d="M14.8,14.4H1.2c-0.3,0-0.6-0.2-0.7-0.4c-0.1-0.3-0.1-0.6,0-0.8L7.3,2C7.5,1.8,7.7,1.6,8,1.6l0,0
				c0.3,0,0.5,0.1,0.7,0.4l6.8,11.1c0.2,0.3,0.2,0.6,0,0.8C15.4,14.2,15.1,14.4,14.8,14.4z M2.7,12.7h10.7L8,4L2.7,12.7z"/>
		</g>
	</g>
</g>
</svg>
