<?xml version="1.0" encoding="utf-8"?>
<!-- Generator: Adobe Illustrator 26.0.3, SVG Export Plug-In . SVG Version: 6.00 Build 0)  -->
<svg version="1.1" id="Ebene_1" xmlns="http://www.w3.org/2000/svg" xmlns:xlink="http://www.w3.org/1999/xlink" x="0px" y="0px"
	 viewBox="0 0 32 32" style="enable-background:new 0 0 32 32;" xml:space="preserve">
<style type="text/css">
	.st0{fill:#BAE1FF;stroke:#161616;stroke-width:0.75;stroke-linecap:round;stroke-linejoin:round;stroke-miterlimit:10;}
	.st1{fill:none;stroke:#161616;stroke-width:0.75;stroke-linecap:round;stroke-linejoin:round;stroke-miterlimit:10;}
</style>
<g id="Ebene_2_00000109743688783635985650000013810564109031195533_">
</g>
<g>
	<path class="st0" d="M27.2,15.9c0,6.2-5,11.2-11.2,11.2c-6.1,0-11.1-5-11.1-11.2c0-2.1,0.6-4.1,1.6-5.8c2-3.2,5.6-5.3,9.6-5.3
		s7.6,2.1,9.5,5.4C26.7,11.8,27.2,13.8,27.2,15.9z"/>
	<line class="st1" x1="4.8" y1="15.9" x2="27" y2="15.9"/>
	<path class="st1" d="M6.4,10.1c1.9-3.2,5.5-5.3,9.5-5.3s7.6,2.2,9.5,5.4"/>
	<path class="st1" d="M6.3,10.2c2.8,0.9,6.1,1.4,9.6,1.4s6.7-0.5,9.5-1.4"/>
	<g>
		<line class="st1" x1="15.6" y1="4.8" x2="15.6" y2="27"/>
		<path class="st1" d="M11.1,6c-0.9,2.8-1.4,6.1-1.4,9.6s0.2,6.8,1.1,9.6"/>
		<path class="st1" d="M21,25.2c0.9-2.8,1.3-5.8,1.3-9.3s-0.5-6.8-1.4-9.6"/>
	</g>
	<path class="st1" d="M25.5,21.7c-2.8-0.9-6.1-1.4-9.6-1.4s-6.8,0.5-9.6,1.4"/>
	<path class="st1" d="M10.8,6.1c1.3,1.4,3.1,2.1,5.1,2.1s3.9-0.8,5.2-2.1"/>
	<path class="st1" d="M21.2,25.8c-1.3-1.3-3.2-2.1-5.2-2.1s-3.9,0.8-5.2,2.1"/>
</g>
</svg>
