<?xml version="1.0" encoding="utf-8"?>
<!-- Generator: Adobe Illustrator 22.0.1, SVG Export Plug-In . SVG Version: 6.00 Build 0)  -->
<svg version="1.1" id="Layer_1" xmlns="http://www.w3.org/2000/svg" xmlns:xlink="http://www.w3.org/1999/xlink" x="0px" y="0px"
	 width="320px" height="240px" viewBox="0 0 320 240" style="enable-background:new 0 0 320 240;" xml:space="preserve">
<style type="text/css">
	.st0{fill:#DDDDDD;}
	.st1{clip-path:url(#SVGID_1_);}
	.st2{fill:#161616;}
	.st3{fill:#FFFFFF;}
</style>
<g>
	<rect class="st0" width="320" height="240"/>
	<g>
		<defs>
			<path id="SVGID_798_" d="M26.8,23.5c-1.8,0-3.3,1.4-3.3,3.2c0,0.1,0,0.1,0,0.2v111.1c0,1.8,1.4,3.3,3.2,3.4c0,0,0.1,0,0.1,0h65.8
				c1.3,0,2.4,1.1,2.4,2.4V157c0,1.3-1.1,2.4-2.4,2.4H82.4c-1.3,0-2.4,1.1-2.4,2.4v6.5c0,1.3,1.1,2.4,2.4,2.4h51.9
				c1.3,0,2.4-1.1,2.4-2.4v-6.5c0-1.3-1.1-2.4-2.4-2.4H124c-1.3,0-2.4-1.1-2.4-2.4v-13.3c0-1.3,1.1-2.4,2.4-2.4h65.8
				c1.8,0,3.3-1.4,3.3-3.2c0-0.1,0-0.2,0-0.2V26.8c0-1.8-1.4-3.3-3.2-3.3c-0.1,0-0.1,0-0.2,0H26.8z"/>
		</defs>
		<use xlink:href="#SVGID_798_"  style="overflow:visible;fill:#161616;"/>
		<clipPath id="SVGID_1_">
			<use xlink:href="#SVGID_798_"  style="overflow:visible;"/>
		</clipPath>
		<g class="st1">
			<rect x="23.5" y="23.5" class="st2" width="169.6" height="147.2"/>
		</g>
	</g>
	<path class="st3" d="M35.1,35.8h146.5v92.5H37.7c-1.4,0-2.6-1.2-2.6-2.6V35.8z"/>
	<path class="st2" d="M249.1,151.6h-87.6c-3.3,0-6.1-2.7-6.1-6.1V97.9c0-3.3,2.7-6.1,6.1-6.1h87.6c3.3,0,6.1,2.7,6.1,6.1v47.7
		C255.2,148.9,252.5,151.6,249.1,151.6z"/>
	<path class="st2" d="M239,221.9l-26.4-58.3h6c0.8,0,1.5-0.7,1.5-1.5v-9.1c0-0.8-0.7-1.5-1.5-1.5h-10.8l-0.6-0.2c-0.1,0-0.1,0-0.2,0
		c-0.1,0-0.1,0-0.2-0.1c-0.1,0-0.1,0-0.2,0c-0.1,0-0.1,0-0.2,0c-0.1,0-0.1,0-0.2,0c-0.1,0-0.1,0-0.2,0c-0.1,0-0.1,0-0.2,0.1
		c-0.1,0-0.1,0-0.2,0l-0.6,0.2h-12.7c-0.8,0-1.5,0.7-1.5,1.5v9.1c0,0.8,0.7,1.5,1.5,1.5h7.8l-26.4,58.3c-0.4,1.1,0.1,2.3,1.2,2.7
		l3.7,1.4c1.1,0.4,2.3-0.1,2.7-1.2l25-54.7l25,54.7c0.4,1.1,1.7,1.6,2.7,1.2l3.7-1.4C238.9,224.2,239.4,223,239,221.9z"/>
	<path class="st2" d="M263.8,135.8l23.1,10c2.9,0,5.3-2.4,5.3-5.3v-37.3c0-2.9-2.4-5.3-5.3-5.3l-23.1,10c-2.9,0-5.3,2.4-5.3,5.3
		v17.3C258.5,133.4,260.9,135.8,263.8,135.8z"/>
</g>
</svg>
