<?xml version="1.0" encoding="utf-8"?>
<!-- Generator: Adobe Illustrator 22.0.1, SVG Export Plug-In . SVG Version: 6.00 Build 0)  -->
<svg version="1.1" id="Ebene_1" xmlns="http://www.w3.org/2000/svg" xmlns:xlink="http://www.w3.org/1999/xlink" x="0px" y="0px"
	 width="28px" height="32px" viewBox="0 0 28 32" enable-background="new 0 0 28 32" xml:space="preserve">
<g>
	
		<path fill="#F2F2F2" stroke="#333333" stroke-width="0.75" stroke-linecap="round" stroke-linejoin="round" stroke-miterlimit="10" d="
		M8.1,9.8v15.4c0,0.2,0,4.4,5.7,4.3c5.7,0,6-4.3,6-4.7V5.5c0,0,0-1.1-0.8-2.1c-0.7-0.6-1.6-0.9-2.9-0.9c-1.4,0-2.4,0.3-3.1,1
		c-0.9,1-0.9,2.5-0.9,2.5v15.6c0,0,0,0.5,0.3,0.7c0.3,0.5,0.9,0.5,1.4,0.5c1.5,0,1.6-1,1.6-1.5V9.6h1.8v11.8c0,0.1,0,1.4-0.9,2.3
		c-0.6,0.7-1.4,1-2.4,1c-1.1,0.1-2.1-0.2-2.8-0.9c-0.8-0.9-0.8-2-0.8-2.1V6.1c0,0,0-2.2,1.5-3.8c1-1,2.5-1.6,4.4-1.6
		c1.7,0,3.2,0.5,4.1,1.5c1.4,1.4,1.4,3.3,1.4,3.3v19.2c0,0.1-0.1,6.5-7.8,6.5c-7.6,0-7.7-6-7.7-6.1V9.8H8.1z"/>
</g>
</svg>
