<?xml version="1.0" encoding="utf-8"?>
<!-- Generator: Adobe Illustrator 22.0.1, SVG Export Plug-In . SVG Version: 6.00 Build 0)  -->
<svg version="1.1" id="Ebene_1" xmlns="http://www.w3.org/2000/svg" xmlns:xlink="http://www.w3.org/1999/xlink" x="0px" y="0px"
	 width="32px" height="28px" viewBox="0 0 32 28" enable-background="new 0 0 32 28" xml:space="preserve">
<g>
	<path fill="#F2F2F2" stroke="#333333" stroke-width="0.75" stroke-miterlimit="10" d="M31.1,13.2C28.2,7.6,22.5,3.8,16,3.8
		S3.8,7.6,0.9,13.2c-0.1,0.2-0.2,0.5-0.2,0.8s0.1,0.5,0.2,0.8c2.9,5.6,8.6,9.4,15.1,9.4s12.2-3.8,15.1-9.4c0.1-0.2,0.2-0.5,0.2-0.8
		C31.3,13.7,31.2,13.5,31.1,13.2L31.1,13.2z"/>
	<path fill="#BAE1FF" stroke="#333333" stroke-width="0.75" stroke-miterlimit="10" d="M16,21.6c-1.5,0-3-0.4-4.2-1.3
		c-1.3-0.8-2.2-2-2.8-3.4S8.3,14,8.6,12.5s1-2.8,2.1-3.9s2.4-1.8,3.9-2.1c1.5-0.3,3-0.1,4.4,0.4c1.4,0.6,2.6,1.6,3.4,2.8
		c0.8,1.3,1.3,2.7,1.3,4.2c0,1-0.2,2-0.6,2.9c-0.4,0.9-0.9,1.8-1.7,2.5c-0.7,0.7-1.6,1.3-2.5,1.7C18,21.4,17,21.6,16,21.6L16,21.6z"
		/>
	<path fill="#333333" d="M16,8.9c-0.5,0-0.9,0.1-1.3,0.2c0.4,0.5,0.5,1.1,0.5,1.7c0,0.6-0.3,1.2-0.7,1.6c-0.4,0.4-1,0.7-1.6,0.7
		s-1.2-0.1-1.7-0.5c-0.3,1-0.2,2.1,0.1,3.1s1,1.9,1.9,2.4c0.9,0.6,1.9,0.9,3,0.9s2.1-0.4,2.9-1s1.5-1.5,1.8-2.6s0.3-2.1-0.1-3.1
		c-0.3-1-1-1.9-1.9-2.5C18.1,9.2,17.1,8.9,16,8.9L16,8.9z"/>
</g>
</svg>
