<?xml version="1.0" encoding="utf-8"?>
<!-- Generator: Adobe Illustrator 22.0.1, SVG Export Plug-In . SVG Version: 6.00 Build 0)  -->
<svg version="1.1" id="Ebene_1" xmlns="http://www.w3.org/2000/svg" xmlns:xlink="http://www.w3.org/1999/xlink" x="0px" y="0px"
	 width="32px" height="32px" viewBox="0 0 32 32" enable-background="new 0 0 32 32" xml:space="preserve">
<g>
	<g>
		<g>
			<circle id="SVGID_768_" fill="#BAE1FF" cx="16" cy="16" r="15.3"/>
		</g>
		<g>
			<defs>
				<circle id="SVGID_2_" cx="16" cy="16" r="15.3"/>
			</defs>
			<clipPath id="SVGID_3_">
				<use xlink:href="#SVGID_2_"  overflow="visible"/>
			</clipPath>
			
				<rect x="0.7" y="0.7" clip-path="url(#SVGID_3_)" fill="#BAE1FF" stroke="#333333" stroke-width="0.75" stroke-miterlimit="10" width="30.5" height="30.5"/>
		</g>
		<g>
			<circle id="SVGID_1_" fill="none" stroke="#333333" stroke-width="0.75" stroke-miterlimit="10" cx="16" cy="16" r="15.3"/>
		</g>
	</g>
</g>
<g>
	<polygon fill="#333333" points="24.8,10.8 21.3,8.2 13.7,18.3 9.2,14.1 6.2,17.4 14.3,24.7 14.3,24.7 14.4,24.7 	"/>
	<path fill="#333333" d="M14.4,25h-0.1c-0.1,0-0.1,0-0.2-0.1L6,17.6c-0.1-0.1-0.1-0.3,0-0.4L9,14c0,0,0.1-0.1,0.2-0.1
		c0.1,0,0.1,0,0.2,0.1l4.3,4l7.4-10c0.1-0.1,0.2-0.1,0.4,0l3.5,2.6c0.1,0.1,0.1,0.2,0.1,0.3l-10.4,14C14.6,24.9,14.5,25,14.4,25z
		 M6.6,17.4l7.7,7l10.1-13.6l-3.1-2.3l-7.5,9.9c0,0.1-0.1,0.1-0.2,0.1c-0.1,0-0.1,0-0.2-0.1l-4.3-4L6.6,17.4z"/>
</g>
</svg>
