<?xml version="1.0" encoding="utf-8"?>
<!-- Generator: Adobe Illustrator 22.0.1, SVG Export Plug-In . SVG Version: 6.00 Build 0)  -->
<svg version="1.1" id="Ebene_1" xmlns="http://www.w3.org/2000/svg" xmlns:xlink="http://www.w3.org/1999/xlink" x="0px" y="0px"
	 width="30px" height="30px" viewBox="0 0 30 30" enable-background="new 0 0 30 30" xml:space="preserve">
<g>
	<path fill="#BAE1FF" stroke="#333333" stroke-miterlimit="10" d="M26.8,2.3h-7.3c-1.5,0-2.7,1.2-2.7,2.7v7.3c0,1.5,1.2,2.7,2.7,2.7
		h4.5v3.6c0,2-1.6,3.6-3.6,3.6H20c-0.8,0-1.4,0.6-1.4,1.4v2.7c0,0.8,0.6,1.4,1.4,1.4h0.5c5,0,9.1-4.1,9.1-9.1V5
		C29.5,3.5,28.3,2.3,26.8,2.3z M10.5,2.3H3.2C1.7,2.3,0.5,3.5,0.5,5v7.3c0,1.5,1.2,2.7,2.7,2.7h4.5v3.6c0,2-1.6,3.6-3.6,3.6H3.6
		c-0.8,0-1.4,0.6-1.4,1.4v2.7c0,0.8,0.6,1.4,1.4,1.4h0.5c5,0,9.1-4.1,9.1-9.1V5C13.2,3.5,12,2.3,10.5,2.3z"/>
</g>
</svg>
