<?xml version="1.0" encoding="utf-8"?>
<!-- Generator: Adobe Illustrator 22.0.1, SVG Export Plug-In . SVG Version: 6.00 Build 0)  -->
<svg version="1.1" id="Ebene_1" xmlns="http://www.w3.org/2000/svg" xmlns:xlink="http://www.w3.org/1999/xlink" x="0px" y="0px"
	 width="32px" height="32px" viewBox="0 0 32 32" enable-background="new 0 0 32 32" xml:space="preserve">
<g>
	<path fill="#F2F2F2" stroke="#333333" stroke-width="0.75" stroke-miterlimit="10" d="M13.6,0.8h4.8c0.8,0,1.4,0.6,1.4,1.4v10H25
		c1.1,0,1.6,1.3,0.8,2l-9,9c-0.4,0.4-1.2,0.4-1.6,0l-9.1-9c-0.7-0.7-0.2-2,0.8-2h5.2v-10C12.2,1.4,12.8,0.8,13.6,0.8z M31.2,23.1
		v6.7c0,0.8-0.6,1.4-1.4,1.4H2.2c-0.8,0-1.4-0.6-1.4-1.4v-6.7c0-0.8,0.6-1.4,1.4-1.4h8.7l2.9,2.9c1.2,1.2,3.1,1.2,4.3,0l2.9-2.9h8.7
		C30.6,21.7,31.2,22.3,31.2,23.1z M23.8,28.4c0-0.7-0.5-1.2-1.2-1.2c-0.7,0-1.2,0.5-1.2,1.2c0,0.7,0.5,1.2,1.2,1.2
		C23.3,29.6,23.8,29,23.8,28.4z M27.7,28.4c0-0.7-0.5-1.2-1.2-1.2s-1.2,0.5-1.2,1.2c0,0.7,0.5,1.2,1.2,1.2S27.7,29,27.7,28.4z"/>
</g>
</svg>
