<?xml version="1.0" encoding="utf-8"?>
<!-- Generator: Adobe Illustrator 22.0.1, SVG Export Plug-In . SVG Version: 6.00 Build 0)  -->
<svg version="1.1" id="Ebene_1" xmlns="http://www.w3.org/2000/svg" xmlns:xlink="http://www.w3.org/1999/xlink" x="0px" y="0px"
	 width="32px" height="32px" viewBox="0 0 32 32" enable-background="new 0 0 32 32" xml:space="preserve">
<path fill="#DDDDDD" stroke="#333333" stroke-width="0.75" stroke-linecap="round" stroke-linejoin="round" stroke-miterlimit="10" d="
	M13,8.8c0-1.3-0.1-2.5-0.1-2.7c-1.8-1-3.5,0-3.5,0L8.1,8.8C7.4,9,7,9.2,7,9.2l-5.3,8.4l13.8,3.5c0,0-1.3-11.1-1.4-11.9
	C13.7,9,13.4,8.9,13,8.8z"/>
<path fill="#DDDDDD" stroke="#333333" stroke-width="0.75" stroke-linecap="round" stroke-linejoin="round" stroke-miterlimit="10" d="
	M25.1,9.2c0,0-0.4-0.2-1.2-0.4l-1.3-2.7c0,0-1.7-1-3.5,0c0,0.2-0.1,1.4-0.1,2.7C18.7,8.9,18.4,9,18,9.2c-0.1,0.9-1.4,11.9-1.4,11.9
	l13.8-3.5L25.1,9.2z"/>
<circle fill="#BAE1FF" stroke="#333333" stroke-width="0.75" stroke-miterlimit="10" cx="7.8" cy="21" r="7.1"/>
<path fill="#F2F2F2" d="M4.5,23.2C2.8,21,3.1,17.9,5,15.9C4.6,16,4.3,16.2,4,16.4c-2.6,1.9-3.1,5.5-1.2,8s5.5,3.1,8,1.2
	c0.3-0.2,0.6-0.4,0.8-0.7C9.2,26.2,6.2,25.5,4.5,23.2z"/>
<circle fill="#BAE1FF" stroke="#333333" stroke-width="0.75" stroke-miterlimit="10" cx="24.3" cy="21" r="7.1"/>
<path fill="#F2F2F2" d="M27.6,23.2c1.7-2.3,1.4-5.4-0.4-7.3c0.3,0.2,0.6,0.3,0.9,0.5c2.6,1.9,3.1,5.5,1.2,8s-5.5,3.1-8,1.2
	c-0.3-0.2-0.6-0.4-0.8-0.7C22.9,26.2,25.9,25.5,27.6,23.2z"/>
<path fill="#DDDDDD" stroke="#333333" stroke-width="0.75" stroke-miterlimit="10" d="M14.7,19.7v-6.1c0-0.8,0.6-1.4,1.4-1.4h0
	c0.8,0,1.4,0.6,1.4,1.4v6.1"/>
<circle fill="#DDDDDD" stroke="#333333" stroke-width="0.75" stroke-miterlimit="10" cx="16.1" cy="20" r="1.5"/>
</svg>
