<?xml version="1.0" encoding="utf-8"?>
<!-- Generator: Adobe Illustrator 22.0.1, SVG Export Plug-In . SVG Version: 6.00 Build 0)  -->
<svg version="1.1" id="Ebene_1" xmlns="http://www.w3.org/2000/svg" xmlns:xlink="http://www.w3.org/1999/xlink" x="0px" y="0px"
	 width="24px" height="32px" viewBox="0 0 24 32" enable-background="new 0 0 24 32" xml:space="preserve">
<path fill="#BAE1FF" stroke="#161616" stroke-width="0.75" stroke-linecap="round" stroke-linejoin="round" stroke-miterlimit="10" d="
	M12,0.7C6.4,0.7,1.8,5.2,1.8,10.9c0,2.7,2.3,6.9,2.3,6.9L12,31.3l7.8-13.5c0,0,2.3-4.2,2.3-6.9C22.2,5.2,17.6,0.7,12,0.7z M12,11.7
	c-1.8,0-3.3-1.5-3.3-3.3c0-1.8,1.5-3.3,3.3-3.3c1.8,0,3.3,1.5,3.3,3.3C15.3,10.2,13.8,11.7,12,11.7z"/>
</svg>
