<?xml version="1.0" encoding="utf-8"?>
<!-- Generator: Adobe Illustrator 22.0.1, SVG Export Plug-In . SVG Version: 6.00 Build 0)  -->
<svg version="1.1" id="Ebene_1" xmlns="http://www.w3.org/2000/svg" xmlns:xlink="http://www.w3.org/1999/xlink" x="0px" y="0px"
	 width="28px" height="32px" viewBox="0 0 28 32" enable-background="new 0 0 28 32" xml:space="preserve">
<rect id="SVGID_14_" x="0.5" y="0.6" fill="none" width="27" height="30.9"/>
<path fill="#FFDFBA" stroke="#333333" stroke-width="0.75" stroke-miterlimit="10" d="M27.5,15v5.8c0,0.2,0,0.4-0.1,0.6l-1.9,8.2
	c-0.3,1.1-1.2,1.9-2.3,1.9H10.6c-0.4,0-0.8-0.1-1.1-0.3c-0.3-0.2-0.6-0.4-0.9-0.7L1,19.8c-0.8-1.1-0.5-2.6,0.5-3.4
	c1.1-0.8,2.6-0.5,3.4,0.5l1.9,2.6V3c0-1.3,1.1-2.4,2.4-2.4s2.4,1.1,2.4,2.4V15h0.5v-2.4c0-1.3,1.1-2.4,2.4-2.4s2.4,1.1,2.4,2.4V15
	h0.5v-1.4c0-1.3,1.1-2.4,2.4-2.4s2.4,1.1,2.4,2.4V15h0.5c0-1.3,1.1-2.4,2.4-2.4C26.4,12.6,27.5,13.7,27.5,15z"/>
</svg>
