<?xml version="1.0" encoding="utf-8"?>
<!-- Generator: Adobe Illustrator 22.0.1, SVG Export Plug-In . SVG Version: 6.00 Build 0)  -->
<svg version="1.1" id="Ebene_1" xmlns="http://www.w3.org/2000/svg" xmlns:xlink="http://www.w3.org/1999/xlink" x="0px" y="0px"
	 width="32px" height="32px" viewBox="0 0 32 32" enable-background="new 0 0 32 32" xml:space="preserve">
<g>
	<g>
		<path fill="#D8BDF2" d="M7.3,28c-3.6,0-6.6-3-6.6-6.6v-3.8c0-3.6,3-6.6,6.6-6.6h9.2c3.6,0,6.5,2.8,6.6,6.4l0,0.4h-3.1l0-0.4
			c-0.1-1.9-1.6-3.3-3.5-3.3H7.3c-1.9,0-3.5,1.6-3.5,3.5v3.8c0,1.9,1.6,3.5,3.5,3.5h9.2c1.9,0,3.5-1.6,3.5-3.5v-0.6H23v0.6
			c0,3.6-3,6.6-6.6,6.6H7.3z"/>
		<path fill="#161616" d="M16.4,11.5c3.4,0,6.1,2.7,6.2,6h-2.4c-0.1-2-1.8-3.7-3.8-3.7H7.3c-2.1,0-3.9,1.7-3.9,3.9v3.8
			c0,2.1,1.7,3.9,3.9,3.9h9.2c2.1,0,3.9-1.7,3.9-3.9v-0.2h2.4v0.2c0,3.4-2.8,6.2-6.2,6.2H7.3c-3.4,0-6.2-2.8-6.2-6.2v-3.8
			c0-3.4,2.8-6.2,6.2-6.2H16.4 M16.4,10.7H7.3c-3.8,0-7,3.1-7,7v3.8c0,3.8,3.1,7,7,7h9.2c3.8,0,7-3.1,7-7v-0.2v-0.8h-0.8h-2.4h-0.8
			v0.8v0.2c0,1.7-1.4,3.1-3.1,3.1H7.3c-1.7,0-3.1-1.4-3.1-3.1v-3.8c0-1.7,1.4-3.1,3.1-3.1h9.2c1.6,0,3,1.3,3.1,2.9l0,0.7h0.7h2.4
			h0.8l0-0.8C23.3,13.7,20.2,10.7,16.4,10.7L16.4,10.7z"/>
	</g>
	<g>
		<path fill="#BAFFC9" d="M15.6,20.9C12,20.9,9.1,18,9,14.4l0-0.4l3.2,0l0,0.4c0.1,1.9,1.6,3.4,3.4,3.4h9.2c1.9,0,3.5-1.6,3.5-3.5
			v-3.8c0-1.9-1.6-3.5-3.5-3.5h-9.2c-1.9,0-3.5,1.7-3.5,3.7v0.4H9v-0.4C9,7.1,12,4,15.6,4h9.2c3.6,0,6.6,3,6.6,6.6v3.8
			c0,3.6-3,6.6-6.6,6.6H15.6z"/>
		<path fill="#161616" d="M24.7,4.3c3.4,0,6.2,2.8,6.2,6.2v3.8c0,3.4-2.8,6.2-6.2,6.2h-9.2c-3.4,0-6.1-2.8-6.2-6.1l2.4,0
			c0.1,2,1.7,3.8,3.8,3.8h9.2c2.1,0,3.9-1.7,3.9-3.9v-3.8c0-2.1-1.7-3.9-3.9-3.9h-9.2c-2.1,0-3.9,1.9-3.9,4.1H9.3
			c0-3.4,2.8-6.4,6.2-6.4H24.7 M24.7,3.6h-9.2c-3.8,0-7,3.3-7,7.2v0.8h0.8h2.4h0.8v-0.8c0-1.8,1.5-3.3,3.1-3.3h9.2
			c1.7,0,3.1,1.4,3.1,3.1v3.8c0,1.7-1.4,3.1-3.1,3.1h-9.2c-1.6,0-3-1.4-3-3l0-0.7l-0.7,0l-2.4,0l-0.8,0l0,0.8c0.1,3.8,3.3,6.9,7,6.9
			h9.2c3.8,0,7-3.1,7-7v-3.8C31.7,6.7,28.6,3.6,24.7,3.6L24.7,3.6z"/>
	</g>
</g>
</svg>
