<?xml version="1.0" encoding="utf-8"?>
<!-- Generator: Adobe Illustrator 22.0.1, SVG Export Plug-In . SVG Version: 6.00 Build 0)  -->
<svg version="1.1" id="Ebene_1" xmlns="http://www.w3.org/2000/svg" xmlns:xlink="http://www.w3.org/1999/xlink" x="0px" y="0px"
	 width="28px" height="32px" viewBox="0 0 28 32" enable-background="new 0 0 28 32" xml:space="preserve">
<g>
	<path fill="#DFDCF2" stroke="#161616" stroke-width="0.5" stroke-miterlimit="10" d="M25.8,31.5h-21c-0.5,0-1-0.4-1-1V3.3
		c0-0.5,0.4-1,1-1h21c0.5,0,1,0.4,1,1v27.2C26.7,31.1,26.3,31.5,25.8,31.5z"/>
	<path fill="none" stroke="#161616" stroke-width="0.5" stroke-linecap="round" stroke-linejoin="round" stroke-miterlimit="10" d="
		M1.3,1.2c0-0.5,0.4-1,1-1h21"/>
	<path fill="none" stroke="#161616" stroke-width="0.5" stroke-linecap="round" stroke-linejoin="round" stroke-miterlimit="10" d="
		M2.3,2.2c0-0.5,0.4-1,1-1h21"/>
	<path fill="none" stroke="#0E2F6E" stroke-width="0.5" stroke-linecap="round" stroke-linejoin="round" stroke-miterlimit="10" d="
		M4.2,31.7"/>
	<path fill="#F2F2F2" stroke="#161616" stroke-width="0.5" stroke-linecap="round" stroke-miterlimit="10" d="M9.4,7.7h11.7"/>
	<path fill="#F2F2F2" stroke="#161616" stroke-width="0.5" stroke-linecap="round" stroke-miterlimit="10" d="M9.4,9.7h11.7"/>
	<path fill="#F2F2F2" stroke="#161616" stroke-width="0.5" stroke-linecap="round" stroke-miterlimit="10" d="M9.4,11.7h11.7"/>
	
		<polygon fill="#161616" stroke="#161616" stroke-width="0.5" stroke-linecap="round" stroke-linejoin="round" stroke-miterlimit="10" points="
		1.3,29.1 4.1,31.3 3.8,2.7 4.1,2.6 1.5,0.6 1.3,1.3 	"/>
</g>
</svg>
