<?xml version="1.0" encoding="utf-8"?>
<!-- Generator: Adobe Illustrator 22.0.1, SVG Export Plug-In . SVG Version: 6.00 Build 0)  -->
<svg version="1.1" id="Ebene_1" xmlns="http://www.w3.org/2000/svg" xmlns:xlink="http://www.w3.org/1999/xlink" x="0px" y="0px"
	 width="22px" height="32px" viewBox="0 0 22 32" enable-background="new 0 0 22 32" xml:space="preserve">
<g>
	<path fill="#DDDDDD" stroke="#333333" stroke-width="0.75" stroke-miterlimit="10" d="M6.3,27.7c0,0.4,0.1,0.7,0.3,1l1,1.5
		c0.2,0.3,0.4,0.5,0.7,0.6c0.3,0.1,0.6,0.2,0.9,0.2h3.6c0.3,0,0.6-0.1,0.9-0.2c0.3-0.1,0.5-0.4,0.7-0.6l1-1.5c0.2-0.3,0.3-0.7,0.3-1
		l0-2.3H6.3L6.3,27.7z"/>
	<line fill="#DDDDDD" stroke="#333333" stroke-width="0.75" stroke-miterlimit="10" x1="15.7" y1="27.3" x2="6.3" y2="27.3"/>
	<line fill="#DDDDDD" stroke="#333333" stroke-width="0.75" stroke-miterlimit="10" x1="14.8" y1="29.2" x2="7.2" y2="29.2"/>
	<path fill="#FFFFBA" stroke="#333333" stroke-width="0.75" stroke-miterlimit="10" d="M0.6,11.3c0,2.6,1,5,2.6,6.8
		c1,1.1,2.5,3.4,3.1,5.4c0,0,0,0,0,0h9.4c0,0,0,0,0,0c0.6-2,2.1-4.3,3.1-5.4c1.6-1.8,2.6-4.2,2.6-6.8c0-5.7-4.7-10.4-10.4-10.4
		C5,0.9,0.6,5.8,0.6,11.3z"/>
</g>
</svg>
