<?xml version="1.0" encoding="utf-8"?>
<!-- Generator: Adobe Illustrator 22.0.1, SVG Export Plug-In . SVG Version: 6.00 Build 0)  -->
<svg version="1.1" id="Ebene_1" xmlns="http://www.w3.org/2000/svg" xmlns:xlink="http://www.w3.org/1999/xlink" x="0px" y="0px"
	 width="32px" height="32px" viewBox="0 0 32 32" enable-background="new 0 0 32 32" xml:space="preserve">
<path fill="#DFDCF2" stroke="#333333" stroke-width="0.75" stroke-miterlimit="10" d="M16,2.7C7.6,2.7,0.8,8.2,0.8,15
	c0,2.9,1.3,5.6,3.4,7.8c-0.7,3-3.2,5.7-3.3,5.7c-0.1,0.1-0.2,0.3-0.1,0.5c0.1,0.2,0.2,0.3,0.4,0.3c3.9,0,6.9-1.9,8.4-3.1
	c1.9,0.7,4.1,1.2,6.4,1.2c8.4,0,15.2-5.5,15.2-12.4S24.4,2.7,16,2.7z M8.4,17c-1.1,0-1.9-0.8-1.9-1.9s0.8-1.9,1.9-1.9
	s1.9,0.8,1.9,1.9S9.4,17,8.4,17z M16,17c-1.1,0-1.9-0.8-1.9-1.9s0.8-1.9,1.9-1.9c1.1,0,1.9,0.8,1.9,1.9S17.1,17,16,17z M23.6,17
	c-1.1,0-1.9-0.8-1.9-1.9s0.8-1.9,1.9-1.9c1.1,0,1.9,0.8,1.9,1.9S24.7,17,23.6,17z"/>
</svg>
