<?xml version="1.0" encoding="UTF-8" standalone="no"?>
<!-- Generator: Adobe Illustrator 26.0.3, SVG Export Plug-In . SVG Version: 6.00 Build 0)  -->

<svg
   xmlns:dc="http://purl.org/dc/elements/1.1/"
   xmlns:cc="http://creativecommons.org/ns#"
   xmlns:rdf="http://www.w3.org/1999/02/22-rdf-syntax-ns#"
   xmlns:svg="http://www.w3.org/2000/svg"
   xmlns="http://www.w3.org/2000/svg"
   xmlns:sodipodi="http://sodipodi.sourceforge.net/DTD/sodipodi-0.dtd"
   xmlns:inkscape="http://www.inkscape.org/namespaces/inkscape"
   version="1.1"
   id="Logos"
   x="0px"
   y="0px"
   viewBox="0 0 1358.9 194.3"
   xml:space="preserve"
   sodipodi:docname="fau-white.svg"
   width="1358.9"
   height="194.3"
   inkscape:version="0.92.3 (2405546, 2018-03-11)"><metadata
   id="metadata110"><rdf:RDF><cc:Work
       rdf:about=""><dc:format>image/svg+xml</dc:format><dc:type
         rdf:resource="http://purl.org/dc/dcmitype/StillImage" /></cc:Work></rdf:RDF></metadata><defs
   id="defs108" /><sodipodi:namedview
   pagecolor="#ffffff"
   bordercolor="#666666"
   borderopacity="1"
   objecttolerance="10"
   gridtolerance="10"
   guidetolerance="10"
   inkscape:pageopacity="0"
   inkscape:pageshadow="2"
   inkscape:window-width="798"
   inkscape:window-height="480"
   id="namedview106"
   showgrid="false"
   inkscape:zoom="0.26093524"
   inkscape:cx="679.45002"
   inkscape:cy="99.599997"
   inkscape:window-x="0"
   inkscape:window-y="0"
   inkscape:window-maximized="0"
   inkscape:current-layer="Logos" />
<style
   type="text/css"
   id="style2">
	.st0{fill:#FFFFFF;}
</style>
<path
   id="FAU_x5F_Logo_00000087384039772143529630000018440013674716552331_"
   class="st0"
   d="M 0,20 9.7,10.3 V 187.2 H 0 Z M 29.2,11.9 H 146.1 V 2.2 H 19.5 v 116.9 h 107.6 v -9.7 H 29.2 Z M 141.8,89.8 H 48.7 v -39 h 79.6 L 138,41.1 H 48.7 v -9.7 h 97.4 V 21.7 H 39 v 77.9 h 93.2 z M 19.5,187.2 h 9.7 v -48.7 h 9.7 V 179 l 9.7,-9.7 V 138.5 H 127 v -9.7 H 19.5 Z M 493.9,2.1 v 112.1 c 0,26.1 -11.6,48.5 -38.8,65.7 l -0.2,-0.3 c 17.8,-14.1 29.3,-32.3 29.3,-55.8 V 2.1 h -9.7 v 121.5 c 0,35 -28.4,61.2 -63.3,61.2 -35,0 -63.3,-26.2 -63.3,-61.2 V 10.3 l -9.7,9.7 v 103.7 c 0,40.4 32.7,70.6 73.1,70.6 0.9,0 9.7,0 9.7,0 39.7,0 82.8,-29.3 82.8,-80.1 0,0 0,-112.2 0,-112.2 h -9.9 z m -82.8,173 c 29.6,0 53.6,-21.9 53.6,-51.5 v 0 V 10.3 L 455,20 v 94.1 c 0,18.8 -15.3,31.7 -34.1,31.7 -18.8,0 -34.1,-12.8 -34.1,-31.7 V 2 h -9.7 v 112.1 c 0,24.2 19.6,41.4 43.8,41.4 9.9,0 21.9,-4.9 30.1,-13.5 l 0.2,0.3 c -7.7,14.2 -21.8,23 -40,23 -24.1,0 -43.6,-17.4 -43.8,-41.4 v 0 V 2.1 h -9.7 v 121.8 0 c 0,29.4 23.9,51.2 53.4,51.2 z M 194.6,128.8 170,187.3 h 9.7 v 0 0 L 192,158.1 h 82.6 l 12.3,29.2 h 9.7 l -16.4,-39 h -84.1 l 4.1,-9.7 h 85.6 l 20.5,48.7 H 316 L 291.4,128.8 Z M 208.9,2.1 137.3,172 l 6.2,8.4 75.2,-178.3 z m 39,0 75,178.3 6.2,-8.4 L 257.6,2.1 Z m -59,116.9 -28.8,68.2 h -9.8 l 73.2,-173.6 40.3,95.6 h 9.7 L 228.4,2.1 h 9.7 L 287.3,119 Z m 44.4,-59 -20.8,49.3 H 254 Z M 193,109.3 h 9.8 l 25.6,-60.8 -4.9,-11.6 z"
   inkscape:connector-curvature="0"
   style="fill:#ffffff" />
<g
   id="g103"
   transform="translate(-48.7,-46.6)">
	<g
   id="g101">
		<path
   class="st0"
   d="M 625.4,55.1 H 608 v 9.6 h 13 V 71 h -13 v 16.5 h -6.9 V 48.7 h 24.3 z"
   id="path5"
   inkscape:connector-curvature="0"
   style="fill:#ffffff" />
		<path
   class="st0"
   d="m 646,59.3 -1,6.7 c -1,-0.5 -2.2,-0.9 -3.6,-0.9 -4.5,0 -5.7,3.6 -5.7,7.9 v 14.4 h -6.5 v -28 h 6.4 V 63 h 0.1 c 1.5,-2.6 4.1,-4.2 7.3,-4.2 0.9,-0.1 2.1,0.1 3,0.5 z"
   id="path7"
   inkscape:connector-curvature="0"
   style="fill:#ffffff" />
		<path
   class="st0"
   d="m 659,51 c 0,2.3 -1.9,4 -4.2,4 -2.3,0 -4.1,-1.6 -4.1,-4 0,-2.3 1.9,-4 4.1,-4 2.3,0 4.2,1.7 4.2,4 z m -0.9,36.5 h -6.5 v -28 h 6.5 z"
   id="path9"
   inkscape:connector-curvature="0"
   style="fill:#ffffff" />
		<path
   class="st0"
   d="m 678.9,88.1 c -8.3,0 -13.9,-5.9 -13.9,-14.7 0,-8.7 5.3,-14.6 13.1,-14.6 7.5,0 12.4,5.6 12.4,14.2 0,0.9 -0.1,1.9 -0.1,2.7 h -18.8 c 0.7,4.3 3.3,6.8 7.3,6.8 2.6,0 4.7,-1 6.9,-3.3 l 4.1,4.3 c -3.2,3.1 -6.8,4.6 -11,4.6 z m -7.3,-17.2 h 12.7 c -0.3,-4.3 -2.5,-6.8 -6.2,-6.8 -3.7,0 -6,2.5 -6.5,6.8 z"
   id="path11"
   inkscape:connector-curvature="0"
   style="fill:#ffffff" />
		<path
   class="st0"
   d="m 696.3,73.4 c 0,-9 4.6,-14.6 11.4,-14.6 3.5,0 6.3,1.5 8.1,3.8 h 0.1 V 48.2 l 6.5,-1.6 V 87.5 H 716 v -3.3 0 c -2,2.5 -4.9,4 -8.4,4 -6.7,-0.1 -11.3,-5.8 -11.3,-14.8 z m 6.5,0 c 0,5.7 2.4,9 6.5,9 2.5,0 4.6,-1.2 6.7,-3.7 V 68.4 c -1.9,-2.5 -4,-3.7 -6.7,-3.7 -4.3,0 -6.5,3.1 -6.5,8.7 z"
   id="path13"
   inkscape:connector-curvature="0"
   style="fill:#ffffff" />
		<path
   class="st0"
   d="m 747.9,59.3 -1,6.7 c -1,-0.5 -2.2,-0.9 -3.6,-0.9 -4.5,0 -5.7,3.6 -5.7,7.9 V 87.4 H 731 v -28 h 6.4 V 63 h 0.1 c 1.5,-2.6 4.1,-4.2 7.3,-4.2 1,-0.1 2.1,0.1 3.1,0.5 z"
   id="path15"
   inkscape:connector-curvature="0"
   style="fill:#ffffff" />
		<path
   class="st0"
   d="m 760.9,51 c 0,2.3 -1.9,4 -4.2,4 -2.3,0 -4.1,-1.6 -4.1,-4 0,-2.3 1.9,-4 4.1,-4 2.3,0 4.2,1.7 4.2,4 z M 760,87.5 h -6.5 v -28 h 6.5 z"
   id="path17"
   inkscape:connector-curvature="0"
   style="fill:#ffffff" />
		<path
   class="st0"
   d="m 790.4,83.6 c -2.8,3.1 -6,4.5 -10,4.5 -8,0 -13.4,-5.8 -13.4,-14.6 0,-8.8 5.4,-14.8 13.5,-14.8 4.2,0 7.6,1.6 10.1,4.8 l -4.5,4.3 c -1.6,-2.1 -3.4,-3.1 -5.6,-3.1 -4.1,0 -6.9,3.4 -6.9,8.7 0,5.2 2.8,8.7 6.9,8.7 2.2,0 4,-1 5.8,-3.1 z"
   id="path19"
   inkscape:connector-curvature="0"
   style="fill:#ffffff" />
		<path
   class="st0"
   d="m 820.3,87.5 h -6.5 v -16 c 0,-4.1 -1.3,-6.8 -5.2,-6.8 -4.5,0 -5.8,3.6 -5.8,6.8 v 16.1 h -6.5 V 48.2 l 6.5,-1.6 v 16.3 h 0.1 c 1.6,-2.5 4.5,-4.1 8.2,-4.1 6.5,0 9.2,4.8 9.2,11.3 z"
   id="path21"
   inkscape:connector-curvature="0"
   style="fill:#ffffff" />
		<path
   class="st0"
   d="m 841.5,73.4 h -13.7 v -6.2 h 13.7 z"
   id="path23"
   inkscape:connector-curvature="0"
   style="fill:#ffffff" />
		<path
   class="st0"
   d="m 859.3,48.7 h 7.3 L 881,87.5 h -7.5 l -2.8,-8.2 H 855 l -2.8,8.2 h -7.3 z M 857.2,73 h 11.3 l -5.6,-16.4 h -0.1 z"
   id="path25"
   inkscape:connector-curvature="0"
   style="fill:#ffffff" />
		<path
   class="st0"
   d="m 893.3,87.5 h -6.5 V 48.1 l 6.5,-1.5 z"
   id="path27"
   inkscape:connector-curvature="0"
   style="fill:#ffffff" />
		<path
   class="st0"
   d="m 914.2,88.1 c -8.3,0 -13.9,-5.9 -13.9,-14.7 0,-8.7 5.3,-14.6 13.1,-14.6 7.5,0 12.4,5.6 12.4,14.2 0,0.9 -0.1,1.9 -0.1,2.7 H 907 c 0.7,4.3 3.3,6.8 7.3,6.8 2.6,0 4.7,-1 6.9,-3.3 l 4.1,4.3 c -3.3,3.1 -6.8,4.6 -11.1,4.6 z m -7.3,-17.2 h 12.7 c -0.3,-4.3 -2.5,-6.8 -6.2,-6.8 -3.6,0 -5.9,2.5 -6.5,6.8 z"
   id="path29"
   inkscape:connector-curvature="0"
   style="fill:#ffffff" />
		<path
   class="st0"
   d="m 956.2,87.5 h -7.5 l -6,-9.7 h -0.1 l -5.8,9.7 h -7.4 L 939,73 930.1,59.5 h 7.4 l 5.3,8.6 h 0.1 l 5.2,-8.6 h 7.3 l -8.8,13.4 z"
   id="path31"
   inkscape:connector-curvature="0"
   style="fill:#ffffff" />
		<path
   class="st0"
   d="m 971.7,70.1 c 1.8,0 3.5,0.1 5.3,0.6 v -1 c 0,-3.6 -2.1,-5.4 -6.2,-5.4 -2.3,0 -4.8,0.6 -7.1,1.6 l -1.4,-5.5 c 2.6,-1 6,-1.6 9.2,-1.6 7.9,0 11.9,3.7 11.9,10.8 v 17.9 h -6.2 v -3 h -0.1 c -2.4,2.5 -4.9,3.6 -8.2,3.6 -5.6,0 -9.2,-3.5 -9.2,-8.9 -0.1,-5.9 4.2,-9.1 12,-9.1 z m -1.1,13.1 c 2.4,0 4.6,-1.2 6.4,-3.4 V 75 c -1.5,-0.4 -3.1,-0.5 -4.6,-0.5 -4.1,0 -6.5,1.6 -6.5,4.6 0,2.5 1.8,4.1 4.7,4.1 z"
   id="path33"
   inkscape:connector-curvature="0"
   style="fill:#ffffff" />
		<path
   class="st0"
   d="m 1015.8,87.5 h -6.5 v -16 c 0,-4.1 -1.2,-6.8 -5.2,-6.8 -4.6,0 -5.8,3.7 -5.8,6.8 v 16.1 h -6.5 v -28 h 6.5 V 63 h 0.1 c 1.7,-2.5 4.6,-4.1 8.2,-4.1 6.4,0 9.2,4.7 9.2,11.3 z"
   id="path35"
   inkscape:connector-curvature="0"
   style="fill:#ffffff" />
		<path
   class="st0"
   d="m 1022.7,73.4 c 0,-9 4.6,-14.6 11.4,-14.6 3.5,0 6.3,1.5 8.1,3.8 h 0.1 V 48.2 l 6.5,-1.6 v 40.9 h -6.4 v -3.3 h -0.1 c -2,2.5 -4.9,4 -8.4,4 -6.6,-0.1 -11.2,-5.8 -11.2,-14.8 z m 6.5,0 c 0,5.7 2.4,9 6.5,9 2.5,0 4.6,-1.2 6.7,-3.7 V 68.4 c -1.9,-2.5 -4,-3.7 -6.7,-3.7 -4.3,0 -6.5,3.1 -6.5,8.7 z"
   id="path37"
   inkscape:connector-curvature="0"
   style="fill:#ffffff" />
		<path
   class="st0"
   d="m 1069.8,88.1 c -8.3,0 -13.9,-5.9 -13.9,-14.7 0,-8.7 5.3,-14.6 13.1,-14.6 7.5,0 12.4,5.6 12.4,14.2 0,0.9 -0.1,1.9 -0.1,2.7 h -18.8 c 0.7,4.3 3.3,6.8 7.3,6.8 2.6,0 4.7,-1 6.9,-3.3 l 4.1,4.3 c -3.2,3.1 -6.7,4.6 -11,4.6 z m -7.3,-17.2 h 12.7 c -0.3,-4.3 -2.5,-6.8 -6.2,-6.8 -3.6,0 -5.9,2.5 -6.5,6.8 z"
   id="path39"
   inkscape:connector-curvature="0"
   style="fill:#ffffff" />
		<path
   class="st0"
   d="m 1105.6,59.3 -1,6.7 c -1,-0.5 -2.2,-0.9 -3.6,-0.9 -4.5,0 -5.7,3.6 -5.7,7.9 v 14.4 h -6.5 v -28 h 6.4 V 63 h 0.1 c 1.5,-2.6 4.1,-4.2 7.3,-4.2 0.9,-0.1 2,0.1 3,0.5 z"
   id="path41"
   inkscape:connector-curvature="0"
   style="fill:#ffffff" />
		<path
   class="st0"
   d="m 1123.4,73.4 h -13.7 v -6.2 h 13.7 z"
   id="path43"
   inkscape:connector-curvature="0"
   style="fill:#ffffff" />
		<path
   class="st0"
   d="m 1162,72.1 c 0,9.3 -4.8,16 -15.2,16 -10.3,0 -15.1,-6.6 -15.1,-16 V 48.7 h 7 v 23 c 0,5.8 2.5,9.8 8.2,9.8 5.7,0 8,-3.9 8,-9.8 v -23 h 7 v 23.4 z"
   id="path45"
   inkscape:connector-curvature="0"
   style="fill:#ffffff" />
		<path
   class="st0"
   d="m 1194.8,87.5 h -6.5 v -16 c 0,-4.1 -1.2,-6.8 -5.2,-6.8 -4.6,0 -5.8,3.7 -5.8,6.8 v 16.1 h -6.5 v -28 h 6.5 V 63 h 0.1 c 1.7,-2.5 4.6,-4.1 8.2,-4.1 6.4,0 9.2,4.7 9.2,11.3 z"
   id="path47"
   inkscape:connector-curvature="0"
   style="fill:#ffffff" />
		<path
   class="st0"
   d="m 1210.5,51 c 0,2.3 -1.9,4 -4.2,4 -2.3,0 -4.1,-1.6 -4.1,-4 0,-2.3 1.9,-4 4.1,-4 2.3,0 4.2,1.7 4.2,4 z m -0.9,36.5 h -6.5 v -28 h 6.5 z"
   id="path49"
   inkscape:connector-curvature="0"
   style="fill:#ffffff" />
		<path
   class="st0"
   d="m 1242.3,59.5 -10.2,28 h -6.8 l -10.2,-28 h 7.2 l 6.4,20.3 h 0.1 l 6.4,-20.3 z"
   id="path51"
   inkscape:connector-curvature="0"
   style="fill:#ffffff" />
		<path
   class="st0"
   d="m 1259.2,88.1 c -8.3,0 -13.9,-5.9 -13.9,-14.7 0,-8.7 5.3,-14.6 13.1,-14.6 7.5,0 12.4,5.6 12.4,14.2 0,0.9 -0.1,1.9 -0.1,2.7 H 1252 c 0.7,4.3 3.3,6.8 7.3,6.8 2.6,0 4.7,-1 6.9,-3.3 l 4.1,4.3 c -3.3,3.1 -6.8,4.6 -11.1,4.6 z m -7.3,-17.2 h 12.7 c -0.3,-4.3 -2.5,-6.8 -6.2,-6.8 -3.6,0 -5.9,2.5 -6.5,6.8 z"
   id="path53"
   inkscape:connector-curvature="0"
   style="fill:#ffffff" />
		<path
   class="st0"
   d="m 1295,59.3 -1,6.7 c -1,-0.5 -2.2,-0.9 -3.6,-0.9 -4.5,0 -5.7,3.6 -5.7,7.9 v 14.4 h -6.5 v -28 h 6.4 V 63 h 0.1 c 1.5,-2.6 4.1,-4.2 7.3,-4.2 0.9,-0.1 2,0.1 3,0.5 z"
   id="path55"
   inkscape:connector-curvature="0"
   style="fill:#ffffff" />
		<path
   class="st0"
   d="m 1301.2,79.5 c 2.8,2.1 5.4,3.1 7.9,3.1 2.4,0 4.1,-1.1 4.1,-2.8 0,-4.8 -14,-3.1 -14,-12.4 0,-5.2 4.3,-8.7 10.6,-8.7 3.4,0 6.7,1 9.7,2.9 l -3.1,5.1 c -2.4,-1.6 -4.6,-2.5 -6.7,-2.5 -2.4,0 -4,1 -4,2.6 0,4.6 14,3 14,12.4 0,5.3 -4.3,8.9 -10.8,8.9 -3.7,0 -7.5,-1.2 -10.8,-3.4 z"
   id="path57"
   inkscape:connector-curvature="0"
   style="fill:#ffffff" />
		<path
   class="st0"
   d="m 1334.1,51 c 0,2.3 -1.9,4 -4.2,4 -2.3,0 -4.1,-1.6 -4.1,-4 0,-2.3 1.9,-4 4.1,-4 2.3,0 4.2,1.7 4.2,4 z m -0.9,36.5 h -6.5 v -28 h 6.5 z"
   id="path59"
   inkscape:connector-curvature="0"
   style="fill:#ffffff" />
		<path
   class="st0"
   d="m 1356.2,81.5 v 5.6 c -1.4,0.7 -3.6,1 -5.5,1 -4.9,0 -7.6,-2.7 -7.6,-7.9 V 64.9 h -4.3 v -5.4 h 4.2 v -7.6 l 6.5,-1.4 v 9.1 h 6.7 V 65 h -6.7 v 13.8 c 0,2.6 0.9,3.7 3,3.7 1.2,-0.1 2.6,-0.5 3.7,-1 z"
   id="path61"
   inkscape:connector-curvature="0"
   style="fill:#ffffff" />
		<path
   class="st0"
   d="m 1373.3,70.1 c 1.8,0 3.5,0.1 5.3,0.6 v -1 c 0,-3.6 -2.1,-5.4 -6.2,-5.4 -2.3,0 -4.8,0.6 -7.1,1.6 l -1.4,-5.5 c 2.6,-1 6,-1.6 9.2,-1.6 7.9,0 11.9,3.7 11.9,10.8 v 17.9 h -6.2 v -3 h -0.1 c -2.4,2.5 -4.9,3.6 -8.2,3.6 -5.6,0 -9.2,-3.5 -9.2,-8.9 0,-5.9 4.2,-9.1 12,-9.1 z m -5.3,-15 c -2.1,0 -3.9,-1.8 -3.9,-3.8 0,-2 1.8,-3.8 3.9,-3.8 2.1,0 3.9,1.8 3.9,3.8 0,2.1 -1.8,3.8 -3.9,3.8 z m 4.2,28.1 c 2.4,0 4.6,-1.2 6.4,-3.4 V 75 c -1.5,-0.4 -3.1,-0.5 -4.6,-0.5 -4.1,0 -6.5,1.6 -6.5,4.6 0,2.5 1.9,4.1 4.7,4.1 z m 7.2,-28.1 c -2.1,0 -3.9,-1.8 -3.9,-3.8 0,-2 1.8,-3.8 3.9,-3.8 2.1,0 3.9,1.8 3.9,3.8 0,2.1 -1.8,3.8 -3.9,3.8 z"
   id="path63"
   inkscape:connector-curvature="0"
   style="fill:#ffffff" />
		<path
   class="st0"
   d="m 1407.6,81.5 v 5.6 c -1.4,0.7 -3.6,1 -5.5,1 -4.9,0 -7.6,-2.7 -7.6,-7.9 V 64.9 h -4.3 v -5.4 h 4.2 v -7.6 l 6.5,-1.4 v 9.1 h 6.7 V 65 h -6.7 v 13.8 c 0,2.6 0.9,3.7 3,3.7 1.2,-0.1 2.6,-0.5 3.7,-1 z"
   id="path65"
   inkscape:connector-curvature="0"
   style="fill:#ffffff" />
		<path
   class="st0"
   d="m 626.4,148 h -25.3 v -38.7 h 24.6 v 6.3 h -17.8 v 9.2 h 13.5 v 6.2 h -13.5 v 10.7 h 18.5 z"
   id="path67"
   inkscape:connector-curvature="0"
   style="fill:#ffffff" />
		<path
   class="st0"
   d="m 650,119.8 -1,6.7 c -1,-0.5 -2.2,-0.9 -3.6,-0.9 -4.5,0 -5.7,3.6 -5.7,7.9 V 148 h -6.5 v -28 h 6.4 v 3.5 h 0.1 c 1.5,-2.6 4.1,-4.2 7.3,-4.2 0.9,-0.1 2.1,0.1 3,0.5 z"
   id="path69"
   inkscape:connector-curvature="0"
   style="fill:#ffffff" />
		<path
   class="st0"
   d="m 662.1,148 h -6.5 v -39.4 l 6.5,-1.5 z"
   id="path71"
   inkscape:connector-curvature="0"
   style="fill:#ffffff" />
		<path
   class="st0"
   d="m 681,130.6 c 1.8,0 3.5,0.1 5.3,0.6 v -1 c 0,-3.6 -2.1,-5.4 -6.2,-5.4 -2.3,0 -4.8,0.6 -7.1,1.6 l -1.4,-5.5 c 2.6,-1 6,-1.6 9.2,-1.6 7.9,0 11.9,3.7 11.9,10.8 V 148 h -6.2 v -3 h -0.1 c -2.4,2.5 -4.9,3.6 -8.2,3.6 -5.6,0 -9.2,-3.5 -9.2,-8.9 -0.1,-5.9 4.2,-9.1 12,-9.1 z m -1.1,13.1 c 2.4,0 4.6,-1.2 6.4,-3.4 v -4.9 c -1.5,-0.4 -3.1,-0.5 -4.6,-0.5 -4.1,0 -6.5,1.6 -6.5,4.6 0,2.6 1.8,4.2 4.7,4.2 z"
   id="path73"
   inkscape:connector-curvature="0"
   style="fill:#ffffff" />
		<path
   class="st0"
   d="m 725.1,148 h -6.5 v -16 c 0,-4.1 -1.2,-6.8 -5.2,-6.8 -4.6,0 -5.8,3.7 -5.8,6.8 v 16 H 701 v -28 h 6.5 v 3.4 h 0.1 c 1.6,-2.5 4.6,-4.1 8.2,-4.1 6.4,0 9.2,4.7 9.2,11.3 V 148 Z"
   id="path75"
   inkscape:connector-curvature="0"
   style="fill:#ffffff" />
		<path
   class="st0"
   d="m 739.4,154.1 1.4,-0.1 c 8.4,-0.3 10.8,-2.7 10.8,-8 v -1.8 h -0.1 c -2,2.5 -5.1,3.9 -8.5,3.9 -6.8,0 -11.1,-5.6 -11.1,-14.2 0,-8.9 4.6,-14.7 11.4,-14.7 3.4,0 6.4,1.4 8.2,3.9 h 0.1 V 120 h 6.4 v 25.1 c 0,9.1 -4.6,13.6 -16.8,14.1 l -1.4,0.1 z m -0.9,-20.3 c 0,5.5 2.4,8.7 6.5,8.7 2.5,0 4.6,-1.2 6.6,-3.7 v -10 c -1.9,-2.4 -4.1,-3.7 -6.7,-3.7 -4,0 -6.4,3.2 -6.4,8.7 z"
   id="path77"
   inkscape:connector-curvature="0"
   style="fill:#ffffff" />
		<path
   class="st0"
   d="m 779.1,148.6 c -8.3,0 -13.9,-5.9 -13.9,-14.7 0,-8.7 5.3,-14.6 13.1,-14.6 7.5,0 12.4,5.6 12.4,14.2 0,0.9 -0.1,1.9 -0.1,2.7 h -18.8 c 0.7,4.3 3.3,6.8 7.3,6.8 2.6,0 4.7,-1 6.9,-3.3 l 4.1,4.3 c -3.2,3.1 -6.7,4.6 -11,4.6 z m -7.3,-17.2 h 12.7 c -0.3,-4.3 -2.5,-6.8 -6.2,-6.8 -3.6,0 -5.9,2.5 -6.5,6.8 z"
   id="path79"
   inkscape:connector-curvature="0"
   style="fill:#ffffff" />
		<path
   class="st0"
   d="m 822.1,148 h -6.5 v -16 c 0,-4.1 -1.2,-6.8 -5.2,-6.8 -4.6,0 -5.8,3.7 -5.8,6.8 v 16 H 798 v -28 h 6.5 v 3.4 h 0.1 c 1.6,-2.5 4.6,-4.1 8.2,-4.1 6.4,0 9.2,4.7 9.2,11.3 V 148 Z"
   id="path81"
   inkscape:connector-curvature="0"
   style="fill:#ffffff" />
		<path
   class="st0"
   d="m 843.3,133.9 h -13.7 v -6.2 h 13.7 z"
   id="path83"
   inkscape:connector-curvature="0"
   style="fill:#ffffff" />
		<path
   class="st0"
   d="m 851.8,109.2 h 7 l 17.2,27 h 0.1 l -0.2,-27 h 6.7 V 148 h -6.8 l -17.3,-27.2 h -0.1 l 0.1,27.2 h -6.7 z"
   id="path85"
   inkscape:connector-curvature="0"
   style="fill:#ffffff" />
		<path
   class="st0"
   d="m 898.1,136.8 c 0,3.8 1.9,5.9 5.6,5.9 3.6,0 5.4,-2 5.4,-5.9 V 120 h 6.5 v 17 c 0,7.4 -4.1,11.7 -11.8,11.7 -7.6,0 -12.3,-4.3 -12.3,-11.6 v -17 h 6.5 v 16.7 z m -0.2,-21.2 c -2.1,0 -3.9,-1.8 -3.9,-3.8 0,-2 1.8,-3.8 3.9,-3.8 2.1,0 3.9,1.8 3.9,3.8 0,2.1 -1.8,3.8 -3.9,3.8 z m 11.4,0 c -2.1,0 -3.9,-1.8 -3.9,-3.8 0,-2 1.8,-3.8 3.9,-3.8 2.1,0 3.9,1.8 3.9,3.8 0,2.1 -1.8,3.8 -3.9,3.8 z"
   id="path87"
   inkscape:connector-curvature="0"
   style="fill:#ffffff" />
		<path
   class="st0"
   d="m 940.9,119.8 -1,6.7 c -1,-0.5 -2.2,-0.9 -3.6,-0.9 -4.5,0 -5.7,3.6 -5.7,7.9 V 148 h -6.5 v -28 h 6.4 v 3.5 h 0.1 c 1.5,-2.6 4.1,-4.2 7.3,-4.2 0.8,-0.1 2,0.1 3,0.5 z"
   id="path89"
   inkscape:connector-curvature="0"
   style="fill:#ffffff" />
		<path
   class="st0"
   d="m 970.4,148 h -6.5 v -16 c 0,-4.1 -1.2,-6.8 -5.2,-6.8 -4.6,0 -5.8,3.7 -5.8,6.8 v 16 h -6.5 v -28 h 6.5 v 3.4 h 0.1 c 1.7,-2.5 4.6,-4.1 8.2,-4.1 6.4,0 9.2,4.7 9.2,11.3 z"
   id="path91"
   inkscape:connector-curvature="0"
   style="fill:#ffffff" />
		<path
   class="st0"
   d="m 1004.9,133.8 c 0,9 -4.6,14.8 -11.4,14.8 -3.5,0 -6.4,-1.5 -8.3,-3.9 H 985 v 3.2 h -6.3 v -39.3 l 6.5,-1.6 v 16.2 h 0.1 c 1.9,-2.5 4.7,-4 8.2,-4 6.8,0 11.4,5.5 11.4,14.6 z m -6.5,0.1 c 0,-5.8 -2.4,-8.8 -6.5,-8.8 -2.5,0 -4.6,1.1 -6.6,3.6 V 139 c 1.9,2.5 4,3.8 6.7,3.8 4.2,0 6.4,-3.3 6.4,-8.9 z"
   id="path93"
   inkscape:connector-curvature="0"
   style="fill:#ffffff" />
		<path
   class="st0"
   d="m 1024.5,148.6 c -8.3,0 -13.9,-5.9 -13.9,-14.7 0,-8.7 5.3,-14.6 13.1,-14.6 7.5,0 12.4,5.6 12.4,14.2 0,0.9 -0.1,1.9 -0.1,2.7 h -18.8 c 0.7,4.3 3.3,6.8 7.3,6.8 2.6,0 4.7,-1 6.9,-3.3 l 4.1,4.3 c -3.2,3.1 -6.8,4.6 -11,4.6 z m -7.3,-17.2 h 12.7 c -0.3,-4.3 -2.5,-6.8 -6.2,-6.8 -3.7,0 -6,2.5 -6.5,6.8 z"
   id="path95"
   inkscape:connector-curvature="0"
   style="fill:#ffffff" />
		<path
   class="st0"
   d="m 1060.3,119.8 -1,6.7 c -1,-0.5 -2.2,-0.9 -3.6,-0.9 -4.5,0 -5.7,3.6 -5.7,7.9 V 148 h -6.5 v -28 h 6.4 v 3.5 h 0.1 c 1.5,-2.6 4.1,-4.2 7.3,-4.2 0.8,-0.1 2,0.1 3,0.5 z"
   id="path97"
   inkscape:connector-curvature="0"
   style="fill:#ffffff" />
		<path
   class="st0"
   d="m 1071.3,154.1 1.4,-0.1 c 8.4,-0.3 10.8,-2.7 10.8,-8 v -1.8 h -0.1 c -2,2.5 -5.1,3.9 -8.5,3.9 -6.8,0 -11.1,-5.6 -11.1,-14.2 0,-8.9 4.6,-14.7 11.4,-14.7 3.4,0 6.4,1.4 8.2,3.9 h 0.1 V 120 h 6.4 v 25.1 c 0,9.1 -4.6,13.6 -16.8,14.1 l -1.4,0.1 z m -0.8,-20.3 c 0,5.5 2.4,8.7 6.5,8.7 2.5,0 4.6,-1.2 6.6,-3.7 v -10 c -1.9,-2.4 -4.1,-3.7 -6.7,-3.7 -4,0 -6.4,3.2 -6.4,8.7 z"
   id="path99"
   inkscape:connector-curvature="0"
   style="fill:#ffffff" />
	</g>
</g>
</svg>