<?xml version="1.0" encoding="UTF-8" standalone="no"?>
<!-- Generator: Adobe Illustrator 26.0.3, SVG Export Plug-In . SVG Version: 6.00 Build 0)  -->

<svg
   xmlns:dc="http://purl.org/dc/elements/1.1/"
   xmlns:cc="http://creativecommons.org/ns#"
   xmlns:rdf="http://www.w3.org/1999/02/22-rdf-syntax-ns#"
   xmlns:svg="http://www.w3.org/2000/svg"
   xmlns="http://www.w3.org/2000/svg"
   xmlns:sodipodi="http://sodipodi.sourceforge.net/DTD/sodipodi-0.dtd"
   xmlns:inkscape="http://www.inkscape.org/namespaces/inkscape"
   version="1.1"
   id="Ebene_1"
   x="0px"
   y="0px"
   viewBox="0 0 1340.4 427.10002"
   xml:space="preserve"
   sodipodi:docname="ili-white.svg"
   width="1340.4"
   height="427.10001"
   inkscape:version="0.92.3 (2405546, 2018-03-11)"><metadata
   id="metadata75"><rdf:RDF><cc:Work
       rdf:about=""><dc:format>image/svg+xml</dc:format><dc:type
         rdf:resource="http://purl.org/dc/dcmitype/StillImage" /></cc:Work></rdf:RDF></metadata><defs
   id="defs73" /><sodipodi:namedview
   pagecolor="#ffffff"
   bordercolor="#666666"
   borderopacity="1"
   objecttolerance="10"
   gridtolerance="10"
   guidetolerance="10"
   inkscape:pageopacity="0"
   inkscape:pageshadow="2"
   inkscape:window-width="1159"
   inkscape:window-height="562"
   id="namedview71"
   showgrid="false"
   inkscape:zoom="0.27741275"
   inkscape:cx="668.00002"
   inkscape:cy="214.95001"
   inkscape:window-x="0"
   inkscape:window-y="0"
   inkscape:window-maximized="0"
   inkscape:current-layer="Ebene_1" />
<style
   type="text/css"
   id="style2">
	.st0{fill:#FFFFFF;}
</style>
<g
   id="g58"
   transform="translate(-16.9,-12.5)">
	<g
   id="g56">
		<path
   class="st0"
   d="M 466.5,253 H 487 v 76.7 h -20.5 z"
   id="path4"
   inkscape:connector-curvature="0"
   style="fill:#ffffff" />
		<path
   class="st0"
   d="m 561.3,296.4 v 33.2 H 542 v -29.2 c 0,-4.5 -0.8,-7.8 -2.4,-10 -1.6,-2.2 -4,-3.3 -7.2,-3.3 -3.4,0 -6.1,1.4 -8.1,4.1 -2,2.7 -3.1,6.4 -3.1,11 v 27.3 h -19.5 v -56.9 h 17.7 V 283 c 2.2,-3.8 5.1,-6.7 8.6,-8.7 3.5,-2 7.5,-3 11.9,-3 6.9,0 12.2,2.1 15.9,6.4 3.7,4.3 5.5,10.5 5.5,18.7 z"
   id="path6"
   inkscape:connector-curvature="0"
   style="fill:#ffffff" />
		<path
   class="st0"
   d="m 616.7,274.3 -1.9,13.7 c -2.6,-1.5 -5.2,-2.6 -7.9,-3.4 -2.7,-0.8 -5.2,-1.2 -7.6,-1.2 -2.4,0 -4.2,0.4 -5.5,1.3 -1.3,0.8 -1.9,2 -1.9,3.6 0,2 2.7,3.7 8,5.2 1.7,0.5 3,0.8 4,1.1 6.1,1.8 10.3,4 12.7,6.6 2.4,2.6 3.6,6.1 3.6,10.6 0,6 -2.3,10.7 -7,14.2 -4.7,3.5 -11.1,5.2 -19.4,5.2 -3.5,0 -6.9,-0.3 -10.4,-0.8 -3.4,-0.5 -6.8,-1.3 -10,-2.4 l 1.2,-14.6 c 2.7,1.4 5.6,2.5 8.5,3.2 3,0.7 5.9,1.1 9,1.1 2.8,0 5,-0.4 6.4,-1.2 1.4,-0.8 2.2,-1.9 2.2,-3.5 0,-2.3 -2.9,-4.3 -8.8,-6 -1.4,-0.4 -2.6,-0.8 -3.4,-1 -5.9,-1.9 -10.1,-4.1 -12.4,-6.5 -2.3,-2.4 -3.5,-5.5 -3.5,-9.4 0,-5.9 2.3,-10.6 7,-13.9 4.7,-3.3 11.3,-4.9 19.8,-4.9 2.8,0 5.6,0.3 8.5,0.8 2.9,0.5 5.8,1.2 8.8,2.2 z"
   id="path8"
   inkscape:connector-curvature="0"
   style="fill:#ffffff" />
		<path
   class="st0"
   d="m 655.2,253.5 v 19.3 h 13.9 v 14 h -13.9 v 19.7 c 0,4.2 0.7,7.2 2,8.9 1.4,1.7 3.7,2.6 7,2.6 0.5,0 1.1,-0.1 1.8,-0.2 0.7,-0.1 1.7,-0.4 3.1,-0.7 l 0.3,12.6 c -2.1,0.5 -4.1,0.8 -6.1,1.1 -2,0.3 -3.9,0.4 -5.7,0.4 -7.7,0 -13.2,-1.9 -16.7,-5.7 -3.4,-3.8 -5.1,-10 -5.1,-18.5 v -20.2 h -10.9 v -14 h 12 v -13.1 z"
   id="path10"
   inkscape:connector-curvature="0"
   style="fill:#ffffff" />
		<path
   class="st0"
   d="m 680,246.7 h 19.5 v 15.8 H 680 Z m 0,26.1 h 19.5 v 56.9 H 680 Z"
   id="path12"
   inkscape:connector-curvature="0"
   style="fill:#ffffff" />
		<path
   class="st0"
   d="m 739.1,253.5 v 19.3 H 753 v 14 h -13.9 v 19.7 c 0,4.2 0.7,7.2 2,8.9 1.4,1.7 3.7,2.6 7,2.6 0.5,0 1.1,-0.1 1.8,-0.2 0.7,-0.1 1.7,-0.4 3.1,-0.7 l 0.3,12.6 c -2.1,0.5 -4.1,0.8 -6.1,1.1 -2,0.3 -3.9,0.4 -5.7,0.4 -7.7,0 -13.2,-1.9 -16.7,-5.7 -3.4,-3.8 -5.1,-10 -5.1,-18.5 v -20.2 h -10.9 v -14 h 12 v -13.1 z"
   id="path14"
   inkscape:connector-curvature="0"
   style="fill:#ffffff" />
		<path
   class="st0"
   d="m 762.7,272.8 h 19.4 v 28.6 c 0,4.5 0.8,7.8 2.4,10 1.6,2.2 4,3.3 7.2,3.3 3.7,0 6.5,-1.5 8.3,-4.5 1.9,-3 2.8,-7.4 2.8,-13.1 v -24.3 h 19.5 v 56.9 H 804.6 V 319 c -2.2,3.8 -5.1,6.7 -8.6,8.7 -3.5,2 -7.5,3 -12,3 -7,0 -12.3,-2.1 -15.9,-6.4 -3.7,-4.3 -5.5,-10.5 -5.5,-18.7 z"
   id="path16"
   inkscape:connector-curvature="0"
   style="fill:#ffffff" />
		<path
   class="st0"
   d="m 861.9,253.5 v 19.3 h 13.9 v 14 h -13.9 v 19.7 c 0,4.2 0.7,7.2 2,8.9 1.4,1.7 3.7,2.6 7,2.6 0.5,0 1.1,-0.1 1.8,-0.2 0.7,-0.1 1.7,-0.4 3.1,-0.7 l 0.3,12.6 c -2.1,0.5 -4.1,0.8 -6.1,1.1 -2,0.3 -3.9,0.4 -5.7,0.4 -7.7,0 -13.2,-1.9 -16.7,-5.7 -3.4,-3.8 -5.1,-10 -5.1,-18.5 v -20.2 h -10.9 v -14 h 12 v -13.1 z"
   id="path18"
   inkscape:connector-curvature="0"
   style="fill:#ffffff" />
		<path
   class="st0"
   d="m 960.4,247 -1.2,13.3 c -0.8,-0.4 -1.6,-0.6 -2.4,-0.8 -0.8,-0.2 -1.6,-0.3 -2.5,-0.3 -2.8,0 -4.8,0.8 -6.1,2.5 -1.3,1.7 -1.9,4.3 -1.9,7.8 v 3.4 h 13.6 V 287 h -13.6 v 42.7 H 927.1 V 287 h -12 v -14.1 h 12 v -5.2 c 0,-7.3 1.9,-12.8 5.6,-16.5 3.7,-3.7 9.3,-5.5 16.6,-5.5 2.2,0 4.1,0.1 5.9,0.3 1.9,0.2 3.6,0.5 5.2,1 z"
   id="path20"
   inkscape:connector-curvature="0"
   style="fill:#ffffff" />
		<path
   class="st0"
   d="m 967.7,272.8 h 19.4 v 28.6 c 0,4.5 0.8,7.8 2.4,10 1.6,2.2 4,3.3 7.2,3.3 3.7,0 6.5,-1.5 8.3,-4.5 1.9,-3 2.8,-7.4 2.8,-13.1 v -24.3 h 19.5 v 56.9 h -17.7 V 319 c -2.2,3.8 -5.1,6.7 -8.6,8.7 -3.5,2 -7.5,3 -12,3 -7,0 -12.3,-2.1 -15.9,-6.4 -3.7,-4.3 -5.5,-10.5 -5.5,-18.7 z m 13.9,-24.7 h 13.5 v 14.5 h -13.5 z m 19.6,0 h 13.6 v 14.5 h -13.6 z"
   id="path22"
   inkscape:connector-curvature="0"
   style="fill:#ffffff" />
		<path
   class="st0"
   d="m 1082.9,272 -1,16.8 c -0.8,-0.3 -1.7,-0.6 -2.6,-0.7 -0.9,-0.1 -2.1,-0.2 -3.4,-0.2 -4.6,0 -8.1,1.5 -10.5,4.5 -2.4,3 -3.5,7.4 -3.5,13.2 v 24.2 h -19.5 v -56.9 h 17.4 v 10.9 c 2,-4.2 4.4,-7.3 7.2,-9.3 2.8,-2 6.2,-3 10.1,-3 1,0 2.8,0.2 5.5,0.6 0.1,-0.2 0.2,-0.1 0.3,-0.1 z"
   id="path24"
   inkscape:connector-curvature="0"
   style="fill:#ffffff" />
		<path
   class="st0"
   d="M 466.5,361.3 H 487 v 61.5 h 30.9 V 438 h -51.3 v -76.7 z"
   id="path26"
   inkscape:connector-curvature="0"
   style="fill:#ffffff" />
		<path
   class="st0"
   d="m 582.8,410.7 v 4.7 h -39.9 c 0.4,3.7 2,6.5 4.8,8.5 2.8,2 6.6,3 11.3,3 2.8,0 5.8,-0.4 9,-1.2 3.2,-0.8 6.4,-1.9 9.8,-3.5 V 436 c -3.2,1.2 -6.5,2 -9.9,2.6 -3.4,0.6 -7,0.9 -10.8,0.9 -10.4,0 -18.4,-2.7 -24.3,-8.2 -5.8,-5.5 -8.7,-13.1 -8.7,-22.8 0,-8.9 2.7,-15.9 8.1,-21.1 5.4,-5.2 12.6,-7.8 21.8,-7.8 9.2,0 16.3,2.7 21.3,8.1 5,5.4 7.5,13.1 7.5,23 z M 565.6,404 c -0.4,-3.8 -1.6,-6.8 -3.7,-9 -2.1,-2.2 -4.7,-3.3 -7.8,-3.3 -3.1,0 -5.7,1.1 -7.7,3.3 -2,2.2 -3.2,5.2 -3.7,9 z"
   id="path28"
   inkscape:connector-curvature="0"
   style="fill:#ffffff" />
		<path
   class="st0"
   d="m 633.9,380.3 -1,16.8 c -0.8,-0.3 -1.7,-0.6 -2.6,-0.7 -0.9,-0.1 -2.1,-0.2 -3.4,-0.2 -4.6,0 -8.1,1.5 -10.5,4.5 -2.4,3 -3.5,7.4 -3.5,13.2 V 438 h -19.5 v -56.9 h 17.4 V 392 c 2,-4.2 4.4,-7.3 7.2,-9.3 2.8,-2 6.2,-3 10.1,-3 1,0 2.8,0.2 5.5,0.6 0.1,0 0.3,0 0.3,0 z"
   id="path30"
   inkscape:connector-curvature="0"
   style="fill:#ffffff" />
		<path
   class="st0"
   d="M 701.1,404.8 V 438 h -19.3 v -29.2 c 0,-4.5 -0.8,-7.8 -2.4,-10 -1.6,-2.2 -4,-3.3 -7.2,-3.3 -3.4,0 -6.1,1.4 -8.1,4.1 -2,2.7 -3,6.4 -3,11 V 438 h -19.5 v -56.9 h 17.7 v 10.2 c 2.2,-3.8 5.1,-6.7 8.6,-8.7 3.5,-2 7.5,-3 11.9,-3 6.9,0 12.2,2.1 15.9,6.4 3.6,4.3 5.4,10.6 5.4,18.8 z"
   id="path32"
   inkscape:connector-curvature="0"
   style="fill:#ffffff" />
		<path
   class="st0"
   d="M 711.5,398.7 H 741 v 14.5 h -29.5 z"
   id="path34"
   inkscape:connector-curvature="0"
   style="fill:#ffffff" />
		<path
   class="st0"
   d="m 752.3,361.3 h 20.5 V 438 h -20.5 z"
   id="path36"
   inkscape:connector-curvature="0"
   style="fill:#ffffff" />
		<path
   class="st0"
   d="M 847.2,404.8 V 438 h -19.3 v -29.2 c 0,-4.5 -0.8,-7.8 -2.4,-10 -1.6,-2.2 -4,-3.3 -7.2,-3.3 -3.4,0 -6.1,1.4 -8.1,4.1 -2,2.7 -3.1,6.4 -3.1,11 V 438 h -19.5 v -56.9 h 17.7 v 10.2 c 2.2,-3.8 5.1,-6.7 8.6,-8.7 3.5,-2 7.5,-3 11.9,-3 6.9,0 12.2,2.1 15.9,6.4 3.7,4.3 5.5,10.6 5.5,18.8 z"
   id="path38"
   inkscape:connector-curvature="0"
   style="fill:#ffffff" />
		<path
   class="st0"
   d="M 920.6,404.8 V 438 h -19.3 v -29.2 c 0,-4.5 -0.8,-7.8 -2.4,-10 -1.6,-2.2 -4,-3.3 -7.2,-3.3 -3.4,0 -6.1,1.4 -8.1,4.1 -2,2.7 -3.1,6.4 -3.1,11 V 438 H 861 v -56.9 h 17.7 v 10.2 c 2.2,-3.8 5.1,-6.7 8.6,-8.7 3.5,-2 7.5,-3 11.9,-3 6.9,0 12.2,2.1 15.9,6.4 3.7,4.3 5.5,10.6 5.5,18.8 z"
   id="path40"
   inkscape:connector-curvature="0"
   style="fill:#ffffff" />
		<path
   class="st0"
   d="m 963.8,379.7 c 10.3,0 18.3,2.6 24.1,7.9 5.8,5.3 8.7,12.6 8.7,22 0,9.3 -2.9,16.6 -8.7,21.9 -5.8,5.3 -13.8,7.9 -24.1,7.9 -10.2,0 -18.2,-2.6 -24,-7.9 -5.8,-5.3 -8.6,-12.6 -8.6,-21.9 0,-9.4 2.9,-16.7 8.6,-22 5.8,-5.3 13.8,-7.9 24,-7.9 z m 0,13.6 c -3.7,0 -6.6,1.5 -8.9,4.5 -2.3,3 -3.4,6.9 -3.4,11.8 0,4.8 1.1,8.7 3.4,11.7 2.3,3 5.3,4.5 8.9,4.5 3.7,0 6.7,-1.5 9,-4.4 2.2,-2.9 3.4,-6.9 3.4,-11.8 0,-4.9 -1.1,-8.9 -3.4,-11.8 -2.3,-3.1 -5.3,-4.5 -9,-4.5 z"
   id="path42"
   inkscape:connector-curvature="0"
   style="fill:#ffffff" />
		<path
   class="st0"
   d="m 1001.6,381.2 h 21.1 l 11.9,39.2 12,-39.2 h 19.6 l -21.3,56.9 h -22 z"
   id="path44"
   inkscape:connector-curvature="0"
   style="fill:#ffffff" />
		<path
   class="st0"
   d="M 1126.4,408.3 V 438 h -16.9 l -0.4,-8.9 c -2.3,3.3 -5.1,5.7 -8.4,7.2 -3.3,1.5 -7.2,2.3 -11.8,2.3 -5.8,0 -10.4,-1.6 -13.8,-4.9 -3.4,-3.3 -5.1,-7.6 -5.1,-13.1 0,-6.3 2.5,-11 7.5,-14 5,-3 12.6,-4.6 23,-4.6 h 7.6 v -0.8 c 0,-3.1 -1.2,-5.4 -3.6,-7.1 -2.4,-1.7 -5.8,-2.5 -10.4,-2.5 -2.2,0 -4.8,0.4 -7.6,1.2 -2.8,0.8 -5.9,1.9 -9.2,3.4 l -0.3,-12.8 c 3.2,-1.3 6.6,-2.3 10.3,-3 3.7,-0.6 7.8,-1 12.2,-1 9.3,0 16.1,2.3 20.4,6.9 4.3,4.8 6.5,12.1 6.5,22 z m -21.7,3.8 c -5.7,0 -9.9,0.6 -12.4,1.9 -2.5,1.2 -3.8,3.2 -3.8,5.9 0,2 0.7,3.6 2,4.8 1.4,1.2 3.2,1.8 5.4,1.8 3.5,0 6.4,-1.2 8.7,-3.6 2.3,-2.4 3.4,-5.5 3.4,-9.3 V 412 Z"
   id="path46"
   inkscape:connector-curvature="0"
   style="fill:#ffffff" />
		<path
   class="st0"
   d="m 1164.8,361.9 v 19.3 h 13.9 v 14 h -13.9 v 19.7 c 0,4.2 0.7,7.2 2,8.9 1.4,1.7 3.7,2.6 7,2.6 0.5,0 1.1,-0.1 1.8,-0.2 0.7,-0.1 1.7,-0.4 3.1,-0.7 l 0.3,12.6 c -2.1,0.5 -4.1,0.8 -6.1,1.1 -2,0.3 -3.9,0.4 -5.7,0.4 -7.7,0 -13.2,-1.9 -16.7,-5.7 -3.4,-3.8 -5.1,-10 -5.1,-18.5 v -20.2 h -10.9 v -14 h 12 v -13.1 z"
   id="path48"
   inkscape:connector-curvature="0"
   style="fill:#ffffff" />
		<path
   class="st0"
   d="m 1189.6,355.1 h 19.5 v 15.8 h -19.5 z m 0,26.1 h 19.5 V 438 h -19.5 z"
   id="path50"
   inkscape:connector-curvature="0"
   style="fill:#ffffff" />
		<path
   class="st0"
   d="m 1253.4,379.7 c 10.3,0 18.3,2.6 24.1,7.9 5.8,5.3 8.7,12.6 8.7,22 0,9.3 -2.9,16.6 -8.7,21.9 -5.8,5.3 -13.8,7.9 -24.1,7.9 -10.2,0 -18.2,-2.6 -24,-7.9 -5.8,-5.3 -8.6,-12.6 -8.6,-21.9 0,-9.4 2.9,-16.7 8.6,-22 5.8,-5.3 13.7,-7.9 24,-7.9 z m 0,13.6 c -3.7,0 -6.6,1.5 -8.9,4.5 -2.3,3 -3.4,6.9 -3.4,11.8 0,4.8 1.1,8.7 3.4,11.7 2.3,3 5.3,4.5 8.9,4.5 3.7,0 6.7,-1.5 9,-4.4 2.2,-2.9 3.4,-6.9 3.4,-11.8 0,-4.9 -1.1,-8.9 -3.4,-11.8 -2.3,-3.1 -5.3,-4.5 -9,-4.5 z"
   id="path52"
   inkscape:connector-curvature="0"
   style="fill:#ffffff" />
		<path
   class="st0"
   d="M 1357.3,404.8 V 438 H 1338 v -29.2 c 0,-4.5 -0.8,-7.8 -2.4,-10 -1.6,-2.2 -4,-3.3 -7.2,-3.3 -3.4,0 -6.1,1.4 -8.1,4.1 -2,2.7 -3.1,6.4 -3.1,11 V 438 h -19.5 v -56.9 h 17.7 v 10.2 c 2.2,-3.8 5.1,-6.7 8.6,-8.7 3.5,-2 7.5,-3 11.9,-3 6.9,0 12.2,2.1 15.9,6.4 3.7,4.3 5.5,10.6 5.5,18.8 z"
   id="path54"
   inkscape:connector-curvature="0"
   style="fill:#ffffff" />
	</g>
</g>
<path
   class="st0"
   d="M 3.2000004,0 H 3.8146973e-7 V 121.8 H 121 v -3.2 c 0,0 0,-0.1 0,-0.2 0,-0.1 0,-0.3 0,-0.4 C 121.1,53.1 68.2,0.1 3.2000004,0 Z"
   id="path60"
   inkscape:connector-curvature="0"
   style="fill:#ffffff" />
<rect
   x="0"
   y="163.3"
   class="st0"
   width="121.1"
   height="261.60001"
   id="rect62"
   style="fill:#ffffff" />
<path
   class="st0"
   d="M 260.6,111.1 C 256.9,48.7 206,0.1 143,0 h -3.2 V 424.9 H 260.9 V 111.1 Z"
   id="path64"
   inkscape:connector-curvature="0"
   style="fill:#ffffff" />
<path
   class="st0"
   d="m 282.9,0 h -3.2 v 121.8 h 121.1 v -3.4 c 0,-0.1 0,-0.2 0,-0.4 C 400.8,53.1 347.9,0.1 282.9,0 Z"
   id="path66"
   inkscape:connector-curvature="0"
   style="fill:#ffffff" />
<rect
   x="279.80002"
   y="163.3"
   class="st0"
   width="121.1"
   height="261.60001"
   id="rect68"
   style="fill:#ffffff" />
</svg>